<?xml version="1.0" standalone="no"?>
<svg xmlns="http://www.w3.org/2000/svg" width="400" height="400"><defs><clipPath id="clip-path-dot-color"><circle cx="20" cy="110" r="5" transform="rotate(0,20,110)"/><path d="M 15 145v 10h 5a 5 5, 0, 0, 0, 0 -10" transform="rotate(-90,20,150)"/><rect x="15" y="155" width="10" height="10" transform="rotate(0,20,160)"/><path d="M 15 165v 10h 5a 5 5, 0, 0, 0, 0 -10" transform="rotate(90,20,170)"/><path d="M 15 195v 10h 5a 5 5, 0, 0, 0, 0 -10" transform="rotate(-90,20,200)"/><path d="M 15 205v 10h 10a 10 10, 0, 0, 0, -10 -10" transform="rotate(180,20,210)"/><path d="M 15 235v 10h 10a 10 10, 0, 0, 0, -10 -10" transform="rotate(-90,20,240)"/><rect x="15" y="245" width="10" height="10" transform="rotate(0,20,250)"/><rect x="15" y="255" width="10" height="10" transform="rotate(0,20,260)"/><path d="M 15 265v 10h 10a 10 10, 0, 0, 0, -10 -10" transform="rotate(180,20,270)"/><path d="M 15 295v 10h 5a 5 5, 0, 0, 0, 0 -10" transform="rotate(180,20,300)"/><path d="M 25 115v 10h 5a 5 5, 0, 0, 0, 0 -10" transform="rotate(-90,30,120)"/><path d="M 25 125v 10h 5a 5 5, 0, 0, 0, 0 -10" transform="rotate(90,30,130)"/><rect x="25" y="155" width="10" height="10" transform="rotate(0,30,160)"/><path d="M 25 205v 10h 10a 10 10, 0, 0, 0, -10 -10" transform="rotate(0,30,210)"/><path d="M 25 215v 10h 5a 5 5, 0, 0, 0, 0 -10" transform="rotate(90,30,220)"/><path d="M 25 235v 10h 10a 10 10, 0, 0, 0, -10 -10" transform="rotate(0,30,240)"/><rect x="25" y="245" width="10" height="10" transform="rotate(0,30,250)"/><rect x="25" y="265" width="10" height="10" transform="rotate(0,30,270)"/><path d="M 25 275v 10h 10a 10 10, 0, 0, 0, -10 -10" transform="rotate(180,30,280)"/><path d="M 25 295v 10h 5a 5 5, 0, 0, 0, 0 -10" transform="rotate(0,30,300)"/><path d="M 35 105v 10h 5a 5 5, 0, 0, 0, 0 -10" transform="rotate(180,40,110)"/><path d="M 35 145v 10h 10a 10 10, 0, 0, 0, -10 -10" transform="rotate(-90,40,150)"/><rect x="35" y="155" width="10" height="10" transform="rotate(0,40,160)"/><path d="M 35 175v 10h 10a 10 10, 0, 0, 0, -10 -10" transform="rotate(-90,40,180)"/><path d="M 35 185v 10h 10a 10 10, 0, 0, 0, -10 -10" transform="rotate(180,40,190)"/><path d="M 35 225v 10h 5a 5 5, 0, 0, 0, 0 -10" transform="rotate(180,40,230)"/><path d="M 35 245v 10h 5a 5 5, 0, 0, 0, 0 -10" transform="rotate(0,40,250)"/><rect x="35" y="265" width="10" height="10" transform="rotate(0,40,270)"/><rect x="35" y="275" width="10" height="10" transform="rotate(0,40,280)"/><path d="M 35 285v 10h 5a 5 5, 0, 0, 0, 0 -10" transform="rotate(90,40,290)"/><path d="M 45 105v 10h 5a 5 5, 0, 0, 0, 0 -10" transform="rotate(0,50,110)"/><path d="M 45 145v 10h 10a 10 10, 0, 0, 0, -10 -10" transform="rotate(0,50,150)"/><rect x="45" y="155" width="10" height="10" transform="rotate(0,50,160)"/><rect x="45" y="165" width="10" height="10" transform="rotate(0,50,170)"/><rect x="45" y="175" width="10" height="10" transform="rotate(0,50,180)"/><rect x="45" y="185" width="10" height="10" transform="rotate(0,50,190)"/><rect x="45" y="195" width="10" height="10" transform="rotate(0,50,200)"/><path d="M 45 205v 10h 10a 10 10, 0, 0, 0, -10 -10" transform="rotate(180,50,210)"/><path d="M 45 225v 10h 5a 5 5, 0, 0, 0, 0 -10" transform="rotate(0,50,230)"/><path d="M 45 255v 10h 5a 5 5, 0, 0, 0, 0 -10" transform="rotate(-90,50,260)"/><rect x="45" y="265" width="10" height="10" transform="rotate(0,50,270)"/><circle cx="60" cy="100" r="5" transform="rotate(0,60,100)"/><rect x="55" y="165" width="10" height="10" transform="rotate(0,60,170)"/><rect x="55" y="185" width="10" height="10" transform="rotate(0,60,190)"/><path d="M 55 205v 10h 5a 5 5, 0, 0, 0, 0 -10" transform="rotate(0,60,210)"/><path d="M 55 265v 10h 10a 10 10, 0, 0, 0, -10 -10" transform="rotate(0,60,270)"/><rect x="55" y="275" width="10" height="10" transform="rotate(0,60,280)"/><path d="M 55 285v 10h 5a 5 5, 0, 0, 0, 0 -10" transform="rotate(90,60,290)"/><path d="M 65 105v 10h 5a 5 5, 0, 0, 0, 0 -10" transform="rotate(-90,70,110)"/><rect x="65" y="115" width="10" height="10" transform="rotate(0,70,120)"/><rect x="65" y="125" width="10" height="10" transform="rotate(0,70,130)"/><path d="M 65 135v 10h 10a 10 10, 0, 0, 0, -10 -10" transform="rotate(180,70,140)"/><path d="M 65 155v 10h 10a 10 10, 0, 0, 0, -10 -10" transform="rotate(-90,70,160)"/><path d="M 65 165v 10h 10a 10 10, 0, 0, 0, -10 -10" transform="rotate(90,70,170)"/><path d="M 65 185v 10h 5a 5 5, 0, 0, 0, 0 -10" transform="rotate(0,70,190)"/><path d="M 65 215v 10h 5a 5 5, 0, 0, 0, 0 -10" transform="rotate(180,70,220)"/><rect x="65" y="275" width="10" height="10" transform="rotate(0,70,280)"/><path d="M 75 95v 10h 5a 5 5, 0, 0, 0, 0 -10" transform="rotate(180,80,100)"/><rect x="75" y="115" width="10" height="10" transform="rotate(0,80,120)"/><rect x="75" y="135" width="10" height="10" transform="rotate(0,80,140)"/><path d="M 75 155v 10h 5a 5 5, 0, 0, 0, 0 -10" transform="rotate(0,80,160)"/><circle cx="80" cy="180" r="5" transform="rotate(0,80,180)"/><circle cx="80" cy="200" r="5" transform="rotate(0,80,200)"/><path d="M 75 215v 10h 5a 5 5, 0, 0, 0, 0 -10" transform="rotate(0,80,220)"/><circle cx="80" cy="240" r="5" transform="rotate(0,80,240)"/><path d="M 75 255v 10h 5a 5 5, 0, 0, 0, 0 -10" transform="rotate(180,80,260)"/><rect x="75" y="275" width="10" height="10" transform="rotate(0,80,280)"/><path d="M 75 295v 10h 5a 5 5, 0, 0, 0, 0 -10" transform="rotate(180,80,300)"/><rect x="85" y="95" width="10" height="10" transform="rotate(0,90,100)"/><path d="M 85 115v 10h 10a 10 10, 0, 0, 0, -10 -10" transform="rotate(0,90,120)"/><rect x="85" y="125" width="10" height="10" transform="rotate(0,90,130)"/><rect x="85" y="135" width="10" height="10" transform="rotate(0,90,140)"/><path d="M 85 145v 10h 10a 10 10, 0, 0, 0, -10 -10" transform="rotate(180,90,150)"/><circle cx="90" cy="210" r="5" transform="rotate(0,90,210)"/><path d="M 85 245v 10h 5a 5 5, 0, 0, 0, 0 -10" transform="rotate(-90,90,250)"/><rect x="85" y="255" width="10" height="10" transform="rotate(0,90,260)"/><rect x="85" y="265" width="10" height="10" transform="rotate(0,90,270)"/><rect x="85" y="275" width="10" height="10" transform="rotate(0,90,280)"/><rect x="85" y="285" width="10" height="10" transform="rotate(0,90,290)"/><rect x="85" y="295" width="10" height="10" transform="rotate(0,90,300)"/><path d="M 95 35v 10h 5a 5 5, 0, 0, 0, 0 -10" transform="rotate(-90,100,40)"/><path d="M 95 45v 10h 10a 10 10, 0, 0, 0, -10 -10" transform="rotate(180,100,50)"/><path d="M 95 75v 10h 5a 5 5, 0, 0, 0, 0 -10" transform="rotate(-90,100,80)"/><rect x="95" y="85" width="10" height="10" transform="rotate(0,100,90)"/><rect x="95" y="95" width="10" height="10" transform="rotate(0,100,100)"/><path d="M 95 125v 10h 5a 5 5, 0, 0, 0, 0 -10" transform="rotate(0,100,130)"/><path d="M 95 145v 10h 10a 10 10, 0, 0, 0, -10 -10" transform="rotate(0,100,150)"/><path d="M 95 155v 10h 10a 10 10, 0, 0, 0, -10 -10" transform="rotate(180,100,160)"/><path d="M 95 195v 10h 5a 5 5, 0, 0, 0, 0 -10" transform="rotate(180,100,200)"/><path d="M 95 215v 10h 5a 5 5, 0, 0, 0, 0 -10" transform="rotate(180,100,220)"/><rect x="95" y="255" width="10" height="10" transform="rotate(0,100,260)"/><rect x="95" y="265" width="10" height="10" transform="rotate(0,100,270)"/><rect x="95" y="275" width="10" height="10" transform="rotate(0,100,280)"/><rect x="95" y="285" width="10" height="10" transform="rotate(0,100,290)"/><rect x="95" y="295" width="10" height="10" transform="rotate(0,100,300)"/><rect x="95" y="305" width="10" height="10" transform="rotate(0,100,310)"/><path d="M 95 315v 10h 5a 5 5, 0, 0, 0, 0 -10" transform="rotate(90,100,320)"/><circle cx="100" cy="340" r="5" transform="rotate(0,100,340)"/><path d="M 105 15v 10h 5a 5 5, 0, 0, 0, 0 -10" transform="rotate(-90,110,20)"/><path d="M 105 25v 10h 10a 10 10, 0, 0, 0, -10 -10" transform="rotate(180,110,30)"/><rect x="105" y="45" width="10" height="10" transform="rotate(0,110,50)"/><path d="M 105 55v 10h 5a 5 5, 0, 0, 0, 0 -10" transform="rotate(90,110,60)"/><rect x="105" y="95" width="10" height="10" transform="rotate(0,110,100)"/><path d="M 105 115v 10h 5a 5 5, 0, 0, 0, 0 -10" transform="rotate(180,110,120)"/><rect x="105" y="155" width="10" height="10" transform="rotate(0,110,160)"/><path d="M 105 175v 10h 5a 5 5, 0, 0, 0, 0 -10" transform="rotate(180,110,180)"/><path d="M 105 195v 10h 5a 5 5, 0, 0, 0, 0 -10" transform="rotate(0,110,200)"/><path d="M 105 215v 10h 10a 10 10, 0, 0, 0, -10 -10" transform="rotate(0,110,220)"/><rect x="105" y="225" width="10" height="10" transform="rotate(0,110,230)"/><path d="M 105 235v 10h 5a 5 5, 0, 0, 0, 0 -10" transform="rotate(90,110,240)"/><rect x="105" y="255" width="10" height="10" transform="rotate(0,110,260)"/><rect x="105" y="265" width="10" height="10" transform="rotate(0,110,270)"/><path d="M 105 285v 10h 5a 5 5, 0, 0, 0, 0 -10" transform="rotate(0,110,290)"/><rect x="105" y="305" width="10" height="10" transform="rotate(0,110,310)"/><circle cx="110" cy="330" r="5" transform="rotate(0,110,330)"/><circle cx="110" cy="350" r="5" transform="rotate(0,110,350)"/><rect x="115" y="25" width="10" height="10" transform="rotate(0,120,30)"/><rect x="115" y="35" width="10" height="10" transform="rotate(0,120,40)"/><path d="M 115 45v 10h 10a 10 10, 0, 0, 0, -10 -10" transform="rotate(90,120,50)"/><path d="M 115 75v 10h 5a 5 5, 0, 0, 0, 0 -10" transform="rotate(-90,120,80)"/><rect x="115" y="85" width="10" height="10" transform="rotate(0,120,90)"/><rect x="115" y="95" width="10" height="10" transform="rotate(0,120,100)"/><path d="M 115 115v 10h 5a 5 5, 0, 0, 0, 0 -10" transform="rotate(0,120,120)"/><rect x="115" y="155" width="10" height="10" transform="rotate(0,120,160)"/><rect x="115" y="175" width="10" height="10" transform="rotate(0,120,180)"/><path d="M 115 205v 10h 5a 5 5, 0, 0, 0, 0 -10" transform="rotate(180,120,210)"/><path d="M 115 245v 10h 10a 10 10, 0, 0, 0, -10 -10" transform="rotate(-90,120,250)"/><rect x="115" y="255" width="10" height="10" transform="rotate(0,120,260)"/><rect x="115" y="265" width="10" height="10" transform="rotate(0,120,270)"/><path d="M 115 295v 10h 5a 5 5, 0, 0, 0, 0 -10" transform="rotate(-90,120,300)"/><path d="M 115 305v 10h 10a 10 10, 0, 0, 0, -10 -10" transform="rotate(90,120,310)"/><path d="M 125 15v 10h 5a 5 5, 0, 0, 0, 0 -10" transform="rotate(-90,130,20)"/><path d="M 125 25v 10h 10a 10 10, 0, 0, 0, -10 -10" transform="rotate(90,130,30)"/><path d="M 125 95v 10h 10a 10 10, 0, 0, 0, -10 -10" transform="rotate(0,130,100)"/><path d="M 125 105v 10h 5a 5 5, 0, 0, 0, 0 -10" transform="rotate(90,130,110)"/><path d="M 125 135v 10h 5a 5 5, 0, 0, 0, 0 -10" transform="rotate(-90,130,140)"/><rect x="125" y="145" width="10" height="10" transform="rotate(0,130,150)"/><path d="M 125 155v 10h 10a 10 10, 0, 0, 0, -10 -10" transform="rotate(90,130,160)"/><rect x="125" y="175" width="10" height="10" transform="rotate(0,130,180)"/><path d="M 125 205v 10h 10a 10 10, 0, 0, 0, -10 -10" transform="rotate(0,130,210)"/><rect x="125" y="215" width="10" height="10" transform="rotate(0,130,220)"/><rect x="125" y="225" width="10" height="10" transform="rotate(0,130,230)"/><rect x="125" y="235" width="10" height="10" transform="rotate(0,130,240)"/><rect x="125" y="245" width="10" height="10" transform="rotate(0,130,250)"/><rect x="125" y="265" width="10" height="10" transform="rotate(0,130,270)"/><rect x="125" y="275" width="10" height="10" transform="rotate(0,130,280)"/><path d="M 125 285v 10h 5a 5 5, 0, 0, 0, 0 -10" transform="rotate(90,130,290)"/><path d="M 125 345v 10h 5a 5 5, 0, 0, 0, 0 -10" transform="rotate(-90,130,350)"/><rect x="125" y="355" width="10" height="10" transform="rotate(0,130,360)"/><path d="M 125 365v 10h 10a 10 10, 0, 0, 0, -10 -10" transform="rotate(180,130,370)"/><circle cx="140" cy="40" r="5" transform="rotate(0,140,40)"/><path d="M 135 55v 10h 10a 10 10, 0, 0, 0, -10 -10" transform="rotate(-90,140,60)"/><rect x="135" y="65" width="10" height="10" transform="rotate(0,140,70)"/><path d="M 135 75v 10h 5a 5 5, 0, 0, 0, 0 -10" transform="rotate(90,140,80)"/><circle cx="140" cy="120" r="5" transform="rotate(0,140,120)"/><path d="M 135 145v 10h 5a 5 5, 0, 0, 0, 0 -10" transform="rotate(0,140,150)"/><path d="M 135 175v 10h 10a 10 10, 0, 0, 0, -10 -10" transform="rotate(0,140,180)"/><rect x="135" y="185" width="10" height="10" transform="rotate(0,140,190)"/><path d="M 135 195v 10h 5a 5 5, 0, 0, 0, 0 -10" transform="rotate(90,140,200)"/><rect x="135" y="215" width="10" height="10" transform="rotate(0,140,220)"/><rect x="135" y="225" width="10" height="10" transform="rotate(0,140,230)"/><rect x="135" y="235" width="10" height="10" transform="rotate(0,140,240)"/><path d="M 135 245v 10h 10a 10 10, 0, 0, 0, -10 -10" transform="rotate(90,140,250)"/><rect x="135" y="265" width="10" height="10" transform="rotate(0,140,270)"/><path d="M 135 275v 10h 10a 10 10, 0, 0, 0, -10 -10" transform="rotate(90,140,280)"/><path d="M 135 305v 10h 5a 5 5, 0, 0, 0, 0 -10" transform="rotate(-90,140,310)"/><rect x="135" y="315" width="10" height="10" transform="rotate(0,140,320)"/><rect x="135" y="325" width="10" height="10" transform="rotate(0,140,330)"/><path d="M 135 335v 10h 10a 10 10, 0, 0, 0, -10 -10" transform="rotate(180,140,340)"/><rect x="135" y="355" width="10" height="10" transform="rotate(0,140,360)"/><rect x="135" y="365" width="10" height="10" transform="rotate(0,140,370)"/><path d="M 135 375v 10h 10a 10 10, 0, 0, 0, -10 -10" transform="rotate(180,140,380)"/><circle cx="150" cy="20" r="5" transform="rotate(0,150,20)"/><path d="M 145 45v 10h 5a 5 5, 0, 0, 0, 0 -10" transform="rotate(-90,150,50)"/><rect x="145" y="55" width="10" height="10" transform="rotate(0,150,60)"/><path d="M 145 65v 10h 10a 10 10, 0, 0, 0, -10 -10" transform="rotate(90,150,70)"/><path d="M 145 85v 10h 5a 5 5, 0, 0, 0, 0 -10" transform="rotate(-90,150,90)"/><rect x="145" y="95" width="10" height="10" transform="rotate(0,150,100)"/><path d="M 145 105v 10h 10a 10 10, 0, 0, 0, -10 -10" transform="rotate(180,150,110)"/><path d="M 145 155v 10h 5a 5 5, 0, 0, 0, 0 -10" transform="rotate(180,150,160)"/><rect x="145" y="185" width="10" height="10" transform="rotate(0,150,190)"/><path d="M 145 205v 10h 10a 10 10, 0, 0, 0, -10 -10" transform="rotate(-90,150,210)"/><rect x="145" y="215" width="10" height="10" transform="rotate(0,150,220)"/><rect x="145" y="225" width="10" height="10" transform="rotate(0,150,230)"/><path d="M 145 235v 10h 10a 10 10, 0, 0, 0, -10 -10" transform="rotate(90,150,240)"/><path d="M 145 255v 10h 10a 10 10, 0, 0, 0, -10 -10" transform="rotate(-90,150,260)"/><rect x="145" y="265" width="10" height="10" transform="rotate(0,150,270)"/><path d="M 145 285v 10h 5a 5 5, 0, 0, 0, 0 -10" transform="rotate(-90,150,290)"/><path d="M 145 295v 10h 5a 5 5, 0, 0, 0, 0 -10" transform="rotate(90,150,300)"/><rect x="145" y="315" width="10" height="10" transform="rotate(0,150,320)"/><rect x="145" y="325" width="10" height="10" transform="rotate(0,150,330)"/><path d="M 145 335v 10h 10a 10 10, 0, 0, 0, -10 -10" transform="rotate(90,150,340)"/><rect x="145" y="355" width="10" height="10" transform="rotate(0,150,360)"/><rect x="145" y="365" width="10" height="10" transform="rotate(0,150,370)"/><path d="M 145 375v 10h 10a 10 10, 0, 0, 0, -10 -10" transform="rotate(90,150,380)"/><path d="M 155 25v 10h 5a 5 5, 0, 0, 0, 0 -10" transform="rotate(180,160,30)"/><rect x="155" y="55" width="10" height="10" transform="rotate(0,160,60)"/><circle cx="160" cy="80" r="5" transform="rotate(0,160,80)"/><rect x="155" y="95" width="10" height="10" transform="rotate(0,160,100)"/><rect x="155" y="105" width="10" height="10" transform="rotate(0,160,110)"/><rect x="155" y="115" width="10" height="10" transform="rotate(0,160,120)"/><path d="M 155 125v 10h 5a 5 5, 0, 0, 0, 0 -10" transform="rotate(90,160,130)"/><rect x="155" y="155" width="10" height="10" transform="rotate(0,160,160)"/><rect x="155" y="165" width="10" height="10" transform="rotate(0,160,170)"/><rect x="155" y="175" width="10" height="10" transform="rotate(0,160,180)"/><rect x="155" y="185" width="10" height="10" transform="rotate(0,160,190)"/><rect x="155" y="205" width="10" height="10" transform="rotate(0,160,210)"/><rect x="155" y="215" width="10" height="10" transform="rotate(0,160,220)"/><path d="M 155 225v 10h 10a 10 10, 0, 0, 0, -10 -10" transform="rotate(90,160,230)"/><path d="M 155 255v 10h 10a 10 10, 0, 0, 0, -10 -10" transform="rotate(0,160,260)"/><path d="M 155 265v 10h 10a 10 10, 0, 0, 0, -10 -10" transform="rotate(90,160,270)"/><path d="M 155 305v 10h 5a 5 5, 0, 0, 0, 0 -10" transform="rotate(-90,160,310)"/><rect x="155" y="315" width="10" height="10" transform="rotate(0,160,320)"/><rect x="155" y="325" width="10" height="10" transform="rotate(0,160,330)"/><path d="M 155 355v 10h 10a 10 10, 0, 0, 0, -10 -10" transform="rotate(0,160,360)"/><rect x="155" y="365" width="10" height="10" transform="rotate(0,160,370)"/><path d="M 165 15v 10h 10a 10 10, 0, 0, 0, -10 -10" transform="rotate(-90,170,20)"/><rect x="165" y="25" width="10" height="10" transform="rotate(0,170,30)"/><path d="M 165 35v 10h 5a 5 5, 0, 0, 0, 0 -10" transform="rotate(90,170,40)"/><rect x="165" y="55" width="10" height="10" transform="rotate(0,170,60)"/><path d="M 165 85v 10h 10a 10 10, 0, 0, 0, -10 -10" transform="rotate(-90,170,90)"/><path d="M 165 95v 10h 10a 10 10, 0, 0, 0, -10 -10" transform="rotate(90,170,100)"/><path d="M 165 155v 10h 10a 10 10, 0, 0, 0, -10 -10" transform="rotate(0,170,160)"/><rect x="165" y="165" width="10" height="10" transform="rotate(0,170,170)"/><rect x="165" y="175" width="10" height="10" transform="rotate(0,170,180)"/><rect x="165" y="185" width="10" height="10" transform="rotate(0,170,190)"/><path d="M 165 205v 10h 10a 10 10, 0, 0, 0, -10 -10" transform="rotate(0,170,210)"/><rect x="165" y="215" width="10" height="10" transform="rotate(0,170,220)"/><path d="M 165 235v 10h 5a 5 5, 0, 0, 0, 0 -10" transform="rotate(-90,170,240)"/><path d="M 165 245v 10h 5a 5 5, 0, 0, 0, 0 -10" transform="rotate(90,170,250)"/><path d="M 165 285v 10h 5a 5 5, 0, 0, 0, 0 -10" transform="rotate(-90,170,290)"/><path d="M 165 295v 10h 5a 5 5, 0, 0, 0, 0 -10" transform="rotate(90,170,300)"/><path d="M 165 315v 10h 10a 10 10, 0, 0, 0, -10 -10" transform="rotate(0,170,320)"/><path d="M 165 325v 10h 10a 10 10, 0, 0, 0, -10 -10" transform="rotate(90,170,330)"/><rect x="165" y="365" width="10" height="10" transform="rotate(0,170,370)"/><path d="M 165 375v 10h 5a 5 5, 0, 0, 0, 0 -10" transform="rotate(90,170,380)"/><path d="M 175 15v 10h 10a 10 10, 0, 0, 0, -10 -10" transform="rotate(0,180,20)"/><path d="M 175 25v 10h 10a 10 10, 0, 0, 0, -10 -10" transform="rotate(90,180,30)"/><rect x="175" y="55" width="10" height="10" transform="rotate(0,180,60)"/><path d="M 175 75v 10h 5a 5 5, 0, 0, 0, 0 -10" transform="rotate(-90,180,80)"/><path d="M 175 85v 10h 10a 10 10, 0, 0, 0, -10 -10" transform="rotate(90,180,90)"/><path d="M 175 115v 10h 5a 5 5, 0, 0, 0, 0 -10" transform="rotate(-90,180,120)"/><path d="M 175 125v 10h 10a 10 10, 0, 0, 0, -10 -10" transform="rotate(180,180,130)"/><path d="M 175 145v 10h 5a 5 5, 0, 0, 0, 0 -10" transform="rotate(180,180,150)"/><path d="M 175 165v 10h 5a 5 5, 0, 0, 0, 0 -10" transform="rotate(0,180,170)"/><path d="M 175 185v 10h 5a 5 5, 0, 0, 0, 0 -10" transform="rotate(0,180,190)"/><path d="M 175 215v 10h 10a 10 10, 0, 0, 0, -10 -10" transform="rotate(0,180,220)"/><path d="M 175 225v 10h 10a 10 10, 0, 0, 0, -10 -10" transform="rotate(180,180,230)"/><path d="M 175 255v 10h 5a 5 5, 0, 0, 0, 0 -10" transform="rotate(-90,180,260)"/><path d="M 175 265v 10h 5a 5 5, 0, 0, 0, 0 -10" transform="rotate(90,180,270)"/><path d="M 175 345v 10h 5a 5 5, 0, 0, 0, 0 -10" transform="rotate(-90,180,350)"/><rect x="175" y="355" width="10" height="10" transform="rotate(0,180,360)"/><path d="M 175 365v 10h 10a 10 10, 0, 0, 0, -10 -10" transform="rotate(90,180,370)"/><path d="M 185 55v 10h 10a 10 10, 0, 0, 0, -10 -10" transform="rotate(0,190,60)"/><path d="M 185 65v 10h 10a 10 10, 0, 0, 0, -10 -10" transform="rotate(180,190,70)"/><circle cx="190" cy="100" r="5" transform="rotate(0,190,100)"/><path d="M 185 125v 10h 5a 5 5, 0, 0, 0, 0 -10" transform="rotate(0,190,130)"/><rect x="185" y="145" width="10" height="10" transform="rotate(0,190,150)"/><path d="M 185 195v 10h 10a 10 10, 0, 0, 0, -10 -10" transform="rotate(-90,190,200)"/><path d="M 185 205v 10h 5a 5 5, 0, 0, 0, 0 -10" transform="rotate(90,190,210)"/><path d="M 185 225v 10h 5a 5 5, 0, 0, 0, 0 -10" transform="rotate(0,190,230)"/><circle cx="190" cy="250" r="5" transform="rotate(0,190,250)"/><path d="M 185 285v 10h 10a 10 10, 0, 0, 0, -10 -10" transform="rotate(-90,190,290)"/><path d="M 185 295v 10h 5a 5 5, 0, 0, 0, 0 -10" transform="rotate(90,190,300)"/><path d="M 185 315v 10h 5a 5 5, 0, 0, 0, 0 -10" transform="rotate(180,190,320)"/><path d="M 185 375v 10h 5a 5 5, 0, 0, 0, 0 -10" transform="rotate(180,190,380)"/><circle cx="200" cy="30" r="5" transform="rotate(0,200,30)"/><path d="M 195 65v 10h 10a 10 10, 0, 0, 0, -10 -10" transform="rotate(0,200,70)"/><rect x="195" y="75" width="10" height="10" transform="rotate(0,200,80)"/><path d="M 195 85v 10h 10a 10 10, 0, 0, 0, -10 -10" transform="rotate(180,200,90)"/><path d="M 195 115v 10h 5a 5 5, 0, 0, 0, 0 -10" transform="rotate(180,200,120)"/><path d="M 195 135v 10h 5a 5 5, 0, 0, 0, 0 -10" transform="rotate(-90,200,140)"/><rect x="195" y="145" width="10" height="10" transform="rotate(0,200,150)"/><rect x="195" y="155" width="10" height="10" transform="rotate(0,200,160)"/><rect x="195" y="165" width="10" height="10" transform="rotate(0,200,170)"/><rect x="195" y="175" width="10" height="10" transform="rotate(0,200,180)"/><rect x="195" y="185" width="10" height="10" transform="rotate(0,200,190)"/><rect x="195" y="195" width="10" height="10" transform="rotate(0,200,200)"/><path d="M 195 255v 10h 10a 10 10, 0, 0, 0, -10 -10" transform="rotate(-90,200,260)"/><rect x="195" y="265" width="10" height="10" transform="rotate(0,200,270)"/><rect x="195" y="275" width="10" height="10" transform="rotate(0,200,280)"/><path d="M 195 285v 10h 10a 10 10, 0, 0, 0, -10 -10" transform="rotate(90,200,290)"/><rect x="195" y="315" width="10" height="10" transform="rotate(0,200,320)"/><circle cx="200" cy="340" r="5" transform="rotate(0,200,340)"/><path d="M 195 355v 10h 5a 5 5, 0, 0, 0, 0 -10" transform="rotate(-90,200,360)"/><rect x="195" y="365" width="10" height="10" transform="rotate(0,200,370)"/><path d="M 195 375v 10h 10a 10 10, 0, 0, 0, -10 -10" transform="rotate(90,200,380)"/><path d="M 205 15v 10h 5a 5 5, 0, 0, 0, 0 -10" transform="rotate(180,210,20)"/><path d="M 205 35v 10h 10a 10 10, 0, 0, 0, -10 -10" transform="rotate(-90,210,40)"/><rect x="205" y="45" width="10" height="10" transform="rotate(0,210,50)"/><path d="M 205 55v 10h 10a 10 10, 0, 0, 0, -10 -10" transform="rotate(180,210,60)"/><path d="M 205 85v 10h 5a 5 5, 0, 0, 0, 0 -10" transform="rotate(0,210,90)"/><path d="M 205 115v 10h 10a 10 10, 0, 0, 0, -10 -10" transform="rotate(0,210,120)"/><path d="M 205 125v 10h 5a 5 5, 0, 0, 0, 0 -10" transform="rotate(90,210,130)"/><rect x="205" y="185" width="10" height="10" transform="rotate(0,210,190)"/><rect x="205" y="195" width="10" height="10" transform="rotate(0,210,200)"/><rect x="205" y="205" width="10" height="10" transform="rotate(0,210,210)"/><rect x="205" y="215" width="10" height="10" transform="rotate(0,210,220)"/><rect x="205" y="225" width="10" height="10" transform="rotate(0,210,230)"/><path d="M 205 235v 10h 10a 10 10, 0, 0, 0, -10 -10" transform="rotate(180,210,240)"/><path d="M 205 255v 10h 5a 5 5, 0, 0, 0, 0 -10" transform="rotate(0,210,260)"/><path d="M 205 295v 10h 5a 5 5, 0, 0, 0, 0 -10" transform="rotate(180,210,300)"/><path d="M 205 315v 10h 10a 10 10, 0, 0, 0, -10 -10" transform="rotate(0,210,320)"/><path d="M 205 325v 10h 5a 5 5, 0, 0, 0, 0 -10" transform="rotate(90,210,330)"/><circle cx="210" cy="350" r="5" transform="rotate(0,210,350)"/><path d="M 205 365v 10h 5a 5 5, 0, 0, 0, 0 -10" transform="rotate(0,210,370)"/><path d="M 215 15v 10h 10a 10 10, 0, 0, 0, -10 -10" transform="rotate(0,220,20)"/><rect x="215" y="25" width="10" height="10" transform="rotate(0,220,30)"/><path d="M 215 35v 10h 10a 10 10, 0, 0, 0, -10 -10" transform="rotate(90,220,40)"/><rect x="215" y="55" width="10" height="10" transform="rotate(0,220,60)"/><circle cx="220" cy="80" r="5" transform="rotate(0,220,80)"/><circle cx="220" cy="100" r="5" transform="rotate(0,220,100)"/><path d="M 215 145v 10h 5a 5 5, 0, 0, 0, 0 -10" transform="rotate(-90,220,150)"/><path d="M 215 155v 10h 10a 10 10, 0, 0, 0, -10 -10" transform="rotate(180,220,160)"/><path d="M 215 185v 10h 10a 10 10, 0, 0, 0, -10 -10" transform="rotate(0,220,190)"/><rect x="215" y="195" width="10" height="10" transform="rotate(0,220,200)"/><rect x="215" y="205" width="10" height="10" transform="rotate(0,220,210)"/><rect x="215" y="215" width="10" height="10" transform="rotate(0,220,220)"/><rect x="215" y="225" width="10" height="10" transform="rotate(0,220,230)"/><rect x="215" y="235" width="10" height="10" transform="rotate(0,220,240)"/><path d="M 215 245v 10h 5a 5 5, 0, 0, 0, 0 -10" transform="rotate(90,220,250)"/><path d="M 215 275v 10h 10a 10 10, 0, 0, 0, -10 -10" transform="rotate(-90,220,280)"/><rect x="215" y="285" width="10" height="10" transform="rotate(0,220,290)"/><rect x="215" y="295" width="10" height="10" transform="rotate(0,220,300)"/><path d="M 215 305v 10h 5a 5 5, 0, 0, 0, 0 -10" transform="rotate(90,220,310)"/><circle cx="220" cy="340" r="5" transform="rotate(0,220,340)"/><circle cx="220" cy="380" r="5" transform="rotate(0,220,380)"/><rect x="225" y="25" width="10" height="10" transform="rotate(0,230,30)"/><path d="M 225 45v 10h 10a 10 10, 0, 0, 0, -10 -10" transform="rotate(-90,230,50)"/><rect x="225" y="55" width="10" height="10" transform="rotate(0,230,60)"/><path d="M 225 105v 10h 10a 10 10, 0, 0, 0, -10 -10" transform="rotate(-90,230,110)"/><rect x="225" y="115" width="10" height="10" transform="rotate(0,230,120)"/><path d="M 225 125v 10h 5a 5 5, 0, 0, 0, 0 -10" transform="rotate(90,230,130)"/><rect x="225" y="155" width="10" height="10" transform="rotate(0,230,160)"/><path d="M 225 165v 10h 5a 5 5, 0, 0, 0, 0 -10" transform="rotate(90,230,170)"/><rect x="225" y="195" width="10" height="10" transform="rotate(0,230,200)"/><rect x="225" y="225" width="10" height="10" transform="rotate(0,230,230)"/><circle cx="230" cy="260" r="5" transform="rotate(0,230,260)"/><rect x="225" y="275" width="10" height="10" transform="rotate(0,230,280)"/><circle cx="230" cy="330" r="5" transform="rotate(0,230,330)"/><path d="M 225 345v 10h 5a 5 5, 0, 0, 0, 0 -10" transform="rotate(180,230,350)"/><circle cx="230" cy="370" r="5" transform="rotate(0,230,370)"/><path d="M 235 15v 10h 5a 5 5, 0, 0, 0, 0 -10" transform="rotate(-90,240,20)"/><rect x="235" y="25" width="10" height="10" transform="rotate(0,240,30)"/><rect x="235" y="35" width="10" height="10" transform="rotate(0,240,40)"/><rect x="235" y="45" width="10" height="10" transform="rotate(0,240,50)"/><rect x="235" y="55" width="10" height="10" transform="rotate(0,240,60)"/><rect x="235" y="65" width="10" height="10" transform="rotate(0,240,70)"/><rect x="235" y="75" width="10" height="10" transform="rotate(0,240,80)"/><rect x="235" y="85" width="10" height="10" transform="rotate(0,240,90)"/><rect x="235" y="95" width="10" height="10" transform="rotate(0,240,100)"/><rect x="235" y="105" width="10" height="10" transform="rotate(0,240,110)"/><path d="M 235 115v 10h 10a 10 10, 0, 0, 0, -10 -10" transform="rotate(90,240,120)"/><path d="M 235 135v 10h 5a 5 5, 0, 0, 0, 0 -10" transform="rotate(-90,240,140)"/><rect x="235" y="145" width="10" height="10" transform="rotate(0,240,150)"/><path d="M 235 155v 10h 10a 10 10, 0, 0, 0, -10 -10" transform="rotate(90,240,160)"/><circle cx="240" cy="180" r="5" transform="rotate(0,240,180)"/><rect x="235" y="195" width="10" height="10" transform="rotate(0,240,200)"/><rect x="235" y="205" width="10" height="10" transform="rotate(0,240,210)"/><rect x="235" y="215" width="10" height="10" transform="rotate(0,240,220)"/><rect x="235" y="225" width="10" height="10" transform="rotate(0,240,230)"/><path d="M 235 235v 10h 5a 5 5, 0, 0, 0, 0 -10" transform="rotate(90,240,240)"/><rect x="235" y="275" width="10" height="10" transform="rotate(0,240,280)"/><path d="M 235 305v 10h 5a 5 5, 0, 0, 0, 0 -10" transform="rotate(180,240,310)"/><path d="M 235 335v 10h 5a 5 5, 0, 0, 0, 0 -10" transform="rotate(-90,240,340)"/><rect x="235" y="345" width="10" height="10" transform="rotate(0,240,350)"/><path d="M 245 25v 10h 5a 5 5, 0, 0, 0, 0 -10" transform="rotate(0,250,30)"/><rect x="245" y="45" width="10" height="10" transform="rotate(0,250,50)"/><rect x="245" y="55" width="10" height="10" transform="rotate(0,250,60)"/><rect x="245" y="65" width="10" height="10" transform="rotate(0,250,70)"/><path d="M 245 105v 10h 5a 5 5, 0, 0, 0, 0 -10" transform="rotate(0,250,110)"/><circle cx="250" cy="130" r="5" transform="rotate(0,250,130)"/><path d="M 245 145v 10h 5a 5 5, 0, 0, 0, 0 -10" transform="rotate(0,250,150)"/><path d="M 245 185v 10h 5a 5 5, 0, 0, 0, 0 -10" transform="rotate(-90,250,190)"/><rect x="245" y="195" width="10" height="10" transform="rotate(0,250,200)"/><rect x="245" y="205" width="10" height="10" transform="rotate(0,250,210)"/><path d="M 245 215v 10h 10a 10 10, 0, 0, 0, -10 -10" transform="rotate(90,250,220)"/><path d="M 245 245v 10h 5a 5 5, 0, 0, 0, 0 -10" transform="rotate(180,250,250)"/><path d="M 245 265v 10h 5a 5 5, 0, 0, 0, 0 -10" transform="rotate(-90,250,270)"/><rect x="245" y="275" width="10" height="10" transform="rotate(0,250,280)"/><rect x="245" y="285" width="10" height="10" transform="rotate(0,250,290)"/><rect x="245" y="295" width="10" height="10" transform="rotate(0,250,300)"/><rect x="245" y="305" width="10" height="10" transform="rotate(0,250,310)"/><rect x="245" y="345" width="10" height="10" transform="rotate(0,250,350)"/><rect x="245" y="355" width="10" height="10" transform="rotate(0,250,360)"/><rect x="245" y="365" width="10" height="10" transform="rotate(0,250,370)"/><path d="M 245 375v 10h 5a 5 5, 0, 0, 0, 0 -10" transform="rotate(90,250,380)"/><circle cx="260" cy="20" r="5" transform="rotate(0,260,20)"/><rect x="255" y="45" width="10" height="10" transform="rotate(0,260,50)"/><rect x="255" y="65" width="10" height="10" transform="rotate(0,260,70)"/><rect x="255" y="75" width="10" height="10" transform="rotate(0,260,80)"/><path d="M 255 85v 10h 5a 5 5, 0, 0, 0, 0 -10" transform="rotate(90,260,90)"/><circle cx="260" cy="120" r="5" transform="rotate(0,260,120)"/><path d="M 255 165v 10h 10a 10 10, 0, 0, 0, -10 -10" transform="rotate(-90,260,170)"/><path d="M 255 175v 10h 5a 5 5, 0, 0, 0, 0 -10" transform="rotate(90,260,180)"/><path d="M 255 225v 10h 10a 10 10, 0, 0, 0, -10 -10" transform="rotate(-90,260,230)"/><rect x="255" y="235" width="10" height="10" transform="rotate(0,260,240)"/><rect x="255" y="245" width="10" height="10" transform="rotate(0,260,250)"/><path d="M 255 305v 10h 10a 10 10, 0, 0, 0, -10 -10" transform="rotate(0,260,310)"/><rect x="255" y="315" width="10" height="10" transform="rotate(0,260,320)"/><rect x="255" y="325" width="10" height="10" transform="rotate(0,260,330)"/><rect x="255" y="335" width="10" height="10" transform="rotate(0,260,340)"/><rect x="255" y="345" width="10" height="10" transform="rotate(0,260,350)"/><rect x="255" y="355" width="10" height="10" transform="rotate(0,260,360)"/><rect x="255" y="365" width="10" height="10" transform="rotate(0,260,370)"/><path d="M 265 25v 10h 5a 5 5, 0, 0, 0, 0 -10" transform="rotate(180,270,30)"/><rect x="265" y="45" width="10" height="10" transform="rotate(0,270,50)"/><rect x="265" y="55" width="10" height="10" transform="rotate(0,270,60)"/><rect x="265" y="65" width="10" height="10" transform="rotate(0,270,70)"/><circle cx="270" cy="110" r="5" transform="rotate(0,270,110)"/><path d="M 265 125v 10h 10a 10 10, 0, 0, 0, -10 -10" transform="rotate(-90,270,130)"/><rect x="265" y="135" width="10" height="10" transform="rotate(0,270,140)"/><rect x="265" y="145" width="10" height="10" transform="rotate(0,270,150)"/><rect x="265" y="155" width="10" height="10" transform="rotate(0,270,160)"/><rect x="265" y="165" width="10" height="10" transform="rotate(0,270,170)"/><path d="M 265 185v 10h 10a 10 10, 0, 0, 0, -10 -10" transform="rotate(-90,270,190)"/><path d="M 265 195v 10h 10a 10 10, 0, 0, 0, -10 -10" transform="rotate(180,270,200)"/><path d="M 265 215v 10h 5a 5 5, 0, 0, 0, 0 -10" transform="rotate(-90,270,220)"/><path d="M 265 225v 10h 10a 10 10, 0, 0, 0, -10 -10" transform="rotate(90,270,230)"/><path d="M 265 245v 10h 5a 5 5, 0, 0, 0, 0 -10" transform="rotate(0,270,250)"/><circle cx="270" cy="270" r="5" transform="rotate(0,270,270)"/><circle cx="270" cy="290" r="5" transform="rotate(0,270,290)"/><path d="M 265 315v 10h 5a 5 5, 0, 0, 0, 0 -10" transform="rotate(0,270,320)"/><rect x="265" y="335" width="10" height="10" transform="rotate(0,270,340)"/><rect x="265" y="365" width="10" height="10" transform="rotate(0,270,370)"/><path d="M 265 375v 10h 5a 5 5, 0, 0, 0, 0 -10" transform="rotate(90,270,380)"/><path d="M 275 25v 10h 10a 10 10, 0, 0, 0, -10 -10" transform="rotate(0,280,30)"/><rect x="275" y="35" width="10" height="10" transform="rotate(0,280,40)"/><rect x="275" y="45" width="10" height="10" transform="rotate(0,280,50)"/><rect x="275" y="65" width="10" height="10" transform="rotate(0,280,70)"/><rect x="275" y="75" width="10" height="10" transform="rotate(0,280,80)"/><rect x="275" y="85" width="10" height="10" transform="rotate(0,280,90)"/><path d="M 275 95v 10h 10a 10 10, 0, 0, 0, -10 -10" transform="rotate(180,280,100)"/><rect x="275" y="125" width="10" height="10" transform="rotate(0,280,130)"/><rect x="275" y="155" width="10" height="10" transform="rotate(0,280,160)"/><rect x="275" y="165" width="10" height="10" transform="rotate(0,280,170)"/><rect x="275" y="185" width="10" height="10" transform="rotate(0,280,190)"/><rect x="275" y="195" width="10" height="10" transform="rotate(0,280,200)"/><path d="M 275 255v 10h 5a 5 5, 0, 0, 0, 0 -10" transform="rotate(180,280,260)"/><rect x="275" y="335" width="10" height="10" transform="rotate(0,280,340)"/><path d="M 275 345v 10h 10a 10 10, 0, 0, 0, -10 -10" transform="rotate(180,280,350)"/><path d="M 275 365v 10h 5a 5 5, 0, 0, 0, 0 -10" transform="rotate(0,280,370)"/><circle cx="290" cy="20" r="5" transform="rotate(0,290,20)"/><path d="M 285 45v 10h 5a 5 5, 0, 0, 0, 0 -10" transform="rotate(0,290,50)"/><rect x="285" y="65" width="10" height="10" transform="rotate(0,290,70)"/><path d="M 285 85v 10h 10a 10 10, 0, 0, 0, -10 -10" transform="rotate(0,290,90)"/><rect x="285" y="95" width="10" height="10" transform="rotate(0,290,100)"/><rect x="285" y="105" width="10" height="10" transform="rotate(0,290,110)"/><rect x="285" y="115" width="10" height="10" transform="rotate(0,290,120)"/><rect x="285" y="125" width="10" height="10" transform="rotate(0,290,130)"/><rect x="285" y="135" width="10" height="10" transform="rotate(0,290,140)"/><rect x="285" y="145" width="10" height="10" transform="rotate(0,290,150)"/><rect x="285" y="155" width="10" height="10" transform="rotate(0,290,160)"/><rect x="285" y="165" width="10" height="10" transform="rotate(0,290,170)"/><rect x="285" y="185" width="10" height="10" transform="rotate(0,290,190)"/><rect x="285" y="195" width="10" height="10" transform="rotate(0,290,200)"/><path d="M 285 205v 10h 5a 5 5, 0, 0, 0, 0 -10" transform="rotate(90,290,210)"/><circle cx="290" cy="240" r="5" transform="rotate(0,290,240)"/><path d="M 285 255v 10h 5a 5 5, 0, 0, 0, 0 -10" transform="rotate(0,290,260)"/><path d="M 285 305v 10h 5a 5 5, 0, 0, 0, 0 -10" transform="rotate(180,290,310)"/><path d="M 285 325v 10h 10a 10 10, 0, 0, 0, -10 -10" transform="rotate(-90,290,330)"/><rect x="285" y="335" width="10" height="10" transform="rotate(0,290,340)"/><path d="M 285 345v 10h 10a 10 10, 0, 0, 0, -10 -10" transform="rotate(90,290,350)"/><circle cx="290" cy="380" r="5" transform="rotate(0,290,380)"/><path d="M 295 55v 10h 5a 5 5, 0, 0, 0, 0 -10" transform="rotate(-90,300,60)"/><rect x="295" y="65" width="10" height="10" transform="rotate(0,300,70)"/><path d="M 295 75v 10h 5a 5 5, 0, 0, 0, 0 -10" transform="rotate(90,300,80)"/><rect x="295" y="105" width="10" height="10" transform="rotate(0,300,110)"/><path d="M 295 115v 10h 10a 10 10, 0, 0, 0, -10 -10" transform="rotate(90,300,120)"/><rect x="295" y="135" width="10" height="10" transform="rotate(0,300,140)"/><rect x="295" y="145" width="10" height="10" transform="rotate(0,300,150)"/><rect x="295" y="155" width="10" height="10" transform="rotate(0,300,160)"/><rect x="295" y="165" width="10" height="10" transform="rotate(0,300,170)"/><rect x="295" y="185" width="10" height="10" transform="rotate(0,300,190)"/><circle cx="300" cy="220" r="5" transform="rotate(0,300,220)"/><path d="M 295 245v 10h 5a 5 5, 0, 0, 0, 0 -10" transform="rotate(180,300,250)"/><circle cx="300" cy="270" r="5" transform="rotate(0,300,270)"/><path d="M 295 295v 10h 10a 10 10, 0, 0, 0, -10 -10" transform="rotate(-90,300,300)"/><rect x="295" y="305" width="10" height="10" transform="rotate(0,300,310)"/><rect x="295" y="315" width="10" height="10" transform="rotate(0,300,320)"/><rect x="295" y="325" width="10" height="10" transform="rotate(0,300,330)"/><rect x="295" y="335" width="10" height="10" transform="rotate(0,300,340)"/><path d="M 295 355v 10h 5a 5 5, 0, 0, 0, 0 -10" transform="rotate(180,300,360)"/><path d="M 305 95v 10h 10a 10 10, 0, 0, 0, -10 -10" transform="rotate(-90,310,100)"/><rect x="305" y="105" width="10" height="10" transform="rotate(0,310,110)"/><path d="M 305 135v 10h 10a 10 10, 0, 0, 0, -10 -10" transform="rotate(0,310,140)"/><rect x="305" y="145" width="10" height="10" transform="rotate(0,310,150)"/><rect x="305" y="155" width="10" height="10" transform="rotate(0,310,160)"/><rect x="305" y="165" width="10" height="10" transform="rotate(0,310,170)"/><path d="M 305 185v 10h 10a 10 10, 0, 0, 0, -10 -10" transform="rotate(0,310,190)"/><path d="M 305 195v 10h 5a 5 5, 0, 0, 0, 0 -10" transform="rotate(90,310,200)"/><path d="M 305 245v 10h 10a 10 10, 0, 0, 0, -10 -10" transform="rotate(0,310,250)"/><path d="M 305 255v 10h 10a 10 10, 0, 0, 0, -10 -10" transform="rotate(180,310,260)"/><circle cx="310" cy="280" r="5" transform="rotate(0,310,280)"/><rect x="305" y="295" width="10" height="10" transform="rotate(0,310,300)"/><rect x="305" y="335" width="10" height="10" transform="rotate(0,310,340)"/><rect x="305" y="345" width="10" height="10" transform="rotate(0,310,350)"/><path d="M 305 355v 10h 10a 10 10, 0, 0, 0, -10 -10" transform="rotate(90,310,360)"/><path d="M 305 375v 10h 5a 5 5, 0, 0, 0, 0 -10" transform="rotate(180,310,380)"/><path d="M 315 95v 10h 10a 10 10, 0, 0, 0, -10 -10" transform="rotate(0,320,100)"/><rect x="315" y="105" width="10" height="10" transform="rotate(0,320,110)"/><path d="M 315 165v 10h 10a 10 10, 0, 0, 0, -10 -10" transform="rotate(0,320,170)"/><path d="M 315 175v 10h 10a 10 10, 0, 0, 0, -10 -10" transform="rotate(180,320,180)"/><path d="M 315 205v 10h 5a 5 5, 0, 0, 0, 0 -10" transform="rotate(-90,320,210)"/><path d="M 315 215v 10h 10a 10 10, 0, 0, 0, -10 -10" transform="rotate(180,320,220)"/><path d="M 315 255v 10h 5a 5 5, 0, 0, 0, 0 -10" transform="rotate(0,320,260)"/><rect x="315" y="295" width="10" height="10" transform="rotate(0,320,300)"/><circle cx="320" cy="320" r="5" transform="rotate(0,320,320)"/><rect x="315" y="335" width="10" height="10" transform="rotate(0,320,340)"/><rect x="315" y="345" width="10" height="10" transform="rotate(0,320,350)"/><path d="M 315 365v 10h 10a 10 10, 0, 0, 0, -10 -10" transform="rotate(-90,320,370)"/><path d="M 315 375v 10h 10a 10 10, 0, 0, 0, -10 -10" transform="rotate(90,320,380)"/><path d="M 325 105v 10h 10a 10 10, 0, 0, 0, -10 -10" transform="rotate(0,330,110)"/><path d="M 325 115v 10h 10a 10 10, 0, 0, 0, -10 -10" transform="rotate(180,330,120)"/><path d="M 325 135v 10h 5a 5 5, 0, 0, 0, 0 -10" transform="rotate(-90,330,140)"/><path d="M 325 145v 10h 5a 5 5, 0, 0, 0, 0 -10" transform="rotate(90,330,150)"/><rect x="325" y="175" width="10" height="10" transform="rotate(0,330,180)"/><path d="M 325 195v 10h 5a 5 5, 0, 0, 0, 0 -10" transform="rotate(180,330,200)"/><path d="M 325 215v 10h 5a 5 5, 0, 0, 0, 0 -10" transform="rotate(0,330,220)"/><path d="M 325 285v 10h 5a 5 5, 0, 0, 0, 0 -10" transform="rotate(-90,330,290)"/><rect x="325" y="295" width="10" height="10" transform="rotate(0,330,300)"/><rect x="325" y="335" width="10" height="10" transform="rotate(0,330,340)"/><rect x="325" y="345" width="10" height="10" transform="rotate(0,330,350)"/><rect x="325" y="365" width="10" height="10" transform="rotate(0,330,370)"/><rect x="335" y="115" width="10" height="10" transform="rotate(0,340,120)"/><path d="M 335 125v 10h 5a 5 5, 0, 0, 0, 0 -10" transform="rotate(90,340,130)"/><path d="M 335 165v 10h 10a 10 10, 0, 0, 0, -10 -10" transform="rotate(-90,340,170)"/><path d="M 335 175v 10h 10a 10 10, 0, 0, 0, -10 -10" transform="rotate(90,340,180)"/><path d="M 335 195v 10h 5a 5 5, 0, 0, 0, 0 -10" transform="rotate(0,340,200)"/><circle cx="340" cy="240" r="5" transform="rotate(0,340,240)"/><circle cx="340" cy="280" r="5" transform="rotate(0,340,280)"/><path d="M 335 295v 10h 10a 10 10, 0, 0, 0, -10 -10" transform="rotate(0,340,300)"/><rect x="335" y="305" width="10" height="10" transform="rotate(0,340,310)"/><rect x="335" y="315" width="10" height="10" transform="rotate(0,340,320)"/><rect x="335" y="325" width="10" height="10" transform="rotate(0,340,330)"/><rect x="335" y="335" width="10" height="10" transform="rotate(0,340,340)"/><rect x="335" y="345" width="10" height="10" transform="rotate(0,340,350)"/><path d="M 335 365v 10h 5a 5 5, 0, 0, 0, 0 -10" transform="rotate(0,340,370)"/><path d="M 345 95v 10h 5a 5 5, 0, 0, 0, 0 -10" transform="rotate(180,350,100)"/><path d="M 345 115v 10h 5a 5 5, 0, 0, 0, 0 -10" transform="rotate(0,350,120)"/><path d="M 345 155v 10h 5a 5 5, 0, 0, 0, 0 -10" transform="rotate(-90,350,160)"/><path d="M 345 165v 10h 10a 10 10, 0, 0, 0, -10 -10" transform="rotate(90,350,170)"/><circle cx="350" cy="190" r="5" transform="rotate(0,350,190)"/><circle cx="350" cy="220" r="5" transform="rotate(0,350,220)"/><rect x="345" y="315" width="10" height="10" transform="rotate(0,350,320)"/><rect x="345" y="335" width="10" height="10" transform="rotate(0,350,340)"/><rect x="345" y="345" width="10" height="10" transform="rotate(0,350,350)"/><path d="M 345 355v 10h 5a 5 5, 0, 0, 0, 0 -10" transform="rotate(90,350,360)"/><path d="M 355 95v 10h 5a 5 5, 0, 0, 0, 0 -10" transform="rotate(0,360,100)"/><path d="M 355 135v 10h 5a 5 5, 0, 0, 0, 0 -10" transform="rotate(180,360,140)"/><path d="M 355 175v 10h 5a 5 5, 0, 0, 0, 0 -10" transform="rotate(180,360,180)"/><path d="M 355 205v 10h 5a 5 5, 0, 0, 0, 0 -10" transform="rotate(180,360,210)"/><path d="M 355 235v 10h 5a 5 5, 0, 0, 0, 0 -10" transform="rotate(180,360,240)"/><path d="M 355 275v 10h 5a 5 5, 0, 0, 0, 0 -10" transform="rotate(-90,360,280)"/><path d="M 355 285v 10h 5a 5 5, 0, 0, 0, 0 -10" transform="rotate(90,360,290)"/><rect x="355" y="315" width="10" height="10" transform="rotate(0,360,320)"/><rect x="355" y="325" width="10" height="10" transform="rotate(0,360,330)"/><rect x="355" y="335" width="10" height="10" transform="rotate(0,360,340)"/><circle cx="360" cy="370" r="5" transform="rotate(0,360,370)"/><path d="M 365 105v 10h 5a 5 5, 0, 0, 0, 0 -10" transform="rotate(180,370,110)"/><rect x="365" y="135" width="10" height="10" transform="rotate(0,370,140)"/><path d="M 365 155v 10h 5a 5 5, 0, 0, 0, 0 -10" transform="rotate(180,370,160)"/><rect x="365" y="175" width="10" height="10" transform="rotate(0,370,180)"/><path d="M 365 185v 10h 5a 5 5, 0, 0, 0, 0 -10" transform="rotate(90,370,190)"/><rect x="365" y="205" width="10" height="10" transform="rotate(0,370,210)"/><rect x="365" y="215" width="10" height="10" transform="rotate(0,370,220)"/><rect x="365" y="225" width="10" height="10" transform="rotate(0,370,230)"/><rect x="365" y="235" width="10" height="10" transform="rotate(0,370,240)"/><rect x="365" y="245" width="10" height="10" transform="rotate(0,370,250)"/><rect x="365" y="255" width="10" height="10" transform="rotate(0,370,260)"/><path d="M 365 265v 10h 10a 10 10, 0, 0, 0, -10 -10" transform="rotate(180,370,270)"/><path d="M 365 305v 10h 10a 10 10, 0, 0, 0, -10 -10" transform="rotate(-90,370,310)"/><rect x="365" y="315" width="10" height="10" transform="rotate(0,370,320)"/><rect x="365" y="325" width="10" height="10" transform="rotate(0,370,330)"/><rect x="365" y="335" width="10" height="10" transform="rotate(0,370,340)"/><path d="M 365 355v 10h 5a 5 5, 0, 0, 0, 0 -10" transform="rotate(180,370,360)"/><path d="M 375 105v 10h 5a 5 5, 0, 0, 0, 0 -10" transform="rotate(0,380,110)"/><path d="M 375 135v 10h 10a 10 10, 0, 0, 0, -10 -10" transform="rotate(0,380,140)"/><rect x="375" y="145" width="10" height="10" transform="rotate(0,380,150)"/><path d="M 375 155v 10h 10a 10 10, 0, 0, 0, -10 -10" transform="rotate(90,380,160)"/><path d="M 375 175v 10h 5a 5 5, 0, 0, 0, 0 -10" transform="rotate(0,380,180)"/><path d="M 375 205v 10h 5a 5 5, 0, 0, 0, 0 -10" transform="rotate(0,380,210)"/><path d="M 375 245v 10h 5a 5 5, 0, 0, 0, 0 -10" transform="rotate(0,380,250)"/><path d="M 375 265v 10h 10a 10 10, 0, 0, 0, -10 -10" transform="rotate(0,380,270)"/><path d="M 375 275v 10h 5a 5 5, 0, 0, 0, 0 -10" transform="rotate(90,380,280)"/><path d="M 375 305v 10h 5a 5 5, 0, 0, 0, 0 -10" transform="rotate(0,380,310)"/><path d="M 375 325v 10h 10a 10 10, 0, 0, 0, -10 -10" transform="rotate(0,380,330)"/><rect x="375" y="335" width="10" height="10" transform="rotate(0,380,340)"/><rect x="375" y="345" width="10" height="10" transform="rotate(0,380,350)"/><rect x="375" y="355" width="10" height="10" transform="rotate(0,380,360)"/><rect x="375" y="365" width="10" height="10" transform="rotate(0,380,370)"/><path d="M 375 375v 10h 5a 5 5, 0, 0, 0, 0 -10" transform="rotate(90,380,380)"/></clipPath><clipPath id="clip-path-corners-square-color-0-0"><path clip-rule="evenodd" d="M 15 40v 20a 25 25, 0, 0, 0, 25 25h 20a 25 25, 0, 0, 0, 25 -25v -20a 25 25, 0, 0, 0, -25 -25h -20a 25 25, 0, 0, 0, -25 25M 40 25h 20a 15 15, 0, 0, 1, 15 15v 20a 15 15, 0, 0, 1, -15 15h -20a 15 15, 0, 0, 1, -15 -15v -20a 15 15, 0, 0, 1, 15 -15" transform="rotate(0,50,50)"/><path d="M 35 35v 10h 10a 10 10, 0, 0, 0, -10 -10" transform="rotate(-90,40,40)"/><rect x="35" y="45" width="10" height="10" transform="rotate(0,40,50)"/><path d="M 35 55v 10h 10a 10 10, 0, 0, 0, -10 -10" transform="rotate(180,40,60)"/><rect x="45" y="35" width="10" height="10" transform="rotate(0,50,40)"/><rect x="45" y="45" width="10" height="10" transform="rotate(0,50,50)"/><rect x="45" y="55" width="10" height="10" transform="rotate(0,50,60)"/><path d="M 55 35v 10h 10a 10 10, 0, 0, 0, -10 -10" transform="rotate(0,60,40)"/><rect x="55" y="45" width="10" height="10" transform="rotate(0,60,50)"/><path d="M 55 55v 10h 10a 10 10, 0, 0, 0, -10 -10" transform="rotate(90,60,60)"/></clipPath><clipPath id="clip-path-corners-square-color-1-0"><path clip-rule="evenodd" d="M 315 40v 20a 25 25, 0, 0, 0, 25 25h 20a 25 25, 0, 0, 0, 25 -25v -20a 25 25, 0, 0, 0, -25 -25h -20a 25 25, 0, 0, 0, -25 25M 340 25h 20a 15 15, 0, 0, 1, 15 15v 20a 15 15, 0, 0, 1, -15 15h -20a 15 15, 0, 0, 1, -15 -15v -20a 15 15, 0, 0, 1, 15 -15" transform="rotate(90,350,50)"/><path d="M 335 35v 10h 10a 10 10, 0, 0, 0, -10 -10" transform="rotate(-90,340,40)"/><rect x="335" y="45" width="10" height="10" transform="rotate(0,340,50)"/><path d="M 335 55v 10h 10a 10 10, 0, 0, 0, -10 -10" transform="rotate(180,340,60)"/><rect x="345" y="35" width="10" height="10" transform="rotate(0,350,40)"/><rect x="345" y="45" width="10" height="10" transform="rotate(0,350,50)"/><rect x="345" y="55" width="10" height="10" transform="rotate(0,350,60)"/><path d="M 355 35v 10h 10a 10 10, 0, 0, 0, -10 -10" transform="rotate(0,360,40)"/><rect x="355" y="45" width="10" height="10" transform="rotate(0,360,50)"/><path d="M 355 55v 10h 10a 10 10, 0, 0, 0, -10 -10" transform="rotate(90,360,60)"/></clipPath><clipPath id="clip-path-corners-square-color-0-1"><path clip-rule="evenodd" d="M 15 340v 20a 25 25, 0, 0, 0, 25 25h 20a 25 25, 0, 0, 0, 25 -25v -20a 25 25, 0, 0, 0, -25 -25h -20a 25 25, 0, 0, 0, -25 25M 40 325h 20a 15 15, 0, 0, 1, 15 15v 20a 15 15, 0, 0, 1, -15 15h -20a 15 15, 0, 0, 1, -15 -15v -20a 15 15, 0, 0, 1, 15 -15" transform="rotate(-90,50,350)"/><path d="M 35 335v 10h 10a 10 10, 0, 0, 0, -10 -10" transform="rotate(-90,40,340)"/><rect x="35" y="345" width="10" height="10" transform="rotate(0,40,350)"/><path d="M 35 355v 10h 10a 10 10, 0, 0, 0, -10 -10" transform="rotate(180,40,360)"/><rect x="45" y="335" width="10" height="10" transform="rotate(0,50,340)"/><rect x="45" y="345" width="10" height="10" transform="rotate(0,50,350)"/><rect x="45" y="355" width="10" height="10" transform="rotate(0,50,360)"/><path d="M 55 335v 10h 10a 10 10, 0, 0, 0, -10 -10" transform="rotate(0,60,340)"/><rect x="55" y="345" width="10" height="10" transform="rotate(0,60,350)"/><path d="M 55 355v 10h 10a 10 10, 0, 0, 0, -10 -10" transform="rotate(90,60,360)"/></clipPath></defs><rect x="0" y="0" height="400" width="400" clip-path="url('#clip-path-background-color')" fill="rgba(0,0,0,0)"/><rect x="15" y="15" height="370" width="370" clip-path="url('#clip-path-dot-color')" fill="#000000"/><rect x="15" y="15" height="70" width="70" clip-path="url('#clip-path-corners-square-color-0-0')" fill="#000000"/><rect x="315" y="15" height="70" width="70" clip-path="url('#clip-path-corners-square-color-1-0')" fill="#000000"/><rect x="15" y="315" height="70" width="70" clip-path="url('#clip-path-corners-square-color-0-1')" fill="#000000"/></svg>