<svg width="2603" height="1952" xmlns="http://www.w3.org/2000/svg" xmlns:xlink="http://www.w3.org/1999/xlink" xml:space="preserve" overflow="hidden"><g transform="translate(-898 -261)"><g><path d="M1291.03 1238 1355.76 1238 1870 1238 1843.9 1302.93 1342.66 1302.93 1172.32 2147.07 1758.21 2147.07 1732.11 2212 901 2212Z" fill="#FFFFFF" fill-rule="evenodd" fill-opacity="1"/><path d="M902.452 2208.37 902.452 2212 901 2212ZM3036.48 263 3499 263 3290.29 784.689 3204.98 784.689 3236.43 327.967 3010.4 327.967Z" fill="#FFFFFF" fill-rule="evenodd" fill-opacity="1"/><path d="M1996.1 1108.27 2191.53 1108.27 2165.64 1173 1970.11 1173ZM1342.89 1108.27 1926.1 1108.27 1900.11 1173 1317 1173ZM1680.91 263.001 2265.41 263.001 1952.19 1043.27 1368.88 1043.27ZM2512.6 263 2969 263 2813.04 653 2373.59 653 2217.52 1043.27 2022.19 1043.27 2335.41 263.001 2512.6 263.001Z" fill="#FFFFFF" fill-rule="evenodd" fill-opacity="1"/><path d="M2802.45 812.289C2779.28 812.289 2760.49 835.019 2760.49 863.058 2760.49 891.097 2779.28 913.827 2802.45 913.827 2825.62 913.827 2844.41 891.097 2844.41 863.058 2844.41 835.019 2825.62 812.289 2802.45 812.289ZM2960.46 802.879C2937.28 802.88 2918.5 825.609 2918.5 853.649 2918.5 881.688 2937.28 904.418 2960.46 904.418 2983.63 904.418 3002.42 881.688 3002.42 853.649 3002.42 825.61 2983.63 802.88 2960.46 802.879ZM2934.35 697.217C2952.26 696.754 2970.29 698.48 2988.24 702.575 3095.89 727.143 3169.6 829.979 3182.46 955.501L3182.89 977.658 2652.84 977.658 2654.25 967.899C2690.05 811.018 2809.01 700.46 2934.35 697.217Z" fill="#FFFFFF" fill-rule="evenodd" fill-opacity="1"/><path d="M1722.04 1584.43C1690.87 1589.23 1671.65 1632.44 1679.12 1680.94 1686.59 1729.44 1717.92 1764.86 1749.1 1760.05 1780.27 1755.25 1799.49 1712.04 1792.02 1663.55 1784.55 1615.05 1753.22 1579.63 1722.04 1584.43ZM1575.66 1572.29C1544.49 1577.09 1525.27 1620.3 1532.74 1668.8 1540.21 1717.29 1571.54 1752.71 1602.71 1747.91 1633.89 1743.11 1653.11 1699.9 1645.64 1651.41 1638.17 1602.91 1606.84 1567.49 1575.66 1572.29ZM1711.84 1425.28C1857.01 1417.83 2003.47 1533.47 2057.53 1709.41 2096.15 1835.08 2078.48 1961.76 2019.93 2051.36L1997.31 2079.13 1579.16 2079.13 1532.92 2025.7C1504.58 1986.74 1481.59 1941.39 1466.14 1891.13 1404.36 1690.06 1486.66 1486.38 1649.97 1436.2 1670.38 1429.92 1691.1 1426.35 1711.84 1425.28Z" fill="#FFFFFF" fill-rule="evenodd" fill-opacity="1"/><path d="M2672.17 1170.69 3137.1 1170.69 2721.17 2210 2254.66 2210ZM2312.55 1170.69 2602.17 1170.69 2184.66 2210 2111 2210 2425.49 1424.16 2210.73 1424.16ZM2724.27 1041 3189 1041 3163.09 1105.74 2698.26 1105.74ZM2364.65 1041 2654.27 1041 2628.26 1105.74 2338.64 1105.74Z" fill="#FFFFFF" fill-rule="evenodd" fill-opacity="1"/></g></g></svg>