<?xml version="1.0" standalone="no"?>
<svg xmlns="http://www.w3.org/2000/svg" width="400" height="400"><defs><clipPath id="clip-path-dot-color"><path d="M 15 95v 10h 5a 5 5, 0, 0, 0, 0 -10" transform="rotate(-90,20,100)"/><rect x="15" y="105" width="10" height="10" transform="rotate(0,20,110)"/><path d="M 15 115v 10h 5a 5 5, 0, 0, 0, 0 -10" transform="rotate(90,20,120)"/><path d="M 15 165v 10h 5a 5 5, 0, 0, 0, 0 -10" transform="rotate(-90,20,170)"/><rect x="15" y="175" width="10" height="10" transform="rotate(0,20,180)"/><rect x="15" y="185" width="10" height="10" transform="rotate(0,20,190)"/><rect x="15" y="195" width="10" height="10" transform="rotate(0,20,200)"/><path d="M 15 205v 10h 5a 5 5, 0, 0, 0, 0 -10" transform="rotate(90,20,210)"/><path d="M 15 255v 10h 5a 5 5, 0, 0, 0, 0 -10" transform="rotate(180,20,260)"/><circle cx="20" cy="280" r="5" transform="rotate(0,20,280)"/><path d="M 25 145v 10h 5a 5 5, 0, 0, 0, 0 -10" transform="rotate(180,30,150)"/><path d="M 25 225v 10h 5a 5 5, 0, 0, 0, 0 -10" transform="rotate(-90,30,230)"/><path d="M 25 235v 10h 5a 5 5, 0, 0, 0, 0 -10" transform="rotate(90,30,240)"/><rect x="25" y="255" width="10" height="10" transform="rotate(0,30,260)"/><path d="M 25 265v 10h 5a 5 5, 0, 0, 0, 0 -10" transform="rotate(90,30,270)"/><path d="M 25 295v 10h 5a 5 5, 0, 0, 0, 0 -10" transform="rotate(180,30,300)"/><circle cx="40" cy="100" r="5" transform="rotate(0,40,100)"/><path d="M 35 145v 10h 5a 5 5, 0, 0, 0, 0 -10" transform="rotate(0,40,150)"/><circle cx="40" cy="170" r="5" transform="rotate(0,40,170)"/><path d="M 35 185v 10h 10a 10 10, 0, 0, 0, -10 -10" transform="rotate(-90,40,190)"/><path d="M 35 195v 10h 10a 10 10, 0, 0, 0, -10 -10" transform="rotate(180,40,200)"/><circle cx="40" cy="220" r="5" transform="rotate(0,40,220)"/><path d="M 35 245v 10h 5a 5 5, 0, 0, 0, 0 -10" transform="rotate(-90,40,250)"/><path d="M 35 255v 10h 10a 10 10, 0, 0, 0, -10 -10" transform="rotate(90,40,260)"/><path d="M 35 275v 10h 5a 5 5, 0, 0, 0, 0 -10" transform="rotate(180,40,280)"/><rect x="35" y="295" width="10" height="10" transform="rotate(0,40,300)"/><path d="M 45 115v 10h 5a 5 5, 0, 0, 0, 0 -10" transform="rotate(-90,50,120)"/><path d="M 45 125v 10h 5a 5 5, 0, 0, 0, 0 -10" transform="rotate(90,50,130)"/><circle cx="50" cy="160" r="5" transform="rotate(0,50,160)"/><path d="M 45 175v 10h 5a 5 5, 0, 0, 0, 0 -10" transform="rotate(-90,50,180)"/><rect x="45" y="185" width="10" height="10" transform="rotate(0,50,190)"/><rect x="45" y="195" width="10" height="10" transform="rotate(0,50,200)"/><path d="M 45 205v 10h 5a 5 5, 0, 0, 0, 0 -10" transform="rotate(90,50,210)"/><circle cx="50" cy="230" r="5" transform="rotate(0,50,230)"/><path d="M 45 265v 10h 5a 5 5, 0, 0, 0, 0 -10" transform="rotate(-90,50,270)"/><rect x="45" y="275" width="10" height="10" transform="rotate(0,50,280)"/><rect x="45" y="285" width="10" height="10" transform="rotate(0,50,290)"/><path d="M 45 295v 10h 10a 10 10, 0, 0, 0, -10 -10" transform="rotate(90,50,300)"/><path d="M 55 95v 10h 5a 5 5, 0, 0, 0, 0 -10" transform="rotate(-90,60,100)"/><path d="M 55 105v 10h 10a 10 10, 0, 0, 0, -10 -10" transform="rotate(180,60,110)"/><path d="M 55 165v 10h 5a 5 5, 0, 0, 0, 0 -10" transform="rotate(180,60,170)"/><path d="M 65 105v 10h 5a 5 5, 0, 0, 0, 0 -10" transform="rotate(0,70,110)"/><path d="M 65 135v 10h 10a 10 10, 0, 0, 0, -10 -10" transform="rotate(-90,70,140)"/><rect x="65" y="145" width="10" height="10" transform="rotate(0,70,150)"/><rect x="65" y="155" width="10" height="10" transform="rotate(0,70,160)"/><path d="M 65 165v 10h 10a 10 10, 0, 0, 0, -10 -10" transform="rotate(90,70,170)"/><path d="M 65 185v 10h 5a 5 5, 0, 0, 0, 0 -10" transform="rotate(-90,70,190)"/><path d="M 65 195v 10h 10a 10 10, 0, 0, 0, -10 -10" transform="rotate(180,70,200)"/><path d="M 65 215v 10h 10a 10 10, 0, 0, 0, -10 -10" transform="rotate(-90,70,220)"/><path d="M 65 225v 10h 5a 5 5, 0, 0, 0, 0 -10" transform="rotate(90,70,230)"/><path d="M 65 245v 10h 5a 5 5, 0, 0, 0, 0 -10" transform="rotate(-90,70,250)"/><path d="M 65 255v 10h 10a 10 10, 0, 0, 0, -10 -10" transform="rotate(180,70,260)"/><path d="M 65 275v 10h 5a 5 5, 0, 0, 0, 0 -10" transform="rotate(180,70,280)"/><path d="M 65 295v 10h 5a 5 5, 0, 0, 0, 0 -10" transform="rotate(180,70,300)"/><path d="M 75 95v 10h 5a 5 5, 0, 0, 0, 0 -10" transform="rotate(180,80,100)"/><path d="M 75 115v 10h 5a 5 5, 0, 0, 0, 0 -10" transform="rotate(180,80,120)"/><rect x="75" y="135" width="10" height="10" transform="rotate(0,80,140)"/><path d="M 75 155v 10h 5a 5 5, 0, 0, 0, 0 -10" transform="rotate(0,80,160)"/><path d="M 75 175v 10h 5a 5 5, 0, 0, 0, 0 -10" transform="rotate(180,80,180)"/><rect x="75" y="195" width="10" height="10" transform="rotate(0,80,200)"/><rect x="75" y="215" width="10" height="10" transform="rotate(0,80,220)"/><circle cx="80" cy="240" r="5" transform="rotate(0,80,240)"/><rect x="75" y="255" width="10" height="10" transform="rotate(0,80,260)"/><rect x="75" y="275" width="10" height="10" transform="rotate(0,80,280)"/><rect x="75" y="295" width="10" height="10" transform="rotate(0,80,300)"/><path d="M 85 95v 10h 5a 5 5, 0, 0, 0, 0 -10" transform="rotate(0,90,100)"/><rect x="85" y="115" width="10" height="10" transform="rotate(0,90,120)"/><rect x="85" y="125" width="10" height="10" transform="rotate(0,90,130)"/><rect x="85" y="135" width="10" height="10" transform="rotate(0,90,140)"/><path d="M 85 145v 10h 10a 10 10, 0, 0, 0, -10 -10" transform="rotate(180,90,150)"/><path d="M 85 165v 10h 5a 5 5, 0, 0, 0, 0 -10" transform="rotate(-90,90,170)"/><rect x="85" y="175" width="10" height="10" transform="rotate(0,90,180)"/><rect x="85" y="185" width="10" height="10" transform="rotate(0,90,190)"/><path d="M 85 195v 10h 10a 10 10, 0, 0, 0, -10 -10" transform="rotate(90,90,200)"/><rect x="85" y="215" width="10" height="10" transform="rotate(0,90,220)"/><path d="M 85 245v 10h 5a 5 5, 0, 0, 0, 0 -10" transform="rotate(-90,90,250)"/><rect x="85" y="255" width="10" height="10" transform="rotate(0,90,260)"/><rect x="85" y="275" width="10" height="10" transform="rotate(0,90,280)"/><rect x="85" y="285" width="10" height="10" transform="rotate(0,90,290)"/><path d="M 85 295v 10h 10a 10 10, 0, 0, 0, -10 -10" transform="rotate(90,90,300)"/><path d="M 95 65v 10h 5a 5 5, 0, 0, 0, 0 -10" transform="rotate(-90,100,70)"/><path d="M 95 75v 10h 5a 5 5, 0, 0, 0, 0 -10" transform="rotate(90,100,80)"/><path d="M 95 105v 10h 10a 10 10, 0, 0, 0, -10 -10" transform="rotate(-90,100,110)"/><rect x="95" y="115" width="10" height="10" transform="rotate(0,100,120)"/><rect x="95" y="125" width="10" height="10" transform="rotate(0,100,130)"/><rect x="95" y="135" width="10" height="10" transform="rotate(0,100,140)"/><rect x="95" y="145" width="10" height="10" transform="rotate(0,100,150)"/><path d="M 95 155v 10h 5a 5 5, 0, 0, 0, 0 -10" transform="rotate(90,100,160)"/><rect x="95" y="175" width="10" height="10" transform="rotate(0,100,180)"/><path d="M 95 205v 10h 5a 5 5, 0, 0, 0, 0 -10" transform="rotate(-90,100,210)"/><path d="M 95 215v 10h 10a 10 10, 0, 0, 0, -10 -10" transform="rotate(90,100,220)"/><path d="M 95 255v 10h 10a 10 10, 0, 0, 0, -10 -10" transform="rotate(0,100,260)"/><rect x="95" y="265" width="10" height="10" transform="rotate(0,100,270)"/><rect x="95" y="275" width="10" height="10" transform="rotate(0,100,280)"/><circle cx="100" cy="320" r="5" transform="rotate(0,100,320)"/><path d="M 95 335v 10h 5a 5 5, 0, 0, 0, 0 -10" transform="rotate(180,100,340)"/><path d="M 95 355v 10h 5a 5 5, 0, 0, 0, 0 -10" transform="rotate(180,100,360)"/><circle cx="100" cy="380" r="5" transform="rotate(0,100,380)"/><path d="M 105 35v 10h 5a 5 5, 0, 0, 0, 0 -10" transform="rotate(-90,110,40)"/><path d="M 105 45v 10h 5a 5 5, 0, 0, 0, 0 -10" transform="rotate(90,110,50)"/><path d="M 105 105v 10h 5a 5 5, 0, 0, 0, 0 -10" transform="rotate(0,110,110)"/><path d="M 105 165v 10h 10a 10 10, 0, 0, 0, -10 -10" transform="rotate(-90,110,170)"/><rect x="105" y="175" width="10" height="10" transform="rotate(0,110,180)"/><rect x="105" y="185" width="10" height="10" transform="rotate(0,110,190)"/><path d="M 105 195v 10h 10a 10 10, 0, 0, 0, -10 -10" transform="rotate(180,110,200)"/><path d="M 105 225v 10h 5a 5 5, 0, 0, 0, 0 -10" transform="rotate(-90,110,230)"/><rect x="105" y="235" width="10" height="10" transform="rotate(0,110,240)"/><path d="M 105 245v 10h 5a 5 5, 0, 0, 0, 0 -10" transform="rotate(90,110,250)"/><rect x="105" y="265" width="10" height="10" transform="rotate(0,110,270)"/><rect x="105" y="275" width="10" height="10" transform="rotate(0,110,280)"/><path d="M 105 285v 10h 10a 10 10, 0, 0, 0, -10 -10" transform="rotate(180,110,290)"/><path d="M 105 325v 10h 10a 10 10, 0, 0, 0, -10 -10" transform="rotate(-90,110,330)"/><rect x="105" y="335" width="10" height="10" transform="rotate(0,110,340)"/><rect x="105" y="345" width="10" height="10" transform="rotate(0,110,350)"/><path d="M 105 355v 10h 10a 10 10, 0, 0, 0, -10 -10" transform="rotate(90,110,360)"/><path d="M 115 15v 10h 5a 5 5, 0, 0, 0, 0 -10" transform="rotate(180,120,20)"/><path d="M 115 55v 10h 10a 10 10, 0, 0, 0, -10 -10" transform="rotate(-90,120,60)"/><rect x="115" y="65" width="10" height="10" transform="rotate(0,120,70)"/><rect x="115" y="75" width="10" height="10" transform="rotate(0,120,80)"/><path d="M 115 85v 10h 10a 10 10, 0, 0, 0, -10 -10" transform="rotate(180,120,90)"/><path d="M 115 125v 10h 5a 5 5, 0, 0, 0, 0 -10" transform="rotate(-90,120,130)"/><rect x="115" y="135" width="10" height="10" transform="rotate(0,120,140)"/><rect x="115" y="145" width="10" height="10" transform="rotate(0,120,150)"/><rect x="115" y="155" width="10" height="10" transform="rotate(0,120,160)"/><rect x="115" y="165" width="10" height="10" transform="rotate(0,120,170)"/><path d="M 115 185v 10h 10a 10 10, 0, 0, 0, -10 -10" transform="rotate(0,120,190)"/><rect x="115" y="195" width="10" height="10" transform="rotate(0,120,200)"/><rect x="115" y="205" width="10" height="10" transform="rotate(0,120,210)"/><path d="M 115 215v 10h 10a 10 10, 0, 0, 0, -10 -10" transform="rotate(180,120,220)"/><rect x="115" y="235" width="10" height="10" transform="rotate(0,120,240)"/><path d="M 115 265v 10h 10a 10 10, 0, 0, 0, -10 -10" transform="rotate(0,120,270)"/><rect x="115" y="275" width="10" height="10" transform="rotate(0,120,280)"/><rect x="115" y="285" width="10" height="10" transform="rotate(0,120,290)"/><path d="M 115 295v 10h 10a 10 10, 0, 0, 0, -10 -10" transform="rotate(180,120,300)"/><path d="M 115 315v 10h 10a 10 10, 0, 0, 0, -10 -10" transform="rotate(-90,120,320)"/><rect x="115" y="325" width="10" height="10" transform="rotate(0,120,330)"/><rect x="115" y="335" width="10" height="10" transform="rotate(0,120,340)"/><path d="M 115 365v 10h 10a 10 10, 0, 0, 0, -10 -10" transform="rotate(-90,120,370)"/><path d="M 115 375v 10h 10a 10 10, 0, 0, 0, -10 -10" transform="rotate(180,120,380)"/><path d="M 125 15v 10h 10a 10 10, 0, 0, 0, -10 -10" transform="rotate(0,130,20)"/><path d="M 125 25v 10h 10a 10 10, 0, 0, 0, -10 -10" transform="rotate(180,130,30)"/><path d="M 125 55v 10h 10a 10 10, 0, 0, 0, -10 -10" transform="rotate(0,130,60)"/><rect x="125" y="65" width="10" height="10" transform="rotate(0,130,70)"/><rect x="125" y="85" width="10" height="10" transform="rotate(0,130,90)"/><rect x="125" y="95" width="10" height="10" transform="rotate(0,130,100)"/><path d="M 125 105v 10h 5a 5 5, 0, 0, 0, 0 -10" transform="rotate(90,130,110)"/><rect x="125" y="165" width="10" height="10" transform="rotate(0,130,170)"/><path d="M 125 195v 10h 5a 5 5, 0, 0, 0, 0 -10" transform="rotate(0,130,200)"/><rect x="125" y="215" width="10" height="10" transform="rotate(0,130,220)"/><rect x="125" y="225" width="10" height="10" transform="rotate(0,130,230)"/><rect x="125" y="235" width="10" height="10" transform="rotate(0,130,240)"/><rect x="125" y="245" width="10" height="10" transform="rotate(0,130,250)"/><path d="M 125 255v 10h 10a 10 10, 0, 0, 0, -10 -10" transform="rotate(180,130,260)"/><path d="M 125 275v 10h 10a 10 10, 0, 0, 0, -10 -10" transform="rotate(0,130,280)"/><rect x="125" y="285" width="10" height="10" transform="rotate(0,130,290)"/><rect x="125" y="295" width="10" height="10" transform="rotate(0,130,300)"/><rect x="125" y="315" width="10" height="10" transform="rotate(0,130,320)"/><rect x="125" y="325" width="10" height="10" transform="rotate(0,130,330)"/><rect x="125" y="335" width="10" height="10" transform="rotate(0,130,340)"/><path d="M 125 345v 10h 10a 10 10, 0, 0, 0, -10 -10" transform="rotate(180,130,350)"/><path d="M 125 365v 10h 10a 10 10, 0, 0, 0, -10 -10" transform="rotate(0,130,370)"/><rect x="125" y="375" width="10" height="10" transform="rotate(0,130,380)"/><path d="M 135 25v 10h 5a 5 5, 0, 0, 0, 0 -10" transform="rotate(0,140,30)"/><path d="M 135 45v 10h 5a 5 5, 0, 0, 0, 0 -10" transform="rotate(180,140,50)"/><path d="M 135 65v 10h 10a 10 10, 0, 0, 0, -10 -10" transform="rotate(0,140,70)"/><rect x="135" y="75" width="10" height="10" transform="rotate(0,140,80)"/><rect x="135" y="85" width="10" height="10" transform="rotate(0,140,90)"/><path d="M 135 95v 10h 10a 10 10, 0, 0, 0, -10 -10" transform="rotate(90,140,100)"/><path d="M 135 115v 10h 5a 5 5, 0, 0, 0, 0 -10" transform="rotate(-90,140,120)"/><rect x="135" y="125" width="10" height="10" transform="rotate(0,140,130)"/><path d="M 135 135v 10h 10a 10 10, 0, 0, 0, -10 -10" transform="rotate(180,140,140)"/><path d="M 135 165v 10h 10a 10 10, 0, 0, 0, -10 -10" transform="rotate(0,140,170)"/><rect x="135" y="175" width="10" height="10" transform="rotate(0,140,180)"/><path d="M 135 185v 10h 10a 10 10, 0, 0, 0, -10 -10" transform="rotate(180,140,190)"/><path d="M 135 205v 10h 5a 5 5, 0, 0, 0, 0 -10" transform="rotate(-90,140,210)"/><path d="M 135 215v 10h 10a 10 10, 0, 0, 0, -10 -10" transform="rotate(90,140,220)"/><rect x="135" y="235" width="10" height="10" transform="rotate(0,140,240)"/><path d="M 135 255v 10h 5a 5 5, 0, 0, 0, 0 -10" transform="rotate(0,140,260)"/><rect x="135" y="285" width="10" height="10" transform="rotate(0,140,290)"/><rect x="135" y="295" width="10" height="10" transform="rotate(0,140,300)"/><path d="M 135 315v 10h 5a 5 5, 0, 0, 0, 0 -10" transform="rotate(0,140,320)"/><path d="M 135 345v 10h 5a 5 5, 0, 0, 0, 0 -10" transform="rotate(0,140,350)"/><path d="M 135 375v 10h 5a 5 5, 0, 0, 0, 0 -10" transform="rotate(0,140,380)"/><path d="M 145 35v 10h 10a 10 10, 0, 0, 0, -10 -10" transform="rotate(-90,150,40)"/><rect x="145" y="45" width="10" height="10" transform="rotate(0,150,50)"/><path d="M 145 55v 10h 10a 10 10, 0, 0, 0, -10 -10" transform="rotate(180,150,60)"/><path d="M 145 85v 10h 5a 5 5, 0, 0, 0, 0 -10" transform="rotate(0,150,90)"/><path d="M 145 135v 10h 5a 5 5, 0, 0, 0, 0 -10" transform="rotate(0,150,140)"/><path d="M 145 155v 10h 5a 5 5, 0, 0, 0, 0 -10" transform="rotate(180,150,160)"/><rect x="145" y="185" width="10" height="10" transform="rotate(0,150,190)"/><path d="M 145 225v 10h 5a 5 5, 0, 0, 0, 0 -10" transform="rotate(-90,150,230)"/><rect x="145" y="235" width="10" height="10" transform="rotate(0,150,240)"/><path d="M 145 245v 10h 5a 5 5, 0, 0, 0, 0 -10" transform="rotate(90,150,250)"/><path d="M 145 265v 10h 5a 5 5, 0, 0, 0, 0 -10" transform="rotate(-90,150,270)"/><rect x="145" y="275" width="10" height="10" transform="rotate(0,150,280)"/><rect x="145" y="285" width="10" height="10" transform="rotate(0,150,290)"/><rect x="145" y="295" width="10" height="10" transform="rotate(0,150,300)"/><path d="M 145 305v 10h 10a 10 10, 0, 0, 0, -10 -10" transform="rotate(180,150,310)"/><circle cx="150" cy="330" r="5" transform="rotate(0,150,330)"/><circle cx="150" cy="360" r="5" transform="rotate(0,150,360)"/><path d="M 155 15v 10h 5a 5 5, 0, 0, 0, 0 -10" transform="rotate(180,160,20)"/><rect x="155" y="35" width="10" height="10" transform="rotate(0,160,40)"/><rect x="155" y="55" width="10" height="10" transform="rotate(0,160,60)"/><rect x="155" y="65" width="10" height="10" transform="rotate(0,160,70)"/><path d="M 155 75v 10h 5a 5 5, 0, 0, 0, 0 -10" transform="rotate(90,160,80)"/><path d="M 155 95v 10h 5a 5 5, 0, 0, 0, 0 -10" transform="rotate(-90,160,100)"/><rect x="155" y="105" width="10" height="10" transform="rotate(0,160,110)"/><path d="M 155 115v 10h 10a 10 10, 0, 0, 0, -10 -10" transform="rotate(180,160,120)"/><path d="M 155 145v 10h 5a 5 5, 0, 0, 0, 0 -10" transform="rotate(-90,160,150)"/><path d="M 155 155v 10h 10a 10 10, 0, 0, 0, -10 -10" transform="rotate(90,160,160)"/><rect x="155" y="185" width="10" height="10" transform="rotate(0,160,190)"/><path d="M 155 205v 10h 5a 5 5, 0, 0, 0, 0 -10" transform="rotate(-90,160,210)"/><path d="M 155 215v 10h 5a 5 5, 0, 0, 0, 0 -10" transform="rotate(90,160,220)"/><path d="M 155 235v 10h 5a 5 5, 0, 0, 0, 0 -10" transform="rotate(0,160,240)"/><path d="M 155 285v 10h 10a 10 10, 0, 0, 0, -10 -10" transform="rotate(0,160,290)"/><rect x="155" y="295" width="10" height="10" transform="rotate(0,160,300)"/><path d="M 155 305v 10h 10a 10 10, 0, 0, 0, -10 -10" transform="rotate(90,160,310)"/><path d="M 155 345v 10h 5a 5 5, 0, 0, 0, 0 -10" transform="rotate(180,160,350)"/><path d="M 155 365v 10h 10a 10 10, 0, 0, 0, -10 -10" transform="rotate(-90,160,370)"/><path d="M 155 375v 10h 10a 10 10, 0, 0, 0, -10 -10" transform="rotate(180,160,380)"/><path d="M 165 15v 10h 10a 10 10, 0, 0, 0, -10 -10" transform="rotate(0,170,20)"/><rect x="165" y="25" width="10" height="10" transform="rotate(0,170,30)"/><rect x="165" y="35" width="10" height="10" transform="rotate(0,170,40)"/><path d="M 165 55v 10h 5a 5 5, 0, 0, 0, 0 -10" transform="rotate(0,170,60)"/><path d="M 165 105v 10h 10a 10 10, 0, 0, 0, -10 -10" transform="rotate(0,170,110)"/><rect x="165" y="115" width="10" height="10" transform="rotate(0,170,120)"/><circle cx="170" cy="170" r="5" transform="rotate(0,170,170)"/><rect x="165" y="185" width="10" height="10" transform="rotate(0,170,190)"/><circle cx="170" cy="230" r="5" transform="rotate(0,170,230)"/><circle cx="170" cy="260" r="5" transform="rotate(0,170,260)"/><path d="M 165 275v 10h 5a 5 5, 0, 0, 0, 0 -10" transform="rotate(180,170,280)"/><path d="M 165 315v 10h 10a 10 10, 0, 0, 0, -10 -10" transform="rotate(-90,170,320)"/><rect x="165" y="325" width="10" height="10" transform="rotate(0,170,330)"/><rect x="165" y="335" width="10" height="10" transform="rotate(0,170,340)"/><rect x="165" y="345" width="10" height="10" transform="rotate(0,170,350)"/><rect x="165" y="355" width="10" height="10" transform="rotate(0,170,360)"/><rect x="165" y="365" width="10" height="10" transform="rotate(0,170,370)"/><rect x="165" y="375" width="10" height="10" transform="rotate(0,170,380)"/><rect x="175" y="25" width="10" height="10" transform="rotate(0,180,30)"/><rect x="175" y="35" width="10" height="10" transform="rotate(0,180,40)"/><path d="M 175 45v 10h 5a 5 5, 0, 0, 0, 0 -10" transform="rotate(90,180,50)"/><path d="M 175 65v 10h 5a 5 5, 0, 0, 0, 0 -10" transform="rotate(-90,180,70)"/><path d="M 175 75v 10h 5a 5 5, 0, 0, 0, 0 -10" transform="rotate(90,180,80)"/><path d="M 175 115v 10h 10a 10 10, 0, 0, 0, -10 -10" transform="rotate(0,180,120)"/><path d="M 175 125v 10h 10a 10 10, 0, 0, 0, -10 -10" transform="rotate(180,180,130)"/><path d="M 175 145v 10h 10a 10 10, 0, 0, 0, -10 -10" transform="rotate(-90,180,150)"/><path d="M 175 155v 10h 5a 5 5, 0, 0, 0, 0 -10" transform="rotate(90,180,160)"/><rect x="175" y="185" width="10" height="10" transform="rotate(0,180,190)"/><path d="M 175 195v 10h 10a 10 10, 0, 0, 0, -10 -10" transform="rotate(180,180,200)"/><path d="M 175 265v 10h 10a 10 10, 0, 0, 0, -10 -10" transform="rotate(-90,180,270)"/><rect x="175" y="275" width="10" height="10" transform="rotate(0,180,280)"/><path d="M 175 285v 10h 10a 10 10, 0, 0, 0, -10 -10" transform="rotate(180,180,290)"/><path d="M 175 305v 10h 5a 5 5, 0, 0, 0, 0 -10" transform="rotate(-90,180,310)"/><path d="M 175 315v 10h 10a 10 10, 0, 0, 0, -10 -10" transform="rotate(90,180,320)"/><path d="M 175 335v 10h 5a 5 5, 0, 0, 0, 0 -10" transform="rotate(0,180,340)"/><rect x="175" y="355" width="10" height="10" transform="rotate(0,180,360)"/><path d="M 175 375v 10h 5a 5 5, 0, 0, 0, 0 -10" transform="rotate(0,180,380)"/><rect x="185" y="25" width="10" height="10" transform="rotate(0,190,30)"/><path d="M 185 85v 10h 5a 5 5, 0, 0, 0, 0 -10" transform="rotate(180,190,90)"/><path d="M 185 105v 10h 5a 5 5, 0, 0, 0, 0 -10" transform="rotate(180,190,110)"/><path d="M 185 125v 10h 5a 5 5, 0, 0, 0, 0 -10" transform="rotate(0,190,130)"/><rect x="185" y="145" width="10" height="10" transform="rotate(0,190,150)"/><path d="M 185 175v 10h 5a 5 5, 0, 0, 0, 0 -10" transform="rotate(-90,190,180)"/><rect x="185" y="185" width="10" height="10" transform="rotate(0,190,190)"/><rect x="185" y="195" width="10" height="10" transform="rotate(0,190,200)"/><path d="M 185 215v 10h 5a 5 5, 0, 0, 0, 0 -10" transform="rotate(-90,190,220)"/><rect x="185" y="225" width="10" height="10" transform="rotate(0,190,230)"/><rect x="185" y="235" width="10" height="10" transform="rotate(0,190,240)"/><rect x="185" y="245" width="10" height="10" transform="rotate(0,190,250)"/><rect x="185" y="255" width="10" height="10" transform="rotate(0,190,260)"/><path d="M 185 265v 10h 10a 10 10, 0, 0, 0, -10 -10" transform="rotate(90,190,270)"/><rect x="185" y="285" width="10" height="10" transform="rotate(0,190,290)"/><path d="M 185 325v 10h 5a 5 5, 0, 0, 0, 0 -10" transform="rotate(180,190,330)"/><path d="M 185 355v 10h 5a 5 5, 0, 0, 0, 0 -10" transform="rotate(0,190,360)"/><path d="M 195 15v 10h 10a 10 10, 0, 0, 0, -10 -10" transform="rotate(-90,200,20)"/><rect x="195" y="25" width="10" height="10" transform="rotate(0,200,30)"/><path d="M 195 35v 10h 5a 5 5, 0, 0, 0, 0 -10" transform="rotate(90,200,40)"/><circle cx="200" cy="60" r="5" transform="rotate(0,200,60)"/><path d="M 195 75v 10h 5a 5 5, 0, 0, 0, 0 -10" transform="rotate(-90,200,80)"/><path d="M 195 85v 10h 10a 10 10, 0, 0, 0, -10 -10" transform="rotate(90,200,90)"/><path d="M 195 105v 10h 10a 10 10, 0, 0, 0, -10 -10" transform="rotate(0,200,110)"/><path d="M 195 115v 10h 5a 5 5, 0, 0, 0, 0 -10" transform="rotate(90,200,120)"/><rect x="195" y="145" width="10" height="10" transform="rotate(0,200,150)"/><circle cx="200" cy="170" r="5" transform="rotate(0,200,170)"/><rect x="195" y="185" width="10" height="10" transform="rotate(0,200,190)"/><rect x="195" y="195" width="10" height="10" transform="rotate(0,200,200)"/><path d="M 195 235v 10h 10a 10 10, 0, 0, 0, -10 -10" transform="rotate(0,200,240)"/><rect x="195" y="245" width="10" height="10" transform="rotate(0,200,250)"/><path d="M 195 255v 10h 10a 10 10, 0, 0, 0, -10 -10" transform="rotate(90,200,260)"/><path d="M 195 285v 10h 10a 10 10, 0, 0, 0, -10 -10" transform="rotate(0,200,290)"/><rect x="195" y="295" width="10" height="10" transform="rotate(0,200,300)"/><rect x="195" y="305" width="10" height="10" transform="rotate(0,200,310)"/><rect x="195" y="315" width="10" height="10" transform="rotate(0,200,320)"/><rect x="195" y="325" width="10" height="10" transform="rotate(0,200,330)"/><path d="M 195 375v 10h 5a 5 5, 0, 0, 0, 0 -10" transform="rotate(180,200,380)"/><rect x="205" y="15" width="10" height="10" transform="rotate(0,210,20)"/><path d="M 205 45v 10h 5a 5 5, 0, 0, 0, 0 -10" transform="rotate(180,210,50)"/><circle cx="210" cy="70" r="5" transform="rotate(0,210,70)"/><circle cx="210" cy="100" r="5" transform="rotate(0,210,100)"/><circle cx="210" cy="130" r="5" transform="rotate(0,210,130)"/><path d="M 205 145v 10h 5a 5 5, 0, 0, 0, 0 -10" transform="rotate(0,210,150)"/><rect x="205" y="185" width="10" height="10" transform="rotate(0,210,190)"/><rect x="205" y="195" width="10" height="10" transform="rotate(0,210,200)"/><path d="M 205 225v 10h 5a 5 5, 0, 0, 0, 0 -10" transform="rotate(180,210,230)"/><rect x="205" y="245" width="10" height="10" transform="rotate(0,210,250)"/><path d="M 205 275v 10h 5a 5 5, 0, 0, 0, 0 -10" transform="rotate(180,210,280)"/><path d="M 205 295v 10h 10a 10 10, 0, 0, 0, -10 -10" transform="rotate(0,210,300)"/><rect x="205" y="305" width="10" height="10" transform="rotate(0,210,310)"/><rect x="205" y="325" width="10" height="10" transform="rotate(0,210,330)"/><rect x="205" y="335" width="10" height="10" transform="rotate(0,210,340)"/><path d="M 205 345v 10h 10a 10 10, 0, 0, 0, -10 -10" transform="rotate(180,210,350)"/><path d="M 205 375v 10h 5a 5 5, 0, 0, 0, 0 -10" transform="rotate(0,210,380)"/><path d="M 215 15v 10h 5a 5 5, 0, 0, 0, 0 -10" transform="rotate(0,220,20)"/><path d="M 215 35v 10h 5a 5 5, 0, 0, 0, 0 -10" transform="rotate(-90,220,40)"/><rect x="215" y="45" width="10" height="10" transform="rotate(0,220,50)"/><path d="M 215 55v 10h 5a 5 5, 0, 0, 0, 0 -10" transform="rotate(90,220,60)"/><circle cx="220" cy="80" r="5" transform="rotate(0,220,80)"/><path d="M 215 105v 10h 5a 5 5, 0, 0, 0, 0 -10" transform="rotate(-90,220,110)"/><path d="M 215 115v 10h 10a 10 10, 0, 0, 0, -10 -10" transform="rotate(180,220,120)"/><path d="M 215 165v 10h 10a 10 10, 0, 0, 0, -10 -10" transform="rotate(-90,220,170)"/><rect x="215" y="175" width="10" height="10" transform="rotate(0,220,180)"/><rect x="215" y="185" width="10" height="10" transform="rotate(0,220,190)"/><rect x="215" y="195" width="10" height="10" transform="rotate(0,220,200)"/><path d="M 215 205v 10h 5a 5 5, 0, 0, 0, 0 -10" transform="rotate(90,220,210)"/><path d="M 215 225v 10h 10a 10 10, 0, 0, 0, -10 -10" transform="rotate(0,220,230)"/><rect x="215" y="235" width="10" height="10" transform="rotate(0,220,240)"/><rect x="215" y="245" width="10" height="10" transform="rotate(0,220,250)"/><rect x="215" y="255" width="10" height="10" transform="rotate(0,220,260)"/><rect x="215" y="265" width="10" height="10" transform="rotate(0,220,270)"/><path d="M 215 275v 10h 10a 10 10, 0, 0, 0, -10 -10" transform="rotate(90,220,280)"/><path d="M 215 305v 10h 10a 10 10, 0, 0, 0, -10 -10" transform="rotate(0,220,310)"/><rect x="215" y="315" width="10" height="10" transform="rotate(0,220,320)"/><rect x="215" y="325" width="10" height="10" transform="rotate(0,220,330)"/><rect x="215" y="335" width="10" height="10" transform="rotate(0,220,340)"/><rect x="215" y="345" width="10" height="10" transform="rotate(0,220,350)"/><rect x="215" y="355" width="10" height="10" transform="rotate(0,220,360)"/><path d="M 215 365v 10h 5a 5 5, 0, 0, 0, 0 -10" transform="rotate(90,220,370)"/><circle cx="230" cy="30" r="5" transform="rotate(0,230,30)"/><path d="M 225 85v 10h 5a 5 5, 0, 0, 0, 0 -10" transform="rotate(180,230,90)"/><rect x="225" y="115" width="10" height="10" transform="rotate(0,230,120)"/><rect x="225" y="165" width="10" height="10" transform="rotate(0,230,170)"/><rect x="225" y="175" width="10" height="10" transform="rotate(0,230,180)"/><path d="M 225 195v 10h 5a 5 5, 0, 0, 0, 0 -10" transform="rotate(0,230,200)"/><circle cx="230" cy="220" r="5" transform="rotate(0,230,220)"/><path d="M 225 245v 10h 5a 5 5, 0, 0, 0, 0 -10" transform="rotate(0,230,250)"/><rect x="225" y="265" width="10" height="10" transform="rotate(0,230,270)"/><path d="M 225 285v 10h 10a 10 10, 0, 0, 0, -10 -10" transform="rotate(-90,230,290)"/><path d="M 225 295v 10h 5a 5 5, 0, 0, 0, 0 -10" transform="rotate(90,230,300)"/><path d="M 225 325v 10h 10a 10 10, 0, 0, 0, -10 -10" transform="rotate(0,230,330)"/><path d="M 225 335v 10h 10a 10 10, 0, 0, 0, -10 -10" transform="rotate(90,230,340)"/><path d="M 225 355v 10h 5a 5 5, 0, 0, 0, 0 -10" transform="rotate(0,230,360)"/><path d="M 235 45v 10h 10a 10 10, 0, 0, 0, -10 -10" transform="rotate(-90,240,50)"/><path d="M 235 55v 10h 5a 5 5, 0, 0, 0, 0 -10" transform="rotate(90,240,60)"/><path d="M 235 75v 10h 5a 5 5, 0, 0, 0, 0 -10" transform="rotate(-90,240,80)"/><rect x="235" y="85" width="10" height="10" transform="rotate(0,240,90)"/><rect x="235" y="115" width="10" height="10" transform="rotate(0,240,120)"/><path d="M 235 125v 10h 5a 5 5, 0, 0, 0, 0 -10" transform="rotate(90,240,130)"/><path d="M 235 155v 10h 5a 5 5, 0, 0, 0, 0 -10" transform="rotate(-90,240,160)"/><rect x="235" y="165" width="10" height="10" transform="rotate(0,240,170)"/><rect x="235" y="175" width="10" height="10" transform="rotate(0,240,180)"/><path d="M 235 185v 10h 10a 10 10, 0, 0, 0, -10 -10" transform="rotate(180,240,190)"/><circle cx="240" cy="240" r="5" transform="rotate(0,240,240)"/><path d="M 235 255v 10h 5a 5 5, 0, 0, 0, 0 -10" transform="rotate(-90,240,260)"/><rect x="235" y="265" width="10" height="10" transform="rotate(0,240,270)"/><rect x="235" y="275" width="10" height="10" transform="rotate(0,240,280)"/><rect x="235" y="285" width="10" height="10" transform="rotate(0,240,290)"/><path d="M 235 365v 10h 5a 5 5, 0, 0, 0, 0 -10" transform="rotate(-90,240,370)"/><path d="M 235 375v 10h 10a 10 10, 0, 0, 0, -10 -10" transform="rotate(180,240,380)"/><circle cx="250" cy="20" r="5" transform="rotate(0,250,20)"/><path d="M 245 35v 10h 10a 10 10, 0, 0, 0, -10 -10" transform="rotate(-90,250,40)"/><path d="M 245 45v 10h 10a 10 10, 0, 0, 0, -10 -10" transform="rotate(90,250,50)"/><circle cx="250" cy="70" r="5" transform="rotate(0,250,70)"/><path d="M 245 85v 10h 5a 5 5, 0, 0, 0, 0 -10" transform="rotate(0,250,90)"/><path d="M 245 105v 10h 5a 5 5, 0, 0, 0, 0 -10" transform="rotate(-90,250,110)"/><path d="M 245 115v 10h 10a 10 10, 0, 0, 0, -10 -10" transform="rotate(90,250,120)"/><circle cx="250" cy="140" r="5" transform="rotate(0,250,140)"/><rect x="245" y="185" width="10" height="10" transform="rotate(0,250,190)"/><path d="M 245 205v 10h 5a 5 5, 0, 0, 0, 0 -10" transform="rotate(-90,250,210)"/><path d="M 245 215v 10h 10a 10 10, 0, 0, 0, -10 -10" transform="rotate(180,250,220)"/><path d="M 245 285v 10h 5a 5 5, 0, 0, 0, 0 -10" transform="rotate(0,250,290)"/><path d="M 245 305v 10h 5a 5 5, 0, 0, 0, 0 -10" transform="rotate(180,250,310)"/><path d="M 245 325v 10h 5a 5 5, 0, 0, 0, 0 -10" transform="rotate(180,250,330)"/><path d="M 245 345v 10h 5a 5 5, 0, 0, 0, 0 -10" transform="rotate(180,250,350)"/><path d="M 245 375v 10h 5a 5 5, 0, 0, 0, 0 -10" transform="rotate(0,250,380)"/><path d="M 255 25v 10h 10a 10 10, 0, 0, 0, -10 -10" transform="rotate(-90,260,30)"/><path d="M 255 35v 10h 10a 10 10, 0, 0, 0, -10 -10" transform="rotate(90,260,40)"/><path d="M 255 55v 10h 5a 5 5, 0, 0, 0, 0 -10" transform="rotate(180,260,60)"/><circle cx="260" cy="80" r="5" transform="rotate(0,260,80)"/><path d="M 255 95v 10h 5a 5 5, 0, 0, 0, 0 -10" transform="rotate(180,260,100)"/><path d="M 255 145v 10h 5a 5 5, 0, 0, 0, 0 -10" transform="rotate(180,260,150)"/><path d="M 255 175v 10h 5a 5 5, 0, 0, 0, 0 -10" transform="rotate(-90,260,180)"/><path d="M 255 185v 10h 10a 10 10, 0, 0, 0, -10 -10" transform="rotate(90,260,190)"/><path d="M 255 215v 10h 5a 5 5, 0, 0, 0, 0 -10" transform="rotate(0,260,220)"/><path d="M 255 235v 10h 10a 10 10, 0, 0, 0, -10 -10" transform="rotate(-90,260,240)"/><rect x="255" y="245" width="10" height="10" transform="rotate(0,260,250)"/><path d="M 255 255v 10h 10a 10 10, 0, 0, 0, -10 -10" transform="rotate(180,260,260)"/><path d="M 255 295v 10h 10a 10 10, 0, 0, 0, -10 -10" transform="rotate(-90,260,300)"/><rect x="255" y="305" width="10" height="10" transform="rotate(0,260,310)"/><rect x="255" y="315" width="10" height="10" transform="rotate(0,260,320)"/><rect x="255" y="325" width="10" height="10" transform="rotate(0,260,330)"/><path d="M 255 345v 10h 5a 5 5, 0, 0, 0, 0 -10" transform="rotate(0,260,350)"/><path d="M 265 15v 10h 10a 10 10, 0, 0, 0, -10 -10" transform="rotate(-90,270,20)"/><path d="M 265 25v 10h 10a 10 10, 0, 0, 0, -10 -10" transform="rotate(90,270,30)"/><path d="M 265 55v 10h 5a 5 5, 0, 0, 0, 0 -10" transform="rotate(0,270,60)"/><rect x="265" y="95" width="10" height="10" transform="rotate(0,270,100)"/><path d="M 265 105v 10h 5a 5 5, 0, 0, 0, 0 -10" transform="rotate(90,270,110)"/><path d="M 265 145v 10h 10a 10 10, 0, 0, 0, -10 -10" transform="rotate(0,270,150)"/><path d="M 265 155v 10h 5a 5 5, 0, 0, 0, 0 -10" transform="rotate(90,270,160)"/><path d="M 265 235v 10h 5a 5 5, 0, 0, 0, 0 -10" transform="rotate(0,270,240)"/><path d="M 265 255v 10h 10a 10 10, 0, 0, 0, -10 -10" transform="rotate(0,270,260)"/><rect x="265" y="265" width="10" height="10" transform="rotate(0,270,270)"/><rect x="265" y="275" width="10" height="10" transform="rotate(0,270,280)"/><rect x="265" y="285" width="10" height="10" transform="rotate(0,270,290)"/><rect x="265" y="295" width="10" height="10" transform="rotate(0,270,300)"/><rect x="265" y="325" width="10" height="10" transform="rotate(0,270,330)"/><rect x="275" y="15" width="10" height="10" transform="rotate(0,280,20)"/><path d="M 275 35v 10h 5a 5 5, 0, 0, 0, 0 -10" transform="rotate(180,280,40)"/><circle cx="280" cy="80" r="5" transform="rotate(0,280,80)"/><path d="M 275 95v 10h 5a 5 5, 0, 0, 0, 0 -10" transform="rotate(0,280,100)"/><path d="M 275 115v 10h 10a 10 10, 0, 0, 0, -10 -10" transform="rotate(-90,280,120)"/><rect x="275" y="125" width="10" height="10" transform="rotate(0,280,130)"/><path d="M 275 135v 10h 10a 10 10, 0, 0, 0, -10 -10" transform="rotate(180,280,140)"/><circle cx="280" cy="180" r="5" transform="rotate(0,280,180)"/><path d="M 275 205v 10h 5a 5 5, 0, 0, 0, 0 -10" transform="rotate(180,280,210)"/><circle cx="280" cy="230" r="5" transform="rotate(0,280,230)"/><path d="M 275 265v 10h 5a 5 5, 0, 0, 0, 0 -10" transform="rotate(0,280,270)"/><rect x="275" y="285" width="10" height="10" transform="rotate(0,280,290)"/><path d="M 275 295v 10h 10a 10 10, 0, 0, 0, -10 -10" transform="rotate(90,280,300)"/><path d="M 275 315v 10h 5a 5 5, 0, 0, 0, 0 -10" transform="rotate(-90,280,320)"/><rect x="275" y="325" width="10" height="10" transform="rotate(0,280,330)"/><rect x="275" y="335" width="10" height="10" transform="rotate(0,280,340)"/><rect x="275" y="345" width="10" height="10" transform="rotate(0,280,350)"/><rect x="275" y="355" width="10" height="10" transform="rotate(0,280,360)"/><rect x="275" y="365" width="10" height="10" transform="rotate(0,280,370)"/><path d="M 275 375v 10h 10a 10 10, 0, 0, 0, -10 -10" transform="rotate(180,280,380)"/><rect x="285" y="15" width="10" height="10" transform="rotate(0,290,20)"/><path d="M 285 35v 10h 5a 5 5, 0, 0, 0, 0 -10" transform="rotate(0,290,40)"/><circle cx="290" cy="90" r="5" transform="rotate(0,290,90)"/><path d="M 285 115v 10h 10a 10 10, 0, 0, 0, -10 -10" transform="rotate(0,290,120)"/><rect x="285" y="125" width="10" height="10" transform="rotate(0,290,130)"/><path d="M 285 135v 10h 10a 10 10, 0, 0, 0, -10 -10" transform="rotate(90,290,140)"/><circle cx="290" cy="160" r="5" transform="rotate(0,290,160)"/><path d="M 285 205v 10h 10a 10 10, 0, 0, 0, -10 -10" transform="rotate(0,290,210)"/><path d="M 285 215v 10h 10a 10 10, 0, 0, 0, -10 -10" transform="rotate(180,290,220)"/><path d="M 285 245v 10h 5a 5 5, 0, 0, 0, 0 -10" transform="rotate(180,290,250)"/><path d="M 285 275v 10h 10a 10 10, 0, 0, 0, -10 -10" transform="rotate(-90,290,280)"/><path d="M 285 285v 10h 10a 10 10, 0, 0, 0, -10 -10" transform="rotate(90,290,290)"/><path d="M 285 305v 10h 5a 5 5, 0, 0, 0, 0 -10" transform="rotate(180,290,310)"/><rect x="285" y="325" width="10" height="10" transform="rotate(0,290,330)"/><rect x="285" y="345" width="10" height="10" transform="rotate(0,290,350)"/><rect x="285" y="355" width="10" height="10" transform="rotate(0,290,360)"/><rect x="285" y="375" width="10" height="10" transform="rotate(0,290,380)"/><path d="M 295 15v 10h 5a 5 5, 0, 0, 0, 0 -10" transform="rotate(0,300,20)"/><path d="M 295 55v 10h 5a 5 5, 0, 0, 0, 0 -10" transform="rotate(-90,300,60)"/><rect x="295" y="65" width="10" height="10" transform="rotate(0,300,70)"/><path d="M 295 75v 10h 5a 5 5, 0, 0, 0, 0 -10" transform="rotate(90,300,80)"/><circle cx="300" cy="110" r="5" transform="rotate(0,300,110)"/><path d="M 295 125v 10h 5a 5 5, 0, 0, 0, 0 -10" transform="rotate(0,300,130)"/><circle cx="300" cy="150" r="5" transform="rotate(0,300,150)"/><path d="M 295 165v 10h 5a 5 5, 0, 0, 0, 0 -10" transform="rotate(180,300,170)"/><path d="M 295 185v 10h 5a 5 5, 0, 0, 0, 0 -10" transform="rotate(-90,300,190)"/><path d="M 295 195v 10h 5a 5 5, 0, 0, 0, 0 -10" transform="rotate(90,300,200)"/><path d="M 295 215v 10h 5a 5 5, 0, 0, 0, 0 -10" transform="rotate(0,300,220)"/><rect x="295" y="245" width="10" height="10" transform="rotate(0,300,250)"/><rect x="295" y="255" width="10" height="10" transform="rotate(0,300,260)"/><rect x="295" y="265" width="10" height="10" transform="rotate(0,300,270)"/><rect x="295" y="275" width="10" height="10" transform="rotate(0,300,280)"/><path d="M 295 295v 10h 10a 10 10, 0, 0, 0, -10 -10" transform="rotate(-90,300,300)"/><rect x="295" y="305" width="10" height="10" transform="rotate(0,300,310)"/><rect x="295" y="315" width="10" height="10" transform="rotate(0,300,320)"/><rect x="295" y="325" width="10" height="10" transform="rotate(0,300,330)"/><rect x="295" y="335" width="10" height="10" transform="rotate(0,300,340)"/><rect x="295" y="345" width="10" height="10" transform="rotate(0,300,350)"/><rect x="295" y="355" width="10" height="10" transform="rotate(0,300,360)"/><rect x="295" y="365" width="10" height="10" transform="rotate(0,300,370)"/><path d="M 295 375v 10h 10a 10 10, 0, 0, 0, -10 -10" transform="rotate(90,300,380)"/><circle cx="310" cy="100" r="5" transform="rotate(0,310,100)"/><path d="M 305 115v 10h 5a 5 5, 0, 0, 0, 0 -10" transform="rotate(180,310,120)"/><rect x="305" y="165" width="10" height="10" transform="rotate(0,310,170)"/><path d="M 305 235v 10h 10a 10 10, 0, 0, 0, -10 -10" transform="rotate(-90,310,240)"/><rect x="305" y="245" width="10" height="10" transform="rotate(0,310,250)"/><rect x="305" y="265" width="10" height="10" transform="rotate(0,310,270)"/><rect x="305" y="275" width="10" height="10" transform="rotate(0,310,280)"/><rect x="305" y="295" width="10" height="10" transform="rotate(0,310,300)"/><rect x="305" y="335" width="10" height="10" transform="rotate(0,310,340)"/><rect x="305" y="345" width="10" height="10" transform="rotate(0,310,350)"/><path d="M 315 115v 10h 10a 10 10, 0, 0, 0, -10 -10" transform="rotate(0,320,120)"/><path d="M 315 125v 10h 5a 5 5, 0, 0, 0, 0 -10" transform="rotate(90,320,130)"/><path d="M 315 145v 10h 10a 10 10, 0, 0, 0, -10 -10" transform="rotate(-90,320,150)"/><rect x="315" y="155" width="10" height="10" transform="rotate(0,320,160)"/><rect x="315" y="165" width="10" height="10" transform="rotate(0,320,170)"/><path d="M 315 205v 10h 5a 5 5, 0, 0, 0, 0 -10" transform="rotate(-90,320,210)"/><path d="M 315 215v 10h 10a 10 10, 0, 0, 0, -10 -10" transform="rotate(180,320,220)"/><path d="M 315 235v 10h 10a 10 10, 0, 0, 0, -10 -10" transform="rotate(0,320,240)"/><path d="M 315 245v 10h 10a 10 10, 0, 0, 0, -10 -10" transform="rotate(90,320,250)"/><path d="M 315 265v 10h 10a 10 10, 0, 0, 0, -10 -10" transform="rotate(0,320,270)"/><rect x="315" y="275" width="10" height="10" transform="rotate(0,320,280)"/><rect x="315" y="295" width="10" height="10" transform="rotate(0,320,300)"/><circle cx="320" cy="320" r="5" transform="rotate(0,320,320)"/><rect x="315" y="335" width="10" height="10" transform="rotate(0,320,340)"/><rect x="315" y="345" width="10" height="10" transform="rotate(0,320,350)"/><path d="M 315 355v 10h 5a 5 5, 0, 0, 0, 0 -10" transform="rotate(90,320,360)"/><path d="M 315 375v 10h 5a 5 5, 0, 0, 0, 0 -10" transform="rotate(180,320,380)"/><path d="M 325 95v 10h 5a 5 5, 0, 0, 0, 0 -10" transform="rotate(-90,330,100)"/><path d="M 325 105v 10h 5a 5 5, 0, 0, 0, 0 -10" transform="rotate(90,330,110)"/><path d="M 325 135v 10h 5a 5 5, 0, 0, 0, 0 -10" transform="rotate(-90,330,140)"/><rect x="325" y="145" width="10" height="10" transform="rotate(0,330,150)"/><rect x="325" y="155" width="10" height="10" transform="rotate(0,330,160)"/><rect x="325" y="165" width="10" height="10" transform="rotate(0,330,170)"/><path d="M 325 175v 10h 5a 5 5, 0, 0, 0, 0 -10" transform="rotate(90,330,180)"/><rect x="325" y="215" width="10" height="10" transform="rotate(0,330,220)"/><rect x="325" y="275" width="10" height="10" transform="rotate(0,330,280)"/><rect x="325" y="285" width="10" height="10" transform="rotate(0,330,290)"/><rect x="325" y="295" width="10" height="10" transform="rotate(0,330,300)"/><rect x="325" y="335" width="10" height="10" transform="rotate(0,330,340)"/><path d="M 325 345v 10h 10a 10 10, 0, 0, 0, -10 -10" transform="rotate(90,330,350)"/><rect x="325" y="375" width="10" height="10" transform="rotate(0,330,380)"/><circle cx="340" cy="130" r="5" transform="rotate(0,340,130)"/><rect x="335" y="145" width="10" height="10" transform="rotate(0,340,150)"/><path d="M 335 165v 10h 5a 5 5, 0, 0, 0, 0 -10" transform="rotate(0,340,170)"/><path d="M 335 195v 10h 10a 10 10, 0, 0, 0, -10 -10" transform="rotate(-90,340,200)"/><rect x="335" y="205" width="10" height="10" transform="rotate(0,340,210)"/><rect x="335" y="215" width="10" height="10" transform="rotate(0,340,220)"/><path d="M 335 225v 10h 10a 10 10, 0, 0, 0, -10 -10" transform="rotate(180,340,230)"/><path d="M 335 255v 10h 10a 10 10, 0, 0, 0, -10 -10" transform="rotate(-90,340,260)"/><rect x="335" y="265" width="10" height="10" transform="rotate(0,340,270)"/><rect x="335" y="275" width="10" height="10" transform="rotate(0,340,280)"/><rect x="335" y="285" width="10" height="10" transform="rotate(0,340,290)"/><rect x="335" y="295" width="10" height="10" transform="rotate(0,340,300)"/><rect x="335" y="305" width="10" height="10" transform="rotate(0,340,310)"/><rect x="335" y="315" width="10" height="10" transform="rotate(0,340,320)"/><rect x="335" y="325" width="10" height="10" transform="rotate(0,340,330)"/><path d="M 335 335v 10h 10a 10 10, 0, 0, 0, -10 -10" transform="rotate(90,340,340)"/><path d="M 335 355v 10h 5a 5 5, 0, 0, 0, 0 -10" transform="rotate(-90,340,360)"/><rect x="335" y="365" width="10" height="10" transform="rotate(0,340,370)"/><path d="M 335 375v 10h 10a 10 10, 0, 0, 0, -10 -10" transform="rotate(90,340,380)"/><path d="M 345 105v 10h 10a 10 10, 0, 0, 0, -10 -10" transform="rotate(-90,350,110)"/><path d="M 345 115v 10h 5a 5 5, 0, 0, 0, 0 -10" transform="rotate(90,350,120)"/><path d="M 345 135v 10h 5a 5 5, 0, 0, 0, 0 -10" transform="rotate(-90,350,140)"/><path d="M 345 145v 10h 10a 10 10, 0, 0, 0, -10 -10" transform="rotate(90,350,150)"/><path d="M 345 175v 10h 10a 10 10, 0, 0, 0, -10 -10" transform="rotate(-90,350,180)"/><rect x="345" y="185" width="10" height="10" transform="rotate(0,350,190)"/><rect x="345" y="195" width="10" height="10" transform="rotate(0,350,200)"/><rect x="345" y="205" width="10" height="10" transform="rotate(0,350,210)"/><path d="M 345 225v 10h 10a 10 10, 0, 0, 0, -10 -10" transform="rotate(0,350,230)"/><rect x="345" y="235" width="10" height="10" transform="rotate(0,350,240)"/><rect x="345" y="245" width="10" height="10" transform="rotate(0,350,250)"/><rect x="345" y="255" width="10" height="10" transform="rotate(0,350,260)"/><path d="M 345 275v 10h 10a 10 10, 0, 0, 0, -10 -10" transform="rotate(0,350,280)"/><rect x="345" y="285" width="10" height="10" transform="rotate(0,350,290)"/><path d="M 345 295v 10h 10a 10 10, 0, 0, 0, -10 -10" transform="rotate(90,350,300)"/><path d="M 345 315v 10h 5a 5 5, 0, 0, 0, 0 -10" transform="rotate(0,350,320)"/><rect x="355" y="105" width="10" height="10" transform="rotate(0,360,110)"/><circle cx="360" cy="130" r="5" transform="rotate(0,360,130)"/><path d="M 355 155v 10h 10a 10 10, 0, 0, 0, -10 -10" transform="rotate(-90,360,160)"/><rect x="355" y="165" width="10" height="10" transform="rotate(0,360,170)"/><path d="M 355 175v 10h 10a 10 10, 0, 0, 0, -10 -10" transform="rotate(90,360,180)"/><rect x="355" y="205" width="10" height="10" transform="rotate(0,360,210)"/><path d="M 355 215v 10h 10a 10 10, 0, 0, 0, -10 -10" transform="rotate(180,360,220)"/><rect x="355" y="255" width="10" height="10" transform="rotate(0,360,260)"/><path d="M 355 265v 10h 5a 5 5, 0, 0, 0, 0 -10" transform="rotate(90,360,270)"/><path d="M 355 305v 10h 5a 5 5, 0, 0, 0, 0 -10" transform="rotate(180,360,310)"/><circle cx="360" cy="330" r="5" transform="rotate(0,360,330)"/><circle cx="360" cy="350" r="5" transform="rotate(0,360,350)"/><path d="M 355 375v 10h 5a 5 5, 0, 0, 0, 0 -10" transform="rotate(180,360,380)"/><rect x="365" y="105" width="10" height="10" transform="rotate(0,370,110)"/><circle cx="370" cy="140" r="5" transform="rotate(0,370,140)"/><path d="M 365 155v 10h 5a 5 5, 0, 0, 0, 0 -10" transform="rotate(0,370,160)"/><path d="M 365 195v 10h 10a 10 10, 0, 0, 0, -10 -10" transform="rotate(-90,370,200)"/><rect x="365" y="205" width="10" height="10" transform="rotate(0,370,210)"/><rect x="365" y="215" width="10" height="10" transform="rotate(0,370,220)"/><path d="M 365 225v 10h 5a 5 5, 0, 0, 0, 0 -10" transform="rotate(90,370,230)"/><path d="M 365 255v 10h 5a 5 5, 0, 0, 0, 0 -10" transform="rotate(0,370,260)"/><path d="M 365 295v 10h 10a 10 10, 0, 0, 0, -10 -10" transform="rotate(-90,370,300)"/><path d="M 365 305v 10h 10a 10 10, 0, 0, 0, -10 -10" transform="rotate(90,370,310)"/><circle cx="370" cy="340" r="5" transform="rotate(0,370,340)"/><rect x="365" y="375" width="10" height="10" transform="rotate(0,370,380)"/><path d="M 375 105v 10h 10a 10 10, 0, 0, 0, -10 -10" transform="rotate(0,380,110)"/><path d="M 375 115v 10h 5a 5 5, 0, 0, 0, 0 -10" transform="rotate(90,380,120)"/><circle cx="380" cy="150" r="5" transform="rotate(0,380,150)"/><path d="M 375 195v 10h 5a 5 5, 0, 0, 0, 0 -10" transform="rotate(0,380,200)"/><path d="M 375 215v 10h 5a 5 5, 0, 0, 0, 0 -10" transform="rotate(0,380,220)"/><circle cx="380" cy="250" r="5" transform="rotate(0,380,250)"/><path d="M 375 295v 10h 5a 5 5, 0, 0, 0, 0 -10" transform="rotate(0,380,300)"/><circle cx="380" cy="350" r="5" transform="rotate(0,380,350)"/><path d="M 375 375v 10h 5a 5 5, 0, 0, 0, 0 -10" transform="rotate(0,380,380)"/></clipPath><clipPath id="clip-path-corners-square-color-0-0"><path clip-rule="evenodd" d="M 15 40v 20a 25 25, 0, 0, 0, 25 25h 20a 25 25, 0, 0, 0, 25 -25v -20a 25 25, 0, 0, 0, -25 -25h -20a 25 25, 0, 0, 0, -25 25M 40 25h 20a 15 15, 0, 0, 1, 15 15v 20a 15 15, 0, 0, 1, -15 15h -20a 15 15, 0, 0, 1, -15 -15v -20a 15 15, 0, 0, 1, 15 -15" transform="rotate(0,50,50)"/><path d="M 35 35v 10h 10a 10 10, 0, 0, 0, -10 -10" transform="rotate(-90,40,40)"/><rect x="35" y="45" width="10" height="10" transform="rotate(0,40,50)"/><path d="M 35 55v 10h 10a 10 10, 0, 0, 0, -10 -10" transform="rotate(180,40,60)"/><rect x="45" y="35" width="10" height="10" transform="rotate(0,50,40)"/><rect x="45" y="45" width="10" height="10" transform="rotate(0,50,50)"/><rect x="45" y="55" width="10" height="10" transform="rotate(0,50,60)"/><path d="M 55 35v 10h 10a 10 10, 0, 0, 0, -10 -10" transform="rotate(0,60,40)"/><rect x="55" y="45" width="10" height="10" transform="rotate(0,60,50)"/><path d="M 55 55v 10h 10a 10 10, 0, 0, 0, -10 -10" transform="rotate(90,60,60)"/></clipPath><clipPath id="clip-path-corners-square-color-1-0"><path clip-rule="evenodd" d="M 315 40v 20a 25 25, 0, 0, 0, 25 25h 20a 25 25, 0, 0, 0, 25 -25v -20a 25 25, 0, 0, 0, -25 -25h -20a 25 25, 0, 0, 0, -25 25M 340 25h 20a 15 15, 0, 0, 1, 15 15v 20a 15 15, 0, 0, 1, -15 15h -20a 15 15, 0, 0, 1, -15 -15v -20a 15 15, 0, 0, 1, 15 -15" transform="rotate(90,350,50)"/><path d="M 335 35v 10h 10a 10 10, 0, 0, 0, -10 -10" transform="rotate(-90,340,40)"/><rect x="335" y="45" width="10" height="10" transform="rotate(0,340,50)"/><path d="M 335 55v 10h 10a 10 10, 0, 0, 0, -10 -10" transform="rotate(180,340,60)"/><rect x="345" y="35" width="10" height="10" transform="rotate(0,350,40)"/><rect x="345" y="45" width="10" height="10" transform="rotate(0,350,50)"/><rect x="345" y="55" width="10" height="10" transform="rotate(0,350,60)"/><path d="M 355 35v 10h 10a 10 10, 0, 0, 0, -10 -10" transform="rotate(0,360,40)"/><rect x="355" y="45" width="10" height="10" transform="rotate(0,360,50)"/><path d="M 355 55v 10h 10a 10 10, 0, 0, 0, -10 -10" transform="rotate(90,360,60)"/></clipPath><clipPath id="clip-path-corners-square-color-0-1"><path clip-rule="evenodd" d="M 15 340v 20a 25 25, 0, 0, 0, 25 25h 20a 25 25, 0, 0, 0, 25 -25v -20a 25 25, 0, 0, 0, -25 -25h -20a 25 25, 0, 0, 0, -25 25M 40 325h 20a 15 15, 0, 0, 1, 15 15v 20a 15 15, 0, 0, 1, -15 15h -20a 15 15, 0, 0, 1, -15 -15v -20a 15 15, 0, 0, 1, 15 -15" transform="rotate(-90,50,350)"/><path d="M 35 335v 10h 10a 10 10, 0, 0, 0, -10 -10" transform="rotate(-90,40,340)"/><rect x="35" y="345" width="10" height="10" transform="rotate(0,40,350)"/><path d="M 35 355v 10h 10a 10 10, 0, 0, 0, -10 -10" transform="rotate(180,40,360)"/><rect x="45" y="335" width="10" height="10" transform="rotate(0,50,340)"/><rect x="45" y="345" width="10" height="10" transform="rotate(0,50,350)"/><rect x="45" y="355" width="10" height="10" transform="rotate(0,50,360)"/><path d="M 55 335v 10h 10a 10 10, 0, 0, 0, -10 -10" transform="rotate(0,60,340)"/><rect x="55" y="345" width="10" height="10" transform="rotate(0,60,350)"/><path d="M 55 355v 10h 10a 10 10, 0, 0, 0, -10 -10" transform="rotate(90,60,360)"/></clipPath></defs><rect x="0" y="0" height="400" width="400" clip-path="url('#clip-path-background-color')" fill="rgba(0,0,0,0)"/><rect x="15" y="15" height="370" width="370" clip-path="url('#clip-path-dot-color')" fill="#000000"/><rect x="15" y="15" height="70" width="70" clip-path="url('#clip-path-corners-square-color-0-0')" fill="#000000"/><rect x="315" y="15" height="70" width="70" clip-path="url('#clip-path-corners-square-color-1-0')" fill="#000000"/><rect x="15" y="315" height="70" width="70" clip-path="url('#clip-path-corners-square-color-0-1')" fill="#000000"/></svg>