<?xml version="1.0" standalone="no"?>
<svg xmlns="http://www.w3.org/2000/svg" width="400" height="400"><defs><clipPath id="clip-path-dot-color"><circle cx="20" cy="110" r="5" transform="rotate(0,20,110)"/><path d="M 15 135v 10h 5a 5 5, 0, 0, 0, 0 -10" transform="rotate(-90,20,140)"/><rect x="15" y="145" width="10" height="10" transform="rotate(0,20,150)"/><rect x="15" y="155" width="10" height="10" transform="rotate(0,20,160)"/><path d="M 15 165v 10h 5a 5 5, 0, 0, 0, 0 -10" transform="rotate(90,20,170)"/><path d="M 15 195v 10h 5a 5 5, 0, 0, 0, 0 -10" transform="rotate(180,20,200)"/><circle cx="20" cy="220" r="5" transform="rotate(0,20,220)"/><path d="M 15 235v 10h 10a 10 10, 0, 0, 0, -10 -10" transform="rotate(-90,20,240)"/><rect x="15" y="245" width="10" height="10" transform="rotate(0,20,250)"/><rect x="15" y="255" width="10" height="10" transform="rotate(0,20,260)"/><path d="M 15 265v 10h 10a 10 10, 0, 0, 0, -10 -10" transform="rotate(180,20,270)"/><path d="M 15 295v 10h 5a 5 5, 0, 0, 0, 0 -10" transform="rotate(180,20,300)"/><circle cx="30" cy="130" r="5" transform="rotate(0,30,130)"/><path d="M 25 145v 10h 10a 10 10, 0, 0, 0, -10 -10" transform="rotate(0,30,150)"/><path d="M 25 155v 10h 10a 10 10, 0, 0, 0, -10 -10" transform="rotate(90,30,160)"/><path d="M 25 185v 10h 10a 10 10, 0, 0, 0, -10 -10" transform="rotate(-90,30,190)"/><path d="M 25 195v 10h 10a 10 10, 0, 0, 0, -10 -10" transform="rotate(90,30,200)"/><path d="M 25 225v 10h 10a 10 10, 0, 0, 0, -10 -10" transform="rotate(-90,30,230)"/><rect x="25" y="235" width="10" height="10" transform="rotate(0,30,240)"/><rect x="25" y="245" width="10" height="10" transform="rotate(0,30,250)"/><rect x="25" y="265" width="10" height="10" transform="rotate(0,30,270)"/><path d="M 25 275v 10h 10a 10 10, 0, 0, 0, -10 -10" transform="rotate(180,30,280)"/><path d="M 25 295v 10h 5a 5 5, 0, 0, 0, 0 -10" transform="rotate(0,30,300)"/><path d="M 35 105v 10h 10a 10 10, 0, 0, 0, -10 -10" transform="rotate(-90,40,110)"/><path d="M 35 115v 10h 5a 5 5, 0, 0, 0, 0 -10" transform="rotate(90,40,120)"/><path d="M 35 175v 10h 5a 5 5, 0, 0, 0, 0 -10" transform="rotate(-90,40,180)"/><rect x="35" y="185" width="10" height="10" transform="rotate(0,40,190)"/><path d="M 35 205v 10h 5a 5 5, 0, 0, 0, 0 -10" transform="rotate(-90,40,210)"/><rect x="35" y="215" width="10" height="10" transform="rotate(0,40,220)"/><rect x="35" y="225" width="10" height="10" transform="rotate(0,40,230)"/><rect x="35" y="235" width="10" height="10" transform="rotate(0,40,240)"/><path d="M 35 245v 10h 10a 10 10, 0, 0, 0, -10 -10" transform="rotate(90,40,250)"/><rect x="35" y="265" width="10" height="10" transform="rotate(0,40,270)"/><rect x="35" y="275" width="10" height="10" transform="rotate(0,40,280)"/><path d="M 35 285v 10h 5a 5 5, 0, 0, 0, 0 -10" transform="rotate(90,40,290)"/><path d="M 45 105v 10h 5a 5 5, 0, 0, 0, 0 -10" transform="rotate(0,50,110)"/><circle cx="50" cy="170" r="5" transform="rotate(0,50,170)"/><rect x="45" y="185" width="10" height="10" transform="rotate(0,50,190)"/><path d="M 45 195v 10h 10a 10 10, 0, 0, 0, -10 -10" transform="rotate(180,50,200)"/><rect x="45" y="215" width="10" height="10" transform="rotate(0,50,220)"/><path d="M 45 235v 10h 5a 5 5, 0, 0, 0, 0 -10" transform="rotate(0,50,240)"/><path d="M 45 265v 10h 5a 5 5, 0, 0, 0, 0 -10" transform="rotate(0,50,270)"/><circle cx="60" cy="100" r="5" transform="rotate(0,60,100)"/><path d="M 55 125v 10h 5a 5 5, 0, 0, 0, 0 -10" transform="rotate(-90,60,130)"/><rect x="55" y="135" width="10" height="10" transform="rotate(0,60,140)"/><rect x="55" y="145" width="10" height="10" transform="rotate(0,60,150)"/><path d="M 55 155v 10h 10a 10 10, 0, 0, 0, -10 -10" transform="rotate(180,60,160)"/><rect x="55" y="185" width="10" height="10" transform="rotate(0,60,190)"/><path d="M 55 195v 10h 10a 10 10, 0, 0, 0, -10 -10" transform="rotate(90,60,200)"/><rect x="55" y="215" width="10" height="10" transform="rotate(0,60,220)"/><path d="M 55 245v 10h 10a 10 10, 0, 0, 0, -10 -10" transform="rotate(-90,60,250)"/><path d="M 55 255v 10h 5a 5 5, 0, 0, 0, 0 -10" transform="rotate(90,60,260)"/><path d="M 55 275v 10h 5a 5 5, 0, 0, 0, 0 -10" transform="rotate(-90,60,280)"/><path d="M 55 285v 10h 5a 5 5, 0, 0, 0, 0 -10" transform="rotate(90,60,290)"/><path d="M 65 105v 10h 5a 5 5, 0, 0, 0, 0 -10" transform="rotate(-90,70,110)"/><path d="M 65 115v 10h 10a 10 10, 0, 0, 0, -10 -10" transform="rotate(180,70,120)"/><rect x="65" y="155" width="10" height="10" transform="rotate(0,70,160)"/><rect x="65" y="165" width="10" height="10" transform="rotate(0,70,170)"/><rect x="65" y="175" width="10" height="10" transform="rotate(0,70,180)"/><path d="M 65 185v 10h 10a 10 10, 0, 0, 0, -10 -10" transform="rotate(90,70,190)"/><path d="M 65 205v 10h 5a 5 5, 0, 0, 0, 0 -10" transform="rotate(-90,70,210)"/><rect x="65" y="215" width="10" height="10" transform="rotate(0,70,220)"/><rect x="65" y="225" width="10" height="10" transform="rotate(0,70,230)"/><rect x="65" y="235" width="10" height="10" transform="rotate(0,70,240)"/><path d="M 65 245v 10h 10a 10 10, 0, 0, 0, -10 -10" transform="rotate(90,70,250)"/><circle cx="70" cy="270" r="5" transform="rotate(0,70,270)"/><path d="M 75 95v 10h 5a 5 5, 0, 0, 0, 0 -10" transform="rotate(180,80,100)"/><rect x="75" y="115" width="10" height="10" transform="rotate(0,80,120)"/><circle cx="80" cy="140" r="5" transform="rotate(0,80,140)"/><path d="M 75 155v 10h 5a 5 5, 0, 0, 0, 0 -10" transform="rotate(0,80,160)"/><rect x="75" y="175" width="10" height="10" transform="rotate(0,80,180)"/><circle cx="80" cy="200" r="5" transform="rotate(0,80,200)"/><path d="M 75 215v 10h 5a 5 5, 0, 0, 0, 0 -10" transform="rotate(0,80,220)"/><path d="M 75 235v 10h 5a 5 5, 0, 0, 0, 0 -10" transform="rotate(0,80,240)"/><circle cx="80" cy="260" r="5" transform="rotate(0,80,260)"/><path d="M 75 275v 10h 5a 5 5, 0, 0, 0, 0 -10" transform="rotate(180,80,280)"/><path d="M 75 295v 10h 5a 5 5, 0, 0, 0, 0 -10" transform="rotate(180,80,300)"/><rect x="85" y="95" width="10" height="10" transform="rotate(0,90,100)"/><path d="M 85 115v 10h 5a 5 5, 0, 0, 0, 0 -10" transform="rotate(0,90,120)"/><circle cx="90" cy="150" r="5" transform="rotate(0,90,150)"/><path d="M 85 165v 10h 10a 10 10, 0, 0, 0, -10 -10" transform="rotate(-90,90,170)"/><path d="M 85 175v 10h 10a 10 10, 0, 0, 0, -10 -10" transform="rotate(90,90,180)"/><rect x="85" y="275" width="10" height="10" transform="rotate(0,90,280)"/><rect x="85" y="285" width="10" height="10" transform="rotate(0,90,290)"/><path d="M 85 295v 10h 10a 10 10, 0, 0, 0, -10 -10" transform="rotate(90,90,300)"/><path d="M 95 35v 10h 10a 10 10, 0, 0, 0, -10 -10" transform="rotate(-90,100,40)"/><path d="M 95 45v 10h 5a 5 5, 0, 0, 0, 0 -10" transform="rotate(90,100,50)"/><path d="M 95 75v 10h 5a 5 5, 0, 0, 0, 0 -10" transform="rotate(-90,100,80)"/><rect x="95" y="85" width="10" height="10" transform="rotate(0,100,90)"/><rect x="95" y="95" width="10" height="10" transform="rotate(0,100,100)"/><circle cx="100" cy="130" r="5" transform="rotate(0,100,130)"/><path d="M 95 155v 10h 10a 10 10, 0, 0, 0, -10 -10" transform="rotate(-90,100,160)"/><path d="M 95 165v 10h 10a 10 10, 0, 0, 0, -10 -10" transform="rotate(90,100,170)"/><path d="M 95 195v 10h 5a 5 5, 0, 0, 0, 0 -10" transform="rotate(180,100,200)"/><path d="M 95 215v 10h 5a 5 5, 0, 0, 0, 0 -10" transform="rotate(180,100,220)"/><path d="M 95 275v 10h 10a 10 10, 0, 0, 0, -10 -10" transform="rotate(0,100,280)"/><path d="M 95 285v 10h 10a 10 10, 0, 0, 0, -10 -10" transform="rotate(90,100,290)"/><path d="M 95 305v 10h 5a 5 5, 0, 0, 0, 0 -10" transform="rotate(-90,100,310)"/><path d="M 95 315v 10h 5a 5 5, 0, 0, 0, 0 -10" transform="rotate(90,100,320)"/><circle cx="100" cy="340" r="5" transform="rotate(0,100,340)"/><rect x="105" y="35" width="10" height="10" transform="rotate(0,110,40)"/><path d="M 105 55v 10h 5a 5 5, 0, 0, 0, 0 -10" transform="rotate(180,110,60)"/><rect x="105" y="95" width="10" height="10" transform="rotate(0,110,100)"/><circle cx="110" cy="120" r="5" transform="rotate(0,110,120)"/><path d="M 105 155v 10h 5a 5 5, 0, 0, 0, 0 -10" transform="rotate(0,110,160)"/><path d="M 105 185v 10h 5a 5 5, 0, 0, 0, 0 -10" transform="rotate(-90,110,190)"/><path d="M 105 195v 10h 10a 10 10, 0, 0, 0, -10 -10" transform="rotate(90,110,200)"/><path d="M 105 215v 10h 5a 5 5, 0, 0, 0, 0 -10" transform="rotate(0,110,220)"/><path d="M 105 245v 10h 5a 5 5, 0, 0, 0, 0 -10" transform="rotate(-90,110,250)"/><rect x="105" y="255" width="10" height="10" transform="rotate(0,110,260)"/><path d="M 105 265v 10h 10a 10 10, 0, 0, 0, -10 -10" transform="rotate(180,110,270)"/><path d="M 105 295v 10h 5a 5 5, 0, 0, 0, 0 -10" transform="rotate(180,110,300)"/><path d="M 105 325v 10h 5a 5 5, 0, 0, 0, 0 -10" transform="rotate(180,110,330)"/><rect x="115" y="35" width="10" height="10" transform="rotate(0,120,40)"/><path d="M 115 55v 10h 5a 5 5, 0, 0, 0, 0 -10" transform="rotate(0,120,60)"/><path d="M 115 75v 10h 5a 5 5, 0, 0, 0, 0 -10" transform="rotate(-90,120,80)"/><rect x="115" y="85" width="10" height="10" transform="rotate(0,120,90)"/><rect x="115" y="95" width="10" height="10" transform="rotate(0,120,100)"/><path d="M 115 105v 10h 10a 10 10, 0, 0, 0, -10 -10" transform="rotate(180,120,110)"/><path d="M 115 145v 10h 5a 5 5, 0, 0, 0, 0 -10" transform="rotate(180,120,150)"/><circle cx="120" cy="180" r="5" transform="rotate(0,120,180)"/><path d="M 115 205v 10h 5a 5 5, 0, 0, 0, 0 -10" transform="rotate(180,120,210)"/><path d="M 115 225v 10h 10a 10 10, 0, 0, 0, -10 -10" transform="rotate(-90,120,230)"/><path d="M 115 235v 10h 5a 5 5, 0, 0, 0, 0 -10" transform="rotate(90,120,240)"/><rect x="115" y="265" width="10" height="10" transform="rotate(0,120,270)"/><rect x="115" y="295" width="10" height="10" transform="rotate(0,120,300)"/><path d="M 115 305v 10h 5a 5 5, 0, 0, 0, 0 -10" transform="rotate(90,120,310)"/><path d="M 115 325v 10h 5a 5 5, 0, 0, 0, 0 -10" transform="rotate(0,120,330)"/><path d="M 115 345v 10h 5a 5 5, 0, 0, 0, 0 -10" transform="rotate(180,120,350)"/><rect x="125" y="35" width="10" height="10" transform="rotate(0,130,40)"/><circle cx="130" cy="70" r="5" transform="rotate(0,130,70)"/><path d="M 125 95v 10h 10a 10 10, 0, 0, 0, -10 -10" transform="rotate(0,130,100)"/><rect x="125" y="105" width="10" height="10" transform="rotate(0,130,110)"/><path d="M 125 115v 10h 5a 5 5, 0, 0, 0, 0 -10" transform="rotate(90,130,120)"/><path d="M 125 135v 10h 10a 10 10, 0, 0, 0, -10 -10" transform="rotate(-90,130,140)"/><rect x="125" y="145" width="10" height="10" transform="rotate(0,130,150)"/><path d="M 125 205v 10h 10a 10 10, 0, 0, 0, -10 -10" transform="rotate(0,130,210)"/><rect x="125" y="215" width="10" height="10" transform="rotate(0,130,220)"/><path d="M 125 225v 10h 10a 10 10, 0, 0, 0, -10 -10" transform="rotate(90,130,230)"/><circle cx="130" cy="250" r="5" transform="rotate(0,130,250)"/><rect x="125" y="265" width="10" height="10" transform="rotate(0,130,270)"/><rect x="125" y="275" width="10" height="10" transform="rotate(0,130,280)"/><rect x="125" y="285" width="10" height="10" transform="rotate(0,130,290)"/><path d="M 125 295v 10h 10a 10 10, 0, 0, 0, -10 -10" transform="rotate(90,130,300)"/><path d="M 125 335v 10h 10a 10 10, 0, 0, 0, -10 -10" transform="rotate(-90,130,340)"/><rect x="125" y="345" width="10" height="10" transform="rotate(0,130,350)"/><rect x="125" y="355" width="10" height="10" transform="rotate(0,130,360)"/><path d="M 125 365v 10h 10a 10 10, 0, 0, 0, -10 -10" transform="rotate(180,130,370)"/><path d="M 135 35v 10h 10a 10 10, 0, 0, 0, -10 -10" transform="rotate(0,140,40)"/><rect x="135" y="45" width="10" height="10" transform="rotate(0,140,50)"/><path d="M 135 55v 10h 5a 5 5, 0, 0, 0, 0 -10" transform="rotate(90,140,60)"/><circle cx="140" cy="80" r="5" transform="rotate(0,140,80)"/><path d="M 135 135v 10h 10a 10 10, 0, 0, 0, -10 -10" transform="rotate(0,140,140)"/><rect x="135" y="145" width="10" height="10" transform="rotate(0,140,150)"/><rect x="135" y="155" width="10" height="10" transform="rotate(0,140,160)"/><path d="M 135 165v 10h 5a 5 5, 0, 0, 0, 0 -10" transform="rotate(90,140,170)"/><path d="M 135 255v 10h 10a 10 10, 0, 0, 0, -10 -10" transform="rotate(-90,140,260)"/><rect x="135" y="265" width="10" height="10" transform="rotate(0,140,270)"/><rect x="135" y="275" width="10" height="10" transform="rotate(0,140,280)"/><rect x="135" y="285" width="10" height="10" transform="rotate(0,140,290)"/><path d="M 135 305v 10h 5a 5 5, 0, 0, 0, 0 -10" transform="rotate(-90,140,310)"/><rect x="135" y="315" width="10" height="10" transform="rotate(0,140,320)"/><rect x="135" y="325" width="10" height="10" transform="rotate(0,140,330)"/><rect x="135" y="335" width="10" height="10" transform="rotate(0,140,340)"/><rect x="135" y="345" width="10" height="10" transform="rotate(0,140,350)"/><rect x="135" y="355" width="10" height="10" transform="rotate(0,140,360)"/><rect x="135" y="365" width="10" height="10" transform="rotate(0,140,370)"/><path d="M 135 375v 10h 10a 10 10, 0, 0, 0, -10 -10" transform="rotate(180,140,380)"/><circle cx="150" cy="20" r="5" transform="rotate(0,150,20)"/><rect x="145" y="45" width="10" height="10" transform="rotate(0,150,50)"/><circle cx="150" cy="70" r="5" transform="rotate(0,150,70)"/><path d="M 145 85v 10h 10a 10 10, 0, 0, 0, -10 -10" transform="rotate(-90,150,90)"/><path d="M 145 95v 10h 10a 10 10, 0, 0, 0, -10 -10" transform="rotate(180,150,100)"/><circle cx="150" cy="130" r="5" transform="rotate(0,150,130)"/><path d="M 145 185v 10h 5a 5 5, 0, 0, 0, 0 -10" transform="rotate(-90,150,190)"/><path d="M 145 195v 10h 5a 5 5, 0, 0, 0, 0 -10" transform="rotate(90,150,200)"/><path d="M 145 215v 10h 10a 10 10, 0, 0, 0, -10 -10" transform="rotate(-90,150,220)"/><rect x="145" y="225" width="10" height="10" transform="rotate(0,150,230)"/><path d="M 145 235v 10h 5a 5 5, 0, 0, 0, 0 -10" transform="rotate(90,150,240)"/><rect x="145" y="255" width="10" height="10" transform="rotate(0,150,260)"/><rect x="145" y="265" width="10" height="10" transform="rotate(0,150,270)"/><path d="M 145 285v 10h 10a 10 10, 0, 0, 0, -10 -10" transform="rotate(0,150,290)"/><path d="M 145 295v 10h 5a 5 5, 0, 0, 0, 0 -10" transform="rotate(90,150,300)"/><rect x="145" y="315" width="10" height="10" transform="rotate(0,150,320)"/><rect x="145" y="325" width="10" height="10" transform="rotate(0,150,330)"/><path d="M 145 335v 10h 10a 10 10, 0, 0, 0, -10 -10" transform="rotate(90,150,340)"/><rect x="145" y="355" width="10" height="10" transform="rotate(0,150,360)"/><rect x="145" y="365" width="10" height="10" transform="rotate(0,150,370)"/><path d="M 145 375v 10h 10a 10 10, 0, 0, 0, -10 -10" transform="rotate(90,150,380)"/><path d="M 155 25v 10h 10a 10 10, 0, 0, 0, -10 -10" transform="rotate(-90,160,30)"/><rect x="155" y="35" width="10" height="10" transform="rotate(0,160,40)"/><rect x="155" y="45" width="10" height="10" transform="rotate(0,160,50)"/><path d="M 155 55v 10h 5a 5 5, 0, 0, 0, 0 -10" transform="rotate(90,160,60)"/><path d="M 155 75v 10h 5a 5 5, 0, 0, 0, 0 -10" transform="rotate(-90,160,80)"/><rect x="155" y="85" width="10" height="10" transform="rotate(0,160,90)"/><rect x="155" y="95" width="10" height="10" transform="rotate(0,160,100)"/><path d="M 155 105v 10h 10a 10 10, 0, 0, 0, -10 -10" transform="rotate(180,160,110)"/><circle cx="160" cy="140" r="5" transform="rotate(0,160,140)"/><path d="M 155 155v 10h 10a 10 10, 0, 0, 0, -10 -10" transform="rotate(-90,160,160)"/><rect x="155" y="165" width="10" height="10" transform="rotate(0,160,170)"/><path d="M 155 175v 10h 10a 10 10, 0, 0, 0, -10 -10" transform="rotate(180,160,180)"/><rect x="155" y="215" width="10" height="10" transform="rotate(0,160,220)"/><path d="M 155 225v 10h 10a 10 10, 0, 0, 0, -10 -10" transform="rotate(90,160,230)"/><rect x="155" y="255" width="10" height="10" transform="rotate(0,160,260)"/><path d="M 155 265v 10h 10a 10 10, 0, 0, 0, -10 -10" transform="rotate(90,160,270)"/><path d="M 155 305v 10h 5a 5 5, 0, 0, 0, 0 -10" transform="rotate(-90,160,310)"/><rect x="155" y="315" width="10" height="10" transform="rotate(0,160,320)"/><rect x="155" y="325" width="10" height="10" transform="rotate(0,160,330)"/><path d="M 155 355v 10h 10a 10 10, 0, 0, 0, -10 -10" transform="rotate(0,160,360)"/><rect x="155" y="365" width="10" height="10" transform="rotate(0,160,370)"/><path d="M 165 15v 10h 10a 10 10, 0, 0, 0, -10 -10" transform="rotate(-90,170,20)"/><rect x="165" y="25" width="10" height="10" transform="rotate(0,170,30)"/><path d="M 165 45v 10h 5a 5 5, 0, 0, 0, 0 -10" transform="rotate(0,170,50)"/><circle cx="170" cy="70" r="5" transform="rotate(0,170,70)"/><rect x="165" y="95" width="10" height="10" transform="rotate(0,170,100)"/><path d="M 165 105v 10h 10a 10 10, 0, 0, 0, -10 -10" transform="rotate(90,170,110)"/><path d="M 165 155v 10h 5a 5 5, 0, 0, 0, 0 -10" transform="rotate(0,170,160)"/><path d="M 165 175v 10h 5a 5 5, 0, 0, 0, 0 -10" transform="rotate(0,170,180)"/><path d="M 165 195v 10h 5a 5 5, 0, 0, 0, 0 -10" transform="rotate(180,170,200)"/><path d="M 165 215v 10h 5a 5 5, 0, 0, 0, 0 -10" transform="rotate(0,170,220)"/><circle cx="170" cy="240" r="5" transform="rotate(0,170,240)"/><rect x="165" y="255" width="10" height="10" transform="rotate(0,170,260)"/><path d="M 165 285v 10h 5a 5 5, 0, 0, 0, 0 -10" transform="rotate(-90,170,290)"/><path d="M 165 295v 10h 5a 5 5, 0, 0, 0, 0 -10" transform="rotate(90,170,300)"/><path d="M 165 315v 10h 10a 10 10, 0, 0, 0, -10 -10" transform="rotate(0,170,320)"/><path d="M 165 325v 10h 10a 10 10, 0, 0, 0, -10 -10" transform="rotate(90,170,330)"/><rect x="165" y="365" width="10" height="10" transform="rotate(0,170,370)"/><path d="M 165 375v 10h 5a 5 5, 0, 0, 0, 0 -10" transform="rotate(90,170,380)"/><rect x="175" y="15" width="10" height="10" transform="rotate(0,180,20)"/><path d="M 175 25v 10h 10a 10 10, 0, 0, 0, -10 -10" transform="rotate(90,180,30)"/><circle cx="180" cy="80" r="5" transform="rotate(0,180,80)"/><path d="M 175 95v 10h 5a 5 5, 0, 0, 0, 0 -10" transform="rotate(0,180,100)"/><path d="M 175 115v 10h 5a 5 5, 0, 0, 0, 0 -10" transform="rotate(180,180,120)"/><circle cx="180" cy="150" r="5" transform="rotate(0,180,150)"/><circle cx="180" cy="170" r="5" transform="rotate(0,180,170)"/><path d="M 175 185v 10h 10a 10 10, 0, 0, 0, -10 -10" transform="rotate(-90,180,190)"/><rect x="175" y="195" width="10" height="10" transform="rotate(0,180,200)"/><path d="M 175 225v 10h 5a 5 5, 0, 0, 0, 0 -10" transform="rotate(180,180,230)"/><path d="M 175 245v 10h 10a 10 10, 0, 0, 0, -10 -10" transform="rotate(-90,180,250)"/><rect x="175" y="255" width="10" height="10" transform="rotate(0,180,260)"/><path d="M 175 265v 10h 5a 5 5, 0, 0, 0, 0 -10" transform="rotate(90,180,270)"/><path d="M 175 345v 10h 5a 5 5, 0, 0, 0, 0 -10" transform="rotate(-90,180,350)"/><rect x="175" y="355" width="10" height="10" transform="rotate(0,180,360)"/><path d="M 175 365v 10h 10a 10 10, 0, 0, 0, -10 -10" transform="rotate(90,180,370)"/><rect x="185" y="15" width="10" height="10" transform="rotate(0,190,20)"/><path d="M 185 55v 10h 5a 5 5, 0, 0, 0, 0 -10" transform="rotate(-90,190,60)"/><path d="M 185 65v 10h 10a 10 10, 0, 0, 0, -10 -10" transform="rotate(180,190,70)"/><circle cx="190" cy="90" r="5" transform="rotate(0,190,90)"/><path d="M 185 105v 10h 10a 10 10, 0, 0, 0, -10 -10" transform="rotate(-90,190,110)"/><rect x="185" y="115" width="10" height="10" transform="rotate(0,190,120)"/><path d="M 185 125v 10h 5a 5 5, 0, 0, 0, 0 -10" transform="rotate(90,190,130)"/><path d="M 185 185v 10h 10a 10 10, 0, 0, 0, -10 -10" transform="rotate(0,190,190)"/><rect x="185" y="195" width="10" height="10" transform="rotate(0,190,200)"/><path d="M 185 225v 10h 5a 5 5, 0, 0, 0, 0 -10" transform="rotate(0,190,230)"/><path d="M 185 245v 10h 5a 5 5, 0, 0, 0, 0 -10" transform="rotate(0,190,250)"/><path d="M 185 285v 10h 10a 10 10, 0, 0, 0, -10 -10" transform="rotate(-90,190,290)"/><path d="M 185 295v 10h 5a 5 5, 0, 0, 0, 0 -10" transform="rotate(90,190,300)"/><path d="M 185 315v 10h 5a 5 5, 0, 0, 0, 0 -10" transform="rotate(180,190,320)"/><path d="M 185 375v 10h 5a 5 5, 0, 0, 0, 0 -10" transform="rotate(180,190,380)"/><path d="M 195 15v 10h 5a 5 5, 0, 0, 0, 0 -10" transform="rotate(0,200,20)"/><path d="M 195 65v 10h 10a 10 10, 0, 0, 0, -10 -10" transform="rotate(0,200,70)"/><path d="M 195 75v 10h 5a 5 5, 0, 0, 0, 0 -10" transform="rotate(90,200,80)"/><path d="M 195 95v 10h 10a 10 10, 0, 0, 0, -10 -10" transform="rotate(-90,200,100)"/><path d="M 195 105v 10h 10a 10 10, 0, 0, 0, -10 -10" transform="rotate(90,200,110)"/><path d="M 195 135v 10h 5a 5 5, 0, 0, 0, 0 -10" transform="rotate(180,200,140)"/><path d="M 195 155v 10h 10a 10 10, 0, 0, 0, -10 -10" transform="rotate(-90,200,160)"/><rect x="195" y="165" width="10" height="10" transform="rotate(0,200,170)"/><path d="M 195 175v 10h 5a 5 5, 0, 0, 0, 0 -10" transform="rotate(90,200,180)"/><path d="M 195 195v 10h 5a 5 5, 0, 0, 0, 0 -10" transform="rotate(0,200,200)"/><circle cx="200" cy="220" r="5" transform="rotate(0,200,220)"/><path d="M 195 255v 10h 10a 10 10, 0, 0, 0, -10 -10" transform="rotate(-90,200,260)"/><rect x="195" y="265" width="10" height="10" transform="rotate(0,200,270)"/><rect x="195" y="275" width="10" height="10" transform="rotate(0,200,280)"/><path d="M 195 285v 10h 10a 10 10, 0, 0, 0, -10 -10" transform="rotate(90,200,290)"/><rect x="195" y="315" width="10" height="10" transform="rotate(0,200,320)"/><circle cx="200" cy="340" r="5" transform="rotate(0,200,340)"/><path d="M 195 355v 10h 5a 5 5, 0, 0, 0, 0 -10" transform="rotate(-90,200,360)"/><rect x="195" y="365" width="10" height="10" transform="rotate(0,200,370)"/><path d="M 195 375v 10h 10a 10 10, 0, 0, 0, -10 -10" transform="rotate(90,200,380)"/><path d="M 205 35v 10h 10a 10 10, 0, 0, 0, -10 -10" transform="rotate(-90,210,40)"/><path d="M 205 45v 10h 5a 5 5, 0, 0, 0, 0 -10" transform="rotate(90,210,50)"/><path d="M 205 95v 10h 5a 5 5, 0, 0, 0, 0 -10" transform="rotate(0,210,100)"/><rect x="205" y="135" width="10" height="10" transform="rotate(0,210,140)"/><rect x="205" y="145" width="10" height="10" transform="rotate(0,210,150)"/><path d="M 205 155v 10h 10a 10 10, 0, 0, 0, -10 -10" transform="rotate(90,210,160)"/><circle cx="210" cy="230" r="5" transform="rotate(0,210,230)"/><path d="M 205 255v 10h 5a 5 5, 0, 0, 0, 0 -10" transform="rotate(0,210,260)"/><path d="M 205 295v 10h 5a 5 5, 0, 0, 0, 0 -10" transform="rotate(180,210,300)"/><path d="M 205 315v 10h 10a 10 10, 0, 0, 0, -10 -10" transform="rotate(0,210,320)"/><path d="M 205 325v 10h 5a 5 5, 0, 0, 0, 0 -10" transform="rotate(90,210,330)"/><circle cx="210" cy="350" r="5" transform="rotate(0,210,350)"/><rect x="205" y="365" width="10" height="10" transform="rotate(0,210,370)"/><path d="M 215 25v 10h 10a 10 10, 0, 0, 0, -10 -10" transform="rotate(-90,220,30)"/><rect x="215" y="35" width="10" height="10" transform="rotate(0,220,40)"/><circle cx="220" cy="80" r="5" transform="rotate(0,220,80)"/><path d="M 215 125v 10h 5a 5 5, 0, 0, 0, 0 -10" transform="rotate(-90,220,130)"/><rect x="215" y="135" width="10" height="10" transform="rotate(0,220,140)"/><rect x="215" y="145" width="10" height="10" transform="rotate(0,220,150)"/><circle cx="220" cy="190" r="5" transform="rotate(0,220,190)"/><path d="M 215 245v 10h 5a 5 5, 0, 0, 0, 0 -10" transform="rotate(180,220,250)"/><path d="M 215 275v 10h 10a 10 10, 0, 0, 0, -10 -10" transform="rotate(-90,220,280)"/><rect x="215" y="285" width="10" height="10" transform="rotate(0,220,290)"/><rect x="215" y="295" width="10" height="10" transform="rotate(0,220,300)"/><path d="M 215 305v 10h 5a 5 5, 0, 0, 0, 0 -10" transform="rotate(90,220,310)"/><circle cx="220" cy="340" r="5" transform="rotate(0,220,340)"/><path d="M 215 365v 10h 10a 10 10, 0, 0, 0, -10 -10" transform="rotate(0,220,370)"/><path d="M 215 375v 10h 5a 5 5, 0, 0, 0, 0 -10" transform="rotate(90,220,380)"/><path d="M 225 15v 10h 10a 10 10, 0, 0, 0, -10 -10" transform="rotate(-90,230,20)"/><rect x="225" y="25" width="10" height="10" transform="rotate(0,230,30)"/><rect x="225" y="35" width="10" height="10" transform="rotate(0,230,40)"/><rect x="225" y="45" width="10" height="10" transform="rotate(0,230,50)"/><path d="M 225 55v 10h 10a 10 10, 0, 0, 0, -10 -10" transform="rotate(180,230,60)"/><path d="M 225 85v 10h 10a 10 10, 0, 0, 0, -10 -10" transform="rotate(-90,230,90)"/><rect x="225" y="95" width="10" height="10" transform="rotate(0,230,100)"/><path d="M 225 105v 10h 10a 10 10, 0, 0, 0, -10 -10" transform="rotate(180,230,110)"/><path d="M 225 145v 10h 10a 10 10, 0, 0, 0, -10 -10" transform="rotate(0,230,150)"/><path d="M 225 155v 10h 10a 10 10, 0, 0, 0, -10 -10" transform="rotate(180,230,160)"/><path d="M 225 195v 10h 5a 5 5, 0, 0, 0, 0 -10" transform="rotate(180,230,200)"/><path d="M 225 225v 10h 10a 10 10, 0, 0, 0, -10 -10" transform="rotate(-90,230,230)"/><rect x="225" y="235" width="10" height="10" transform="rotate(0,230,240)"/><rect x="225" y="245" width="10" height="10" transform="rotate(0,230,250)"/><path d="M 225 275v 10h 5a 5 5, 0, 0, 0, 0 -10" transform="rotate(0,230,280)"/><circle cx="230" cy="330" r="5" transform="rotate(0,230,330)"/><path d="M 225 345v 10h 5a 5 5, 0, 0, 0, 0 -10" transform="rotate(180,230,350)"/><path d="M 235 15v 10h 10a 10 10, 0, 0, 0, -10 -10" transform="rotate(0,240,20)"/><rect x="235" y="25" width="10" height="10" transform="rotate(0,240,30)"/><rect x="235" y="35" width="10" height="10" transform="rotate(0,240,40)"/><rect x="235" y="55" width="10" height="10" transform="rotate(0,240,60)"/><rect x="235" y="65" width="10" height="10" transform="rotate(0,240,70)"/><rect x="235" y="75" width="10" height="10" transform="rotate(0,240,80)"/><rect x="235" y="85" width="10" height="10" transform="rotate(0,240,90)"/><rect x="235" y="95" width="10" height="10" transform="rotate(0,240,100)"/><rect x="235" y="105" width="10" height="10" transform="rotate(0,240,110)"/><path d="M 235 115v 10h 5a 5 5, 0, 0, 0, 0 -10" transform="rotate(90,240,120)"/><circle cx="240" cy="140" r="5" transform="rotate(0,240,140)"/><path d="M 235 155v 10h 5a 5 5, 0, 0, 0, 0 -10" transform="rotate(0,240,160)"/><path d="M 235 175v 10h 5a 5 5, 0, 0, 0, 0 -10" transform="rotate(180,240,180)"/><rect x="235" y="195" width="10" height="10" transform="rotate(0,240,200)"/><path d="M 235 215v 10h 10a 10 10, 0, 0, 0, -10 -10" transform="rotate(-90,240,220)"/><rect x="235" y="225" width="10" height="10" transform="rotate(0,240,230)"/><rect x="235" y="235" width="10" height="10" transform="rotate(0,240,240)"/><path d="M 235 245v 10h 10a 10 10, 0, 0, 0, -10 -10" transform="rotate(90,240,250)"/><path d="M 235 305v 10h 10a 10 10, 0, 0, 0, -10 -10" transform="rotate(-90,240,310)"/><path d="M 235 315v 10h 10a 10 10, 0, 0, 0, -10 -10" transform="rotate(180,240,320)"/><path d="M 235 335v 10h 5a 5 5, 0, 0, 0, 0 -10" transform="rotate(-90,240,340)"/><rect x="235" y="345" width="10" height="10" transform="rotate(0,240,350)"/><path d="M 245 35v 10h 10a 10 10, 0, 0, 0, -10 -10" transform="rotate(0,250,40)"/><rect x="245" y="45" width="10" height="10" transform="rotate(0,250,50)"/><rect x="245" y="55" width="10" height="10" transform="rotate(0,250,60)"/><rect x="245" y="65" width="10" height="10" transform="rotate(0,250,70)"/><path d="M 245 105v 10h 5a 5 5, 0, 0, 0, 0 -10" transform="rotate(0,250,110)"/><path d="M 245 175v 10h 10a 10 10, 0, 0, 0, -10 -10" transform="rotate(0,250,180)"/><rect x="245" y="185" width="10" height="10" transform="rotate(0,250,190)"/><path d="M 245 195v 10h 10a 10 10, 0, 0, 0, -10 -10" transform="rotate(90,250,200)"/><path d="M 245 215v 10h 10a 10 10, 0, 0, 0, -10 -10" transform="rotate(0,250,220)"/><rect x="245" y="225" width="10" height="10" transform="rotate(0,250,230)"/><path d="M 245 235v 10h 10a 10 10, 0, 0, 0, -10 -10" transform="rotate(90,250,240)"/><path d="M 245 255v 10h 10a 10 10, 0, 0, 0, -10 -10" transform="rotate(-90,250,260)"/><rect x="245" y="265" width="10" height="10" transform="rotate(0,250,270)"/><rect x="245" y="275" width="10" height="10" transform="rotate(0,250,280)"/><rect x="245" y="285" width="10" height="10" transform="rotate(0,250,290)"/><rect x="245" y="295" width="10" height="10" transform="rotate(0,250,300)"/><rect x="245" y="305" width="10" height="10" transform="rotate(0,250,310)"/><rect x="245" y="315" width="10" height="10" transform="rotate(0,250,320)"/><rect x="245" y="345" width="10" height="10" transform="rotate(0,250,350)"/><path d="M 245 355v 10h 10a 10 10, 0, 0, 0, -10 -10" transform="rotate(180,250,360)"/><circle cx="260" cy="20" r="5" transform="rotate(0,260,20)"/><rect x="255" y="65" width="10" height="10" transform="rotate(0,260,70)"/><rect x="255" y="75" width="10" height="10" transform="rotate(0,260,80)"/><path d="M 255 85v 10h 5a 5 5, 0, 0, 0, 0 -10" transform="rotate(90,260,90)"/><path d="M 255 115v 10h 5a 5 5, 0, 0, 0, 0 -10" transform="rotate(-90,260,120)"/><path d="M 255 125v 10h 10a 10 10, 0, 0, 0, -10 -10" transform="rotate(180,260,130)"/><path d="M 255 145v 10h 5a 5 5, 0, 0, 0, 0 -10" transform="rotate(180,260,150)"/><circle cx="260" cy="210" r="5" transform="rotate(0,260,210)"/><path d="M 255 225v 10h 5a 5 5, 0, 0, 0, 0 -10" transform="rotate(0,260,230)"/><path d="M 255 255v 10h 10a 10 10, 0, 0, 0, -10 -10" transform="rotate(0,260,260)"/><rect x="255" y="265" width="10" height="10" transform="rotate(0,260,270)"/><path d="M 255 275v 10h 10a 10 10, 0, 0, 0, -10 -10" transform="rotate(90,260,280)"/><rect x="255" y="295" width="10" height="10" transform="rotate(0,260,300)"/><rect x="255" y="315" width="10" height="10" transform="rotate(0,260,320)"/><path d="M 255 335v 10h 10a 10 10, 0, 0, 0, -10 -10" transform="rotate(-90,260,340)"/><rect x="255" y="345" width="10" height="10" transform="rotate(0,260,350)"/><rect x="255" y="355" width="10" height="10" transform="rotate(0,260,360)"/><path d="M 255 365v 10h 10a 10 10, 0, 0, 0, -10 -10" transform="rotate(180,260,370)"/><path d="M 265 35v 10h 5a 5 5, 0, 0, 0, 0 -10" transform="rotate(180,270,40)"/><path d="M 265 55v 10h 10a 10 10, 0, 0, 0, -10 -10" transform="rotate(-90,270,60)"/><path d="M 265 65v 10h 10a 10 10, 0, 0, 0, -10 -10" transform="rotate(90,270,70)"/><path d="M 265 105v 10h 5a 5 5, 0, 0, 0, 0 -10" transform="rotate(180,270,110)"/><rect x="265" y="125" width="10" height="10" transform="rotate(0,270,130)"/><rect x="265" y="135" width="10" height="10" transform="rotate(0,270,140)"/><rect x="265" y="145" width="10" height="10" transform="rotate(0,270,150)"/><rect x="265" y="155" width="10" height="10" transform="rotate(0,270,160)"/><rect x="265" y="165" width="10" height="10" transform="rotate(0,270,170)"/><rect x="265" y="175" width="10" height="10" transform="rotate(0,270,180)"/><rect x="265" y="185" width="10" height="10" transform="rotate(0,270,190)"/><path d="M 265 195v 10h 10a 10 10, 0, 0, 0, -10 -10" transform="rotate(180,270,200)"/><circle cx="270" cy="220" r="5" transform="rotate(0,270,220)"/><circle cx="270" cy="250" r="5" transform="rotate(0,270,250)"/><path d="M 265 265v 10h 5a 5 5, 0, 0, 0, 0 -10" transform="rotate(0,270,270)"/><path d="M 265 285v 10h 5a 5 5, 0, 0, 0, 0 -10" transform="rotate(-90,270,290)"/><rect x="265" y="295" width="10" height="10" transform="rotate(0,270,300)"/><rect x="265" y="305" width="10" height="10" transform="rotate(0,270,310)"/><rect x="265" y="315" width="10" height="10" transform="rotate(0,270,320)"/><rect x="265" y="325" width="10" height="10" transform="rotate(0,270,330)"/><rect x="265" y="335" width="10" height="10" transform="rotate(0,270,340)"/><rect x="265" y="365" width="10" height="10" transform="rotate(0,270,370)"/><path d="M 265 375v 10h 5a 5 5, 0, 0, 0, 0 -10" transform="rotate(90,270,380)"/><path d="M 275 25v 10h 5a 5 5, 0, 0, 0, 0 -10" transform="rotate(-90,280,30)"/><rect x="275" y="35" width="10" height="10" transform="rotate(0,280,40)"/><rect x="275" y="45" width="10" height="10" transform="rotate(0,280,50)"/><rect x="275" y="55" width="10" height="10" transform="rotate(0,280,60)"/><path d="M 275 75v 10h 5a 5 5, 0, 0, 0, 0 -10" transform="rotate(-90,280,80)"/><rect x="275" y="85" width="10" height="10" transform="rotate(0,280,90)"/><rect x="275" y="95" width="10" height="10" transform="rotate(0,280,100)"/><rect x="275" y="105" width="10" height="10" transform="rotate(0,280,110)"/><rect x="275" y="125" width="10" height="10" transform="rotate(0,280,130)"/><path d="M 275 145v 10h 5a 5 5, 0, 0, 0, 0 -10" transform="rotate(0,280,150)"/><path d="M 275 175v 10h 5a 5 5, 0, 0, 0, 0 -10" transform="rotate(0,280,180)"/><path d="M 275 195v 10h 5a 5 5, 0, 0, 0, 0 -10" transform="rotate(0,280,200)"/><path d="M 275 235v 10h 5a 5 5, 0, 0, 0, 0 -10" transform="rotate(180,280,240)"/><circle cx="280" cy="260" r="5" transform="rotate(0,280,260)"/><rect x="275" y="335" width="10" height="10" transform="rotate(0,280,340)"/><path d="M 275 365v 10h 5a 5 5, 0, 0, 0, 0 -10" transform="rotate(0,280,370)"/><circle cx="290" cy="20" r="5" transform="rotate(0,290,20)"/><rect x="285" y="55" width="10" height="10" transform="rotate(0,290,60)"/><path d="M 285 85v 10h 10a 10 10, 0, 0, 0, -10 -10" transform="rotate(0,290,90)"/><rect x="285" y="95" width="10" height="10" transform="rotate(0,290,100)"/><path d="M 285 105v 10h 10a 10 10, 0, 0, 0, -10 -10" transform="rotate(90,290,110)"/><path d="M 285 125v 10h 10a 10 10, 0, 0, 0, -10 -10" transform="rotate(0,290,130)"/><path d="M 285 135v 10h 10a 10 10, 0, 0, 0, -10 -10" transform="rotate(180,290,140)"/><path d="M 285 165v 10h 5a 5 5, 0, 0, 0, 0 -10" transform="rotate(180,290,170)"/><circle cx="290" cy="210" r="5" transform="rotate(0,290,210)"/><path d="M 285 225v 10h 10a 10 10, 0, 0, 0, -10 -10" transform="rotate(-90,290,230)"/><rect x="285" y="235" width="10" height="10" transform="rotate(0,290,240)"/><path d="M 285 245v 10h 5a 5 5, 0, 0, 0, 0 -10" transform="rotate(90,290,250)"/><path d="M 285 295v 10h 10a 10 10, 0, 0, 0, -10 -10" transform="rotate(-90,290,300)"/><path d="M 285 305v 10h 10a 10 10, 0, 0, 0, -10 -10" transform="rotate(180,290,310)"/><path d="M 285 325v 10h 10a 10 10, 0, 0, 0, -10 -10" transform="rotate(-90,290,330)"/><rect x="285" y="335" width="10" height="10" transform="rotate(0,290,340)"/><circle cx="290" cy="380" r="5" transform="rotate(0,290,380)"/><path d="M 295 45v 10h 5a 5 5, 0, 0, 0, 0 -10" transform="rotate(-90,300,50)"/><path d="M 295 55v 10h 10a 10 10, 0, 0, 0, -10 -10" transform="rotate(90,300,60)"/><circle cx="300" cy="80" r="5" transform="rotate(0,300,80)"/><rect x="295" y="95" width="10" height="10" transform="rotate(0,300,100)"/><rect x="295" y="135" width="10" height="10" transform="rotate(0,300,140)"/><rect x="295" y="145" width="10" height="10" transform="rotate(0,300,150)"/><rect x="295" y="155" width="10" height="10" transform="rotate(0,300,160)"/><rect x="295" y="165" width="10" height="10" transform="rotate(0,300,170)"/><path d="M 295 225v 10h 5a 5 5, 0, 0, 0, 0 -10" transform="rotate(0,300,230)"/><circle cx="300" cy="270" r="5" transform="rotate(0,300,270)"/><path d="M 295 285v 10h 5a 5 5, 0, 0, 0, 0 -10" transform="rotate(-90,300,290)"/><rect x="295" y="295" width="10" height="10" transform="rotate(0,300,300)"/><rect x="295" y="305" width="10" height="10" transform="rotate(0,300,310)"/><rect x="295" y="315" width="10" height="10" transform="rotate(0,300,320)"/><rect x="295" y="325" width="10" height="10" transform="rotate(0,300,330)"/><rect x="295" y="335" width="10" height="10" transform="rotate(0,300,340)"/><path d="M 295 355v 10h 5a 5 5, 0, 0, 0, 0 -10" transform="rotate(180,300,360)"/><rect x="305" y="95" width="10" height="10" transform="rotate(0,310,100)"/><path d="M 305 135v 10h 10a 10 10, 0, 0, 0, -10 -10" transform="rotate(0,310,140)"/><path d="M 305 145v 10h 10a 10 10, 0, 0, 0, -10 -10" transform="rotate(90,310,150)"/><rect x="305" y="165" width="10" height="10" transform="rotate(0,310,170)"/><rect x="305" y="175" width="10" height="10" transform="rotate(0,310,180)"/><rect x="305" y="185" width="10" height="10" transform="rotate(0,310,190)"/><rect x="305" y="195" width="10" height="10" transform="rotate(0,310,200)"/><path d="M 305 205v 10h 5a 5 5, 0, 0, 0, 0 -10" transform="rotate(90,310,210)"/><path d="M 305 245v 10h 5a 5 5, 0, 0, 0, 0 -10" transform="rotate(-90,310,250)"/><path d="M 305 255v 10h 5a 5 5, 0, 0, 0, 0 -10" transform="rotate(90,310,260)"/><circle cx="310" cy="280" r="5" transform="rotate(0,310,280)"/><rect x="305" y="295" width="10" height="10" transform="rotate(0,310,300)"/><rect x="305" y="335" width="10" height="10" transform="rotate(0,310,340)"/><rect x="305" y="345" width="10" height="10" transform="rotate(0,310,350)"/><path d="M 305 355v 10h 10a 10 10, 0, 0, 0, -10 -10" transform="rotate(90,310,360)"/><path d="M 305 375v 10h 5a 5 5, 0, 0, 0, 0 -10" transform="rotate(180,310,380)"/><path d="M 315 95v 10h 5a 5 5, 0, 0, 0, 0 -10" transform="rotate(0,320,100)"/><rect x="315" y="165" width="10" height="10" transform="rotate(0,320,170)"/><rect x="315" y="175" width="10" height="10" transform="rotate(0,320,180)"/><path d="M 315 185v 10h 10a 10 10, 0, 0, 0, -10 -10" transform="rotate(90,320,190)"/><rect x="315" y="295" width="10" height="10" transform="rotate(0,320,300)"/><circle cx="320" cy="320" r="5" transform="rotate(0,320,320)"/><rect x="315" y="335" width="10" height="10" transform="rotate(0,320,340)"/><rect x="315" y="345" width="10" height="10" transform="rotate(0,320,350)"/><path d="M 315 365v 10h 10a 10 10, 0, 0, 0, -10 -10" transform="rotate(-90,320,370)"/><path d="M 315 375v 10h 10a 10 10, 0, 0, 0, -10 -10" transform="rotate(90,320,380)"/><path d="M 325 115v 10h 5a 5 5, 0, 0, 0, 0 -10" transform="rotate(-90,330,120)"/><path d="M 325 125v 10h 10a 10 10, 0, 0, 0, -10 -10" transform="rotate(180,330,130)"/><circle cx="330" cy="150" r="5" transform="rotate(0,330,150)"/><path d="M 325 165v 10h 10a 10 10, 0, 0, 0, -10 -10" transform="rotate(0,330,170)"/><rect x="325" y="175" width="10" height="10" transform="rotate(0,330,180)"/><path d="M 325 195v 10h 5a 5 5, 0, 0, 0, 0 -10" transform="rotate(180,330,200)"/><path d="M 325 245v 10h 5a 5 5, 0, 0, 0, 0 -10" transform="rotate(-90,330,250)"/><path d="M 325 255v 10h 5a 5 5, 0, 0, 0, 0 -10" transform="rotate(90,330,260)"/><path d="M 325 285v 10h 5a 5 5, 0, 0, 0, 0 -10" transform="rotate(-90,330,290)"/><rect x="325" y="295" width="10" height="10" transform="rotate(0,330,300)"/><rect x="325" y="335" width="10" height="10" transform="rotate(0,330,340)"/><rect x="325" y="345" width="10" height="10" transform="rotate(0,330,350)"/><rect x="325" y="365" width="10" height="10" transform="rotate(0,330,370)"/><rect x="335" y="125" width="10" height="10" transform="rotate(0,340,130)"/><path d="M 335 175v 10h 5a 5 5, 0, 0, 0, 0 -10" transform="rotate(0,340,180)"/><path d="M 335 195v 10h 5a 5 5, 0, 0, 0, 0 -10" transform="rotate(0,340,200)"/><circle cx="340" cy="220" r="5" transform="rotate(0,340,220)"/><circle cx="340" cy="240" r="5" transform="rotate(0,340,240)"/><circle cx="340" cy="280" r="5" transform="rotate(0,340,280)"/><path d="M 335 295v 10h 10a 10 10, 0, 0, 0, -10 -10" transform="rotate(0,340,300)"/><rect x="335" y="305" width="10" height="10" transform="rotate(0,340,310)"/><rect x="335" y="315" width="10" height="10" transform="rotate(0,340,320)"/><rect x="335" y="325" width="10" height="10" transform="rotate(0,340,330)"/><rect x="335" y="335" width="10" height="10" transform="rotate(0,340,340)"/><rect x="335" y="345" width="10" height="10" transform="rotate(0,340,350)"/><path d="M 335 365v 10h 5a 5 5, 0, 0, 0, 0 -10" transform="rotate(0,340,370)"/><path d="M 345 95v 10h 5a 5 5, 0, 0, 0, 0 -10" transform="rotate(180,350,100)"/><path d="M 345 115v 10h 5a 5 5, 0, 0, 0, 0 -10" transform="rotate(-90,350,120)"/><path d="M 345 125v 10h 10a 10 10, 0, 0, 0, -10 -10" transform="rotate(90,350,130)"/><path d="M 345 145v 10h 5a 5 5, 0, 0, 0, 0 -10" transform="rotate(-90,350,150)"/><rect x="345" y="155" width="10" height="10" transform="rotate(0,350,160)"/><path d="M 345 165v 10h 5a 5 5, 0, 0, 0, 0 -10" transform="rotate(90,350,170)"/><path d="M 345 185v 10h 5a 5 5, 0, 0, 0, 0 -10" transform="rotate(180,350,190)"/><path d="M 345 245v 10h 10a 10 10, 0, 0, 0, -10 -10" transform="rotate(-90,350,250)"/><path d="M 345 255v 10h 5a 5 5, 0, 0, 0, 0 -10" transform="rotate(90,350,260)"/><rect x="345" y="315" width="10" height="10" transform="rotate(0,350,320)"/><rect x="345" y="335" width="10" height="10" transform="rotate(0,350,340)"/><rect x="345" y="345" width="10" height="10" transform="rotate(0,350,350)"/><path d="M 345 355v 10h 5a 5 5, 0, 0, 0, 0 -10" transform="rotate(90,350,360)"/><path d="M 355 95v 10h 5a 5 5, 0, 0, 0, 0 -10" transform="rotate(0,360,100)"/><path d="M 355 175v 10h 10a 10 10, 0, 0, 0, -10 -10" transform="rotate(-90,360,180)"/><rect x="355" y="185" width="10" height="10" transform="rotate(0,360,190)"/><rect x="355" y="195" width="10" height="10" transform="rotate(0,360,200)"/><rect x="355" y="205" width="10" height="10" transform="rotate(0,360,210)"/><rect x="355" y="215" width="10" height="10" transform="rotate(0,360,220)"/><path d="M 355 225v 10h 10a 10 10, 0, 0, 0, -10 -10" transform="rotate(180,360,230)"/><path d="M 355 245v 10h 5a 5 5, 0, 0, 0, 0 -10" transform="rotate(0,360,250)"/><path d="M 355 265v 10h 10a 10 10, 0, 0, 0, -10 -10" transform="rotate(-90,360,270)"/><rect x="355" y="275" width="10" height="10" transform="rotate(0,360,280)"/><path d="M 355 285v 10h 5a 5 5, 0, 0, 0, 0 -10" transform="rotate(90,360,290)"/><rect x="355" y="315" width="10" height="10" transform="rotate(0,360,320)"/><rect x="355" y="325" width="10" height="10" transform="rotate(0,360,330)"/><rect x="355" y="335" width="10" height="10" transform="rotate(0,360,340)"/><circle cx="360" cy="370" r="5" transform="rotate(0,360,370)"/><path d="M 365 105v 10h 10a 10 10, 0, 0, 0, -10 -10" transform="rotate(-90,370,110)"/><rect x="365" y="115" width="10" height="10" transform="rotate(0,370,120)"/><rect x="365" y="125" width="10" height="10" transform="rotate(0,370,130)"/><rect x="365" y="135" width="10" height="10" transform="rotate(0,370,140)"/><rect x="365" y="145" width="10" height="10" transform="rotate(0,370,150)"/><path d="M 365 155v 10h 10a 10 10, 0, 0, 0, -10 -10" transform="rotate(180,370,160)"/><rect x="365" y="175" width="10" height="10" transform="rotate(0,370,180)"/><rect x="365" y="205" width="10" height="10" transform="rotate(0,370,210)"/><path d="M 365 225v 10h 10a 10 10, 0, 0, 0, -10 -10" transform="rotate(0,370,230)"/><path d="M 365 235v 10h 10a 10 10, 0, 0, 0, -10 -10" transform="rotate(180,370,240)"/><rect x="365" y="265" width="10" height="10" transform="rotate(0,370,270)"/><path d="M 365 305v 10h 10a 10 10, 0, 0, 0, -10 -10" transform="rotate(-90,370,310)"/><rect x="365" y="315" width="10" height="10" transform="rotate(0,370,320)"/><rect x="365" y="325" width="10" height="10" transform="rotate(0,370,330)"/><rect x="365" y="335" width="10" height="10" transform="rotate(0,370,340)"/><path d="M 365 355v 10h 5a 5 5, 0, 0, 0, 0 -10" transform="rotate(180,370,360)"/><path d="M 375 105v 10h 5a 5 5, 0, 0, 0, 0 -10" transform="rotate(0,380,110)"/><path d="M 375 155v 10h 5a 5 5, 0, 0, 0, 0 -10" transform="rotate(0,380,160)"/><path d="M 375 175v 10h 10a 10 10, 0, 0, 0, -10 -10" transform="rotate(0,380,180)"/><rect x="375" y="185" width="10" height="10" transform="rotate(0,380,190)"/><rect x="375" y="195" width="10" height="10" transform="rotate(0,380,200)"/><path d="M 375 205v 10h 10a 10 10, 0, 0, 0, -10 -10" transform="rotate(90,380,210)"/><path d="M 375 235v 10h 5a 5 5, 0, 0, 0, 0 -10" transform="rotate(0,380,240)"/><path d="M 375 265v 10h 10a 10 10, 0, 0, 0, -10 -10" transform="rotate(0,380,270)"/><path d="M 375 275v 10h 5a 5 5, 0, 0, 0, 0 -10" transform="rotate(90,380,280)"/><path d="M 375 305v 10h 5a 5 5, 0, 0, 0, 0 -10" transform="rotate(0,380,310)"/><path d="M 375 325v 10h 10a 10 10, 0, 0, 0, -10 -10" transform="rotate(0,380,330)"/><rect x="375" y="335" width="10" height="10" transform="rotate(0,380,340)"/><rect x="375" y="345" width="10" height="10" transform="rotate(0,380,350)"/><rect x="375" y="355" width="10" height="10" transform="rotate(0,380,360)"/><rect x="375" y="365" width="10" height="10" transform="rotate(0,380,370)"/><path d="M 375 375v 10h 5a 5 5, 0, 0, 0, 0 -10" transform="rotate(90,380,380)"/></clipPath><clipPath id="clip-path-corners-square-color-0-0"><path clip-rule="evenodd" d="M 15 40v 20a 25 25, 0, 0, 0, 25 25h 20a 25 25, 0, 0, 0, 25 -25v -20a 25 25, 0, 0, 0, -25 -25h -20a 25 25, 0, 0, 0, -25 25M 40 25h 20a 15 15, 0, 0, 1, 15 15v 20a 15 15, 0, 0, 1, -15 15h -20a 15 15, 0, 0, 1, -15 -15v -20a 15 15, 0, 0, 1, 15 -15" transform="rotate(0,50,50)"/><path d="M 35 35v 10h 10a 10 10, 0, 0, 0, -10 -10" transform="rotate(-90,40,40)"/><rect x="35" y="45" width="10" height="10" transform="rotate(0,40,50)"/><path d="M 35 55v 10h 10a 10 10, 0, 0, 0, -10 -10" transform="rotate(180,40,60)"/><rect x="45" y="35" width="10" height="10" transform="rotate(0,50,40)"/><rect x="45" y="45" width="10" height="10" transform="rotate(0,50,50)"/><rect x="45" y="55" width="10" height="10" transform="rotate(0,50,60)"/><path d="M 55 35v 10h 10a 10 10, 0, 0, 0, -10 -10" transform="rotate(0,60,40)"/><rect x="55" y="45" width="10" height="10" transform="rotate(0,60,50)"/><path d="M 55 55v 10h 10a 10 10, 0, 0, 0, -10 -10" transform="rotate(90,60,60)"/></clipPath><clipPath id="clip-path-corners-square-color-1-0"><path clip-rule="evenodd" d="M 315 40v 20a 25 25, 0, 0, 0, 25 25h 20a 25 25, 0, 0, 0, 25 -25v -20a 25 25, 0, 0, 0, -25 -25h -20a 25 25, 0, 0, 0, -25 25M 340 25h 20a 15 15, 0, 0, 1, 15 15v 20a 15 15, 0, 0, 1, -15 15h -20a 15 15, 0, 0, 1, -15 -15v -20a 15 15, 0, 0, 1, 15 -15" transform="rotate(90,350,50)"/><path d="M 335 35v 10h 10a 10 10, 0, 0, 0, -10 -10" transform="rotate(-90,340,40)"/><rect x="335" y="45" width="10" height="10" transform="rotate(0,340,50)"/><path d="M 335 55v 10h 10a 10 10, 0, 0, 0, -10 -10" transform="rotate(180,340,60)"/><rect x="345" y="35" width="10" height="10" transform="rotate(0,350,40)"/><rect x="345" y="45" width="10" height="10" transform="rotate(0,350,50)"/><rect x="345" y="55" width="10" height="10" transform="rotate(0,350,60)"/><path d="M 355 35v 10h 10a 10 10, 0, 0, 0, -10 -10" transform="rotate(0,360,40)"/><rect x="355" y="45" width="10" height="10" transform="rotate(0,360,50)"/><path d="M 355 55v 10h 10a 10 10, 0, 0, 0, -10 -10" transform="rotate(90,360,60)"/></clipPath><clipPath id="clip-path-corners-square-color-0-1"><path clip-rule="evenodd" d="M 15 340v 20a 25 25, 0, 0, 0, 25 25h 20a 25 25, 0, 0, 0, 25 -25v -20a 25 25, 0, 0, 0, -25 -25h -20a 25 25, 0, 0, 0, -25 25M 40 325h 20a 15 15, 0, 0, 1, 15 15v 20a 15 15, 0, 0, 1, -15 15h -20a 15 15, 0, 0, 1, -15 -15v -20a 15 15, 0, 0, 1, 15 -15" transform="rotate(-90,50,350)"/><path d="M 35 335v 10h 10a 10 10, 0, 0, 0, -10 -10" transform="rotate(-90,40,340)"/><rect x="35" y="345" width="10" height="10" transform="rotate(0,40,350)"/><path d="M 35 355v 10h 10a 10 10, 0, 0, 0, -10 -10" transform="rotate(180,40,360)"/><rect x="45" y="335" width="10" height="10" transform="rotate(0,50,340)"/><rect x="45" y="345" width="10" height="10" transform="rotate(0,50,350)"/><rect x="45" y="355" width="10" height="10" transform="rotate(0,50,360)"/><path d="M 55 335v 10h 10a 10 10, 0, 0, 0, -10 -10" transform="rotate(0,60,340)"/><rect x="55" y="345" width="10" height="10" transform="rotate(0,60,350)"/><path d="M 55 355v 10h 10a 10 10, 0, 0, 0, -10 -10" transform="rotate(90,60,360)"/></clipPath></defs><rect x="0" y="0" height="400" width="400" clip-path="url('#clip-path-background-color')" fill="rgba(0,0,0,0)"/><rect x="15" y="15" height="370" width="370" clip-path="url('#clip-path-dot-color')" fill="#000000"/><rect x="15" y="15" height="70" width="70" clip-path="url('#clip-path-corners-square-color-0-0')" fill="#000000"/><rect x="315" y="15" height="70" width="70" clip-path="url('#clip-path-corners-square-color-1-0')" fill="#000000"/><rect x="15" y="315" height="70" width="70" clip-path="url('#clip-path-corners-square-color-0-1')" fill="#000000"/></svg>