<?xml version="1.0" standalone="no"?>
<svg xmlns="http://www.w3.org/2000/svg" width="400" height="400"><defs><clipPath id="clip-path-dot-color"><circle cx="8" cy="104" r="6" transform="rotate(0,8,104)"/><path d="M 2 134v 12h 6a 6 6, 0, 0, 0, 0 -12" transform="rotate(-90,8,140)"/><path d="M 2 146v 12h 6a 6 6, 0, 0, 0, 0 -12" transform="rotate(90,8,152)"/><circle cx="8" cy="188" r="6" transform="rotate(0,8,188)"/><path d="M 2 206v 12h 12a 12 12, 0, 0, 0, -12 -12" transform="rotate(-90,8,212)"/><rect x="2" y="218" width="12" height="12" transform="rotate(0,8,224)"/><rect x="2" y="230" width="12" height="12" transform="rotate(0,8,236)"/><path d="M 2 242v 12h 6a 6 6, 0, 0, 0, 0 -12" transform="rotate(90,8,248)"/><path d="M 2 266v 12h 6a 6 6, 0, 0, 0, 0 -12" transform="rotate(180,8,272)"/><path d="M 2 290v 12h 6a 6 6, 0, 0, 0, 0 -12" transform="rotate(180,8,296)"/><circle cx="20" cy="176" r="6" transform="rotate(0,20,176)"/><rect x="14" y="206" width="12" height="12" transform="rotate(0,20,212)"/><path d="M 14 218v 12h 12a 12 12, 0, 0, 0, -12 -12" transform="rotate(90,20,224)"/><path d="M 14 266v 12h 6a 6 6, 0, 0, 0, 0 -12" transform="rotate(0,20,272)"/><rect x="14" y="290" width="12" height="12" transform="rotate(0,20,296)"/><circle cx="32" cy="104" r="6" transform="rotate(0,32,104)"/><circle cx="32" cy="188" r="6" transform="rotate(0,32,188)"/><rect x="26" y="206" width="12" height="12" transform="rotate(0,32,212)"/><path d="M 26 242v 12h 12a 12 12, 0, 0, 0, -12 -12" transform="rotate(-90,32,248)"/><path d="M 26 254v 12h 12a 12 12, 0, 0, 0, -12 -12" transform="rotate(180,32,260)"/><path d="M 26 278v 12h 12a 12 12, 0, 0, 0, -12 -12" transform="rotate(-90,32,284)"/><path d="M 26 290v 12h 12a 12 12, 0, 0, 0, -12 -12" transform="rotate(90,32,296)"/><path d="M 38 146v 12h 6a 6 6, 0, 0, 0, 0 -12" transform="rotate(180,44,152)"/><path d="M 38 194v 12h 12a 12 12, 0, 0, 0, -12 -12" transform="rotate(-90,44,200)"/><rect x="38" y="206" width="12" height="12" transform="rotate(0,44,212)"/><path d="M 38 242v 12h 12a 12 12, 0, 0, 0, -12 -12" transform="rotate(0,44,248)"/><path d="M 38 254v 12h 12a 12 12, 0, 0, 0, -12 -12" transform="rotate(90,44,260)"/><path d="M 38 278v 12h 6a 6 6, 0, 0, 0, 0 -12" transform="rotate(0,44,284)"/><circle cx="56" cy="104" r="6" transform="rotate(0,56,104)"/><path d="M 50 146v 12h 12a 12 12, 0, 0, 0, -12 -12" transform="rotate(0,56,152)"/><rect x="50" y="158" width="12" height="12" transform="rotate(0,56,164)"/><rect x="50" y="170" width="12" height="12" transform="rotate(0,56,176)"/><rect x="50" y="182" width="12" height="12" transform="rotate(0,56,188)"/><rect x="50" y="194" width="12" height="12" transform="rotate(0,56,200)"/><rect x="50" y="206" width="12" height="12" transform="rotate(0,56,212)"/><circle cx="56" cy="296" r="6" transform="rotate(0,56,296)"/><rect x="62" y="170" width="12" height="12" transform="rotate(0,68,176)"/><path d="M 62 206v 12h 6a 6 6, 0, 0, 0, 0 -12" transform="rotate(0,68,212)"/><path d="M 62 230v 12h 6a 6 6, 0, 0, 0, 0 -12" transform="rotate(-90,68,236)"/><rect x="62" y="242" width="12" height="12" transform="rotate(0,68,248)"/><rect x="62" y="254" width="12" height="12" transform="rotate(0,68,260)"/><path d="M 62 266v 12h 12a 12 12, 0, 0, 0, -12 -12" transform="rotate(180,68,272)"/><path d="M 74 98v 12h 6a 6 6, 0, 0, 0, 0 -12" transform="rotate(180,80,104)"/><path d="M 74 122v 12h 6a 6 6, 0, 0, 0, 0 -12" transform="rotate(180,80,128)"/><path d="M 74 146v 12h 6a 6 6, 0, 0, 0, 0 -12" transform="rotate(180,80,152)"/><path d="M 74 170v 12h 6a 6 6, 0, 0, 0, 0 -12" transform="rotate(0,80,176)"/><path d="M 74 194v 12h 6a 6 6, 0, 0, 0, 0 -12" transform="rotate(180,80,200)"/><circle cx="80" cy="224" r="6" transform="rotate(0,80,224)"/><path d="M 74 242v 12h 6a 6 6, 0, 0, 0, 0 -12" transform="rotate(0,80,248)"/><path d="M 74 266v 12h 6a 6 6, 0, 0, 0, 0 -12" transform="rotate(0,80,272)"/><path d="M 74 290v 12h 6a 6 6, 0, 0, 0, 0 -12" transform="rotate(180,80,296)"/><path d="M 86 98v 12h 6a 6 6, 0, 0, 0, 0 -12" transform="rotate(0,92,104)"/><path d="M 86 122v 12h 12a 12 12, 0, 0, 0, -12 -12" transform="rotate(0,92,128)"/><rect x="86" y="134" width="12" height="12" transform="rotate(0,92,140)"/><rect x="86" y="146" width="12" height="12" transform="rotate(0,92,152)"/><path d="M 86 158v 12h 12a 12 12, 0, 0, 0, -12 -12" transform="rotate(180,92,164)"/><path d="M 86 182v 12h 12a 12 12, 0, 0, 0, -12 -12" transform="rotate(-90,92,188)"/><path d="M 86 194v 12h 12a 12 12, 0, 0, 0, -12 -12" transform="rotate(90,92,200)"/><circle cx="92" cy="236" r="6" transform="rotate(0,92,236)"/><rect x="86" y="290" width="12" height="12" transform="rotate(0,92,296)"/><path d="M 98 62v 12h 12a 12 12, 0, 0, 0, -12 -12" transform="rotate(-90,104,68)"/><path d="M 98 74v 12h 6a 6 6, 0, 0, 0, 0 -12" transform="rotate(90,104,80)"/><circle cx="104" cy="116" r="6" transform="rotate(0,104,116)"/><rect x="98" y="158" width="12" height="12" transform="rotate(0,104,164)"/><rect x="98" y="170" width="12" height="12" transform="rotate(0,104,176)"/><path d="M 98 182v 12h 12a 12 12, 0, 0, 0, -12 -12" transform="rotate(90,104,188)"/><path d="M 98 266v 12h 6a 6 6, 0, 0, 0, 0 -12" transform="rotate(180,104,272)"/><path d="M 98 290v 12h 6a 6 6, 0, 0, 0, 0 -12" transform="rotate(0,104,296)"/><circle cx="104" cy="320" r="6" transform="rotate(0,104,320)"/><path d="M 98 338v 12h 6a 6 6, 0, 0, 0, 0 -12" transform="rotate(180,104,344)"/><circle cx="104" cy="368" r="6" transform="rotate(0,104,368)"/><circle cx="104" cy="392" r="6" transform="rotate(0,104,392)"/><path d="M 110 14v 12h 12a 12 12, 0, 0, 0, -12 -12" transform="rotate(-90,116,20)"/><path d="M 110 26v 12h 6a 6 6, 0, 0, 0, 0 -12" transform="rotate(90,116,32)"/><path d="M 110 62v 12h 6a 6 6, 0, 0, 0, 0 -12" transform="rotate(0,116,68)"/><path d="M 110 98v 12h 6a 6 6, 0, 0, 0, 0 -12" transform="rotate(180,116,104)"/><rect x="110" y="158" width="12" height="12" transform="rotate(0,116,164)"/><path d="M 110 194v 12h 6a 6 6, 0, 0, 0, 0 -12" transform="rotate(-90,116,200)"/><rect x="110" y="206" width="12" height="12" transform="rotate(0,116,212)"/><path d="M 110 218v 12h 12a 12 12, 0, 0, 0, -12 -12" transform="rotate(180,116,224)"/><path d="M 110 242v 12h 6a 6 6, 0, 0, 0, 0 -12" transform="rotate(-90,116,248)"/><rect x="110" y="254" width="12" height="12" transform="rotate(0,116,260)"/><rect x="110" y="266" width="12" height="12" transform="rotate(0,116,272)"/><path d="M 110 278v 12h 6a 6 6, 0, 0, 0, 0 -12" transform="rotate(90,116,284)"/><circle cx="116" cy="308" r="6" transform="rotate(0,116,308)"/><path d="M 110 326v 12h 12a 12 12, 0, 0, 0, -12 -12" transform="rotate(-90,116,332)"/><rect x="110" y="338" width="12" height="12" transform="rotate(0,116,344)"/><path d="M 110 350v 12h 12a 12 12, 0, 0, 0, -12 -12" transform="rotate(180,116,356)"/><path d="M 110 374v 12h 6a 6 6, 0, 0, 0, 0 -12" transform="rotate(180,116,380)"/><path d="M 122 2v 12h 12a 12 12, 0, 0, 0, -12 -12" transform="rotate(-90,128,8)"/><path d="M 122 14v 12h 12a 12 12, 0, 0, 0, -12 -12" transform="rotate(90,128,20)"/><path d="M 122 50v 12h 6a 6 6, 0, 0, 0, 0 -12" transform="rotate(180,128,56)"/><path d="M 122 74v 12h 6a 6 6, 0, 0, 0, 0 -12" transform="rotate(-90,128,80)"/><rect x="122" y="86" width="12" height="12" transform="rotate(0,128,92)"/><rect x="122" y="98" width="12" height="12" transform="rotate(0,128,104)"/><path d="M 122 122v 12h 12a 12 12, 0, 0, 0, -12 -12" transform="rotate(-90,128,128)"/><rect x="122" y="134" width="12" height="12" transform="rotate(0,128,140)"/><rect x="122" y="146" width="12" height="12" transform="rotate(0,128,152)"/><rect x="122" y="158" width="12" height="12" transform="rotate(0,128,164)"/><path d="M 122 170v 12h 12a 12 12, 0, 0, 0, -12 -12" transform="rotate(180,128,176)"/><rect x="122" y="206" width="12" height="12" transform="rotate(0,128,212)"/><rect x="122" y="218" width="12" height="12" transform="rotate(0,128,224)"/><path d="M 122 230v 12h 12a 12 12, 0, 0, 0, -12 -12" transform="rotate(180,128,236)"/><path d="M 122 266v 12h 6a 6 6, 0, 0, 0, 0 -12" transform="rotate(0,128,272)"/><path d="M 122 314v 12h 12a 12 12, 0, 0, 0, -12 -12" transform="rotate(-90,128,320)"/><rect x="122" y="326" width="12" height="12" transform="rotate(0,128,332)"/><rect x="122" y="350" width="12" height="12" transform="rotate(0,128,356)"/><path d="M 122 374v 12h 6a 6 6, 0, 0, 0, 0 -12" transform="rotate(0,128,380)"/><path d="M 134 2v 12h 6a 6 6, 0, 0, 0, 0 -12" transform="rotate(0,140,8)"/><path d="M 134 50v 12h 6a 6 6, 0, 0, 0, 0 -12" transform="rotate(0,140,56)"/><path d="M 134 98v 12h 12a 12 12, 0, 0, 0, -12 -12" transform="rotate(0,140,104)"/><rect x="134" y="110" width="12" height="12" transform="rotate(0,140,116)"/><rect x="134" y="122" width="12" height="12" transform="rotate(0,140,128)"/><rect x="134" y="134" width="12" height="12" transform="rotate(0,140,140)"/><path d="M 134 170v 12h 6a 6 6, 0, 0, 0, 0 -12" transform="rotate(0,140,176)"/><path d="M 134 194v 12h 12a 12 12, 0, 0, 0, -12 -12" transform="rotate(-90,140,200)"/><path d="M 134 206v 12h 12a 12 12, 0, 0, 0, -12 -12" transform="rotate(90,140,212)"/><path d="M 134 230v 12h 6a 6 6, 0, 0, 0, 0 -12" transform="rotate(0,140,236)"/><path d="M 134 254v 12h 6a 6 6, 0, 0, 0, 0 -12" transform="rotate(180,140,260)"/><path d="M 134 290v 12h 12a 12 12, 0, 0, 0, -12 -12" transform="rotate(-90,140,296)"/><rect x="134" y="302" width="12" height="12" transform="rotate(0,140,308)"/><rect x="134" y="314" width="12" height="12" transform="rotate(0,140,320)"/><rect x="134" y="326" width="12" height="12" transform="rotate(0,140,332)"/><rect x="134" y="350" width="12" height="12" transform="rotate(0,140,356)"/><path d="M 134 362v 12h 6a 6 6, 0, 0, 0, 0 -12" transform="rotate(90,140,368)"/><circle cx="140" cy="392" r="6" transform="rotate(0,140,392)"/><circle cx="152" cy="44" r="6" transform="rotate(0,152,44)"/><path d="M 146 62v 12h 12a 12 12, 0, 0, 0, -12 -12" transform="rotate(-90,152,68)"/><rect x="146" y="74" width="12" height="12" transform="rotate(0,152,80)"/><path d="M 146 86v 12h 12a 12 12, 0, 0, 0, -12 -12" transform="rotate(180,152,92)"/><path d="M 146 122v 12h 12a 12 12, 0, 0, 0, -12 -12" transform="rotate(0,152,128)"/><rect x="146" y="134" width="12" height="12" transform="rotate(0,152,140)"/><rect x="146" y="146" width="12" height="12" transform="rotate(0,152,152)"/><path d="M 146 158v 12h 12a 12 12, 0, 0, 0, -12 -12" transform="rotate(180,152,164)"/><path d="M 146 194v 12h 6a 6 6, 0, 0, 0, 0 -12" transform="rotate(0,152,200)"/><rect x="146" y="254" width="12" height="12" transform="rotate(0,152,260)"/><path d="M 146 278v 12h 12a 12 12, 0, 0, 0, -12 -12" transform="rotate(-90,152,284)"/><path d="M 146 290v 12h 12a 12 12, 0, 0, 0, -12 -12" transform="rotate(90,152,296)"/><rect x="146" y="314" width="12" height="12" transform="rotate(0,152,320)"/><path d="M 146 326v 12h 12a 12 12, 0, 0, 0, -12 -12" transform="rotate(90,152,332)"/><rect x="146" y="350" width="12" height="12" transform="rotate(0,152,356)"/><circle cx="152" cy="380" r="6" transform="rotate(0,152,380)"/><circle cx="164" cy="32" r="6" transform="rotate(0,164,32)"/><path d="M 158 50v 12h 6a 6 6, 0, 0, 0, 0 -12" transform="rotate(-90,164,56)"/><rect x="158" y="62" width="12" height="12" transform="rotate(0,164,68)"/><path d="M 158 86v 12h 12a 12 12, 0, 0, 0, -12 -12" transform="rotate(0,164,92)"/><rect x="158" y="98" width="12" height="12" transform="rotate(0,164,104)"/><path d="M 158 110v 12h 12a 12 12, 0, 0, 0, -12 -12" transform="rotate(180,164,116)"/><path d="M 158 134v 12h 12a 12 12, 0, 0, 0, -12 -12" transform="rotate(0,164,140)"/><rect x="158" y="146" width="12" height="12" transform="rotate(0,164,152)"/><path d="M 158 158v 12h 12a 12 12, 0, 0, 0, -12 -12" transform="rotate(90,164,164)"/><path d="M 158 206v 12h 6a 6 6, 0, 0, 0, 0 -12" transform="rotate(-90,164,212)"/><rect x="158" y="218" width="12" height="12" transform="rotate(0,164,224)"/><rect x="158" y="230" width="12" height="12" transform="rotate(0,164,236)"/><rect x="158" y="242" width="12" height="12" transform="rotate(0,164,248)"/><path d="M 158 254v 12h 12a 12 12, 0, 0, 0, -12 -12" transform="rotate(90,164,260)"/><path d="M 158 278v 12h 6a 6 6, 0, 0, 0, 0 -12" transform="rotate(0,164,284)"/><path d="M 158 314v 12h 6a 6 6, 0, 0, 0, 0 -12" transform="rotate(0,164,320)"/><rect x="158" y="350" width="12" height="12" transform="rotate(0,164,356)"/><path d="M 158 362v 12h 12a 12 12, 0, 0, 0, -12 -12" transform="rotate(180,164,368)"/><circle cx="164" cy="392" r="6" transform="rotate(0,164,392)"/><circle cx="176" cy="8" r="6" transform="rotate(0,176,8)"/><path d="M 170 62v 12h 12a 12 12, 0, 0, 0, -12 -12" transform="rotate(0,176,68)"/><path d="M 170 74v 12h 6a 6 6, 0, 0, 0, 0 -12" transform="rotate(90,176,80)"/><path d="M 170 98v 12h 12a 12 12, 0, 0, 0, -12 -12" transform="rotate(0,176,104)"/><rect x="170" y="110" width="12" height="12" transform="rotate(0,176,116)"/><path d="M 170 146v 12h 6a 6 6, 0, 0, 0, 0 -12" transform="rotate(0,176,152)"/><path d="M 170 170v 12h 6a 6 6, 0, 0, 0, 0 -12" transform="rotate(-90,176,176)"/><path d="M 170 182v 12h 6a 6 6, 0, 0, 0, 0 -12" transform="rotate(90,176,188)"/><circle cx="176" cy="272" r="6" transform="rotate(0,176,272)"/><path d="M 170 290v 12h 6a 6 6, 0, 0, 0, 0 -12" transform="rotate(-90,176,296)"/><path d="M 170 302v 12h 6a 6 6, 0, 0, 0, 0 -12" transform="rotate(90,176,308)"/><path d="M 170 338v 12h 6a 6 6, 0, 0, 0, 0 -12" transform="rotate(-90,176,344)"/><rect x="170" y="350" width="12" height="12" transform="rotate(0,176,356)"/><rect x="170" y="362" width="12" height="12" transform="rotate(0,176,368)"/><path d="M 170 374v 12h 6a 6 6, 0, 0, 0, 0 -12" transform="rotate(90,176,380)"/><path d="M 182 26v 12h 6a 6 6, 0, 0, 0, 0 -12" transform="rotate(180,188,32)"/><circle cx="188" cy="56" r="6" transform="rotate(0,188,56)"/><circle cx="188" cy="92" r="6" transform="rotate(0,188,92)"/><path d="M 182 110v 12h 6a 6 6, 0, 0, 0, 0 -12" transform="rotate(0,188,116)"/><path d="M 182 230v 12h 12a 12 12, 0, 0, 0, -12 -12" transform="rotate(-90,188,236)"/><path d="M 182 242v 12h 12a 12 12, 0, 0, 0, -12 -12" transform="rotate(180,188,248)"/><path d="M 182 278v 12h 6a 6 6, 0, 0, 0, 0 -12" transform="rotate(180,188,284)"/><circle cx="188" cy="320" r="6" transform="rotate(0,188,320)"/><path d="M 182 350v 12h 12a 12 12, 0, 0, 0, -12 -12" transform="rotate(0,188,356)"/><path d="M 182 362v 12h 12a 12 12, 0, 0, 0, -12 -12" transform="rotate(90,188,368)"/><path d="M 194 14v 12h 6a 6 6, 0, 0, 0, 0 -12" transform="rotate(-90,200,20)"/><rect x="194" y="26" width="12" height="12" transform="rotate(0,200,32)"/><path d="M 194 38v 12h 12a 12 12, 0, 0, 0, -12 -12" transform="rotate(180,200,44)"/><path d="M 194 62v 12h 6a 6 6, 0, 0, 0, 0 -12" transform="rotate(-90,200,68)"/><path d="M 194 74v 12h 6a 6 6, 0, 0, 0, 0 -12" transform="rotate(90,200,80)"/><path d="M 194 122v 12h 12a 12 12, 0, 0, 0, -12 -12" transform="rotate(-90,200,128)"/><rect x="194" y="134" width="12" height="12" transform="rotate(0,200,140)"/><rect x="194" y="146" width="12" height="12" transform="rotate(0,200,152)"/><path d="M 194 158v 12h 12a 12 12, 0, 0, 0, -12 -12" transform="rotate(180,200,164)"/><path d="M 194 182v 12h 6a 6 6, 0, 0, 0, 0 -12" transform="rotate(-90,200,188)"/><path d="M 194 194v 12h 6a 6 6, 0, 0, 0, 0 -12" transform="rotate(90,200,200)"/><path d="M 194 218v 12h 12a 12 12, 0, 0, 0, -12 -12" transform="rotate(-90,200,224)"/><rect x="194" y="230" width="12" height="12" transform="rotate(0,200,236)"/><rect x="194" y="242" width="12" height="12" transform="rotate(0,200,248)"/><rect x="194" y="278" width="12" height="12" transform="rotate(0,200,284)"/><circle cx="200" cy="308" r="6" transform="rotate(0,200,308)"/><path d="M 194 326v 12h 12a 12 12, 0, 0, 0, -12 -12" transform="rotate(-90,200,332)"/><path d="M 194 338v 12h 6a 6 6, 0, 0, 0, 0 -12" transform="rotate(90,200,344)"/><path d="M 194 374v 12h 6a 6 6, 0, 0, 0, 0 -12" transform="rotate(-90,200,380)"/><path d="M 194 386v 12h 12a 12 12, 0, 0, 0, -12 -12" transform="rotate(180,200,392)"/><path d="M 206 2v 12h 6a 6 6, 0, 0, 0, 0 -12" transform="rotate(180,212,8)"/><path d="M 206 26v 12h 12a 12 12, 0, 0, 0, -12 -12" transform="rotate(0,212,32)"/><rect x="206" y="38" width="12" height="12" transform="rotate(0,212,44)"/><path d="M 206 50v 12h 6a 6 6, 0, 0, 0, 0 -12" transform="rotate(90,212,56)"/><path d="M 206 86v 12h 12a 12 12, 0, 0, 0, -12 -12" transform="rotate(-90,212,92)"/><rect x="206" y="98" width="12" height="12" transform="rotate(0,212,104)"/><rect x="206" y="110" width="12" height="12" transform="rotate(0,212,116)"/><rect x="206" y="122" width="12" height="12" transform="rotate(0,212,128)"/><rect x="206" y="134" width="12" height="12" transform="rotate(0,212,140)"/><rect x="206" y="146" width="12" height="12" transform="rotate(0,212,152)"/><rect x="206" y="158" width="12" height="12" transform="rotate(0,212,164)"/><path d="M 206 206v 12h 6a 6 6, 0, 0, 0, 0 -12" transform="rotate(-90,212,212)"/><path d="M 206 218v 12h 12a 12 12, 0, 0, 0, -12 -12" transform="rotate(90,212,224)"/><rect x="206" y="242" width="12" height="12" transform="rotate(0,212,248)"/><path d="M 206 254v 12h 6a 6 6, 0, 0, 0, 0 -12" transform="rotate(90,212,260)"/><rect x="206" y="278" width="12" height="12" transform="rotate(0,212,284)"/><path d="M 206 290v 12h 6a 6 6, 0, 0, 0, 0 -12" transform="rotate(90,212,296)"/><path d="M 206 314v 12h 6a 6 6, 0, 0, 0, 0 -12" transform="rotate(-90,212,320)"/><path d="M 206 326v 12h 12a 12 12, 0, 0, 0, -12 -12" transform="rotate(90,212,332)"/><rect x="206" y="386" width="12" height="12" transform="rotate(0,212,392)"/><path d="M 218 2v 12h 12a 12 12, 0, 0, 0, -12 -12" transform="rotate(0,224,8)"/><path d="M 218 14v 12h 12a 12 12, 0, 0, 0, -12 -12" transform="rotate(180,224,20)"/><path d="M 218 74v 12h 6a 6 6, 0, 0, 0, 0 -12" transform="rotate(-90,224,80)"/><path d="M 218 86v 12h 12a 12 12, 0, 0, 0, -12 -12" transform="rotate(90,224,92)"/><path d="M 218 110v 12h 6a 6 6, 0, 0, 0, 0 -12" transform="rotate(0,224,116)"/><rect x="218" y="146" width="12" height="12" transform="rotate(0,224,152)"/><rect x="218" y="158" width="12" height="12" transform="rotate(0,224,164)"/><path d="M 218 170v 12h 12a 12 12, 0, 0, 0, -12 -12" transform="rotate(180,224,176)"/><circle cx="224" cy="200" r="6" transform="rotate(0,224,200)"/><path d="M 218 230v 12h 12a 12 12, 0, 0, 0, -12 -12" transform="rotate(-90,224,236)"/><path d="M 218 242v 12h 12a 12 12, 0, 0, 0, -12 -12" transform="rotate(90,224,248)"/><rect x="218" y="278" width="12" height="12" transform="rotate(0,224,284)"/><path d="M 218 338v 12h 12a 12 12, 0, 0, 0, -12 -12" transform="rotate(-90,224,344)"/><rect x="218" y="350" width="12" height="12" transform="rotate(0,224,356)"/><path d="M 218 362v 12h 12a 12 12, 0, 0, 0, -12 -12" transform="rotate(180,224,368)"/><rect x="218" y="386" width="12" height="12" transform="rotate(0,224,392)"/><rect x="230" y="14" width="12" height="12" transform="rotate(0,236,20)"/><path d="M 230 38v 12h 6a 6 6, 0, 0, 0, 0 -12" transform="rotate(180,236,44)"/><path d="M 230 122v 12h 6a 6 6, 0, 0, 0, 0 -12" transform="rotate(-90,236,128)"/><rect x="230" y="134" width="12" height="12" transform="rotate(0,236,140)"/><path d="M 230 146v 12h 12a 12 12, 0, 0, 0, -12 -12" transform="rotate(90,236,152)"/><rect x="230" y="170" width="12" height="12" transform="rotate(0,236,176)"/><path d="M 230 218v 12h 12a 12 12, 0, 0, 0, -12 -12" transform="rotate(-90,236,224)"/><path d="M 230 230v 12h 12a 12 12, 0, 0, 0, -12 -12" transform="rotate(90,236,236)"/><path d="M 230 266v 12h 12a 12 12, 0, 0, 0, -12 -12" transform="rotate(-90,236,272)"/><rect x="230" y="278" width="12" height="12" transform="rotate(0,236,284)"/><rect x="230" y="290" width="12" height="12" transform="rotate(0,236,296)"/><rect x="230" y="302" width="12" height="12" transform="rotate(0,236,308)"/><path d="M 230 314v 12h 6a 6 6, 0, 0, 0, 0 -12" transform="rotate(90,236,320)"/><rect x="230" y="338" width="12" height="12" transform="rotate(0,236,344)"/><rect x="230" y="350" width="12" height="12" transform="rotate(0,236,356)"/><rect x="230" y="362" width="12" height="12" transform="rotate(0,236,368)"/><rect x="230" y="374" width="12" height="12" transform="rotate(0,236,380)"/><path d="M 230 386v 12h 12a 12 12, 0, 0, 0, -12 -12" transform="rotate(90,236,392)"/><rect x="242" y="14" width="12" height="12" transform="rotate(0,248,20)"/><path d="M 242 38v 12h 6a 6 6, 0, 0, 0, 0 -12" transform="rotate(0,248,44)"/><path d="M 242 62v 12h 12a 12 12, 0, 0, 0, -12 -12" transform="rotate(-90,248,68)"/><path d="M 242 74v 12h 6a 6 6, 0, 0, 0, 0 -12" transform="rotate(90,248,80)"/><circle cx="248" cy="104" r="6" transform="rotate(0,248,104)"/><path d="M 242 134v 12h 6a 6 6, 0, 0, 0, 0 -12" transform="rotate(0,248,140)"/><path d="M 242 170v 12h 6a 6 6, 0, 0, 0, 0 -12" transform="rotate(0,248,176)"/><path d="M 242 218v 12h 6a 6 6, 0, 0, 0, 0 -12" transform="rotate(0,248,224)"/><rect x="242" y="266" width="12" height="12" transform="rotate(0,248,272)"/><path d="M 242 290v 12h 6a 6 6, 0, 0, 0, 0 -12" transform="rotate(0,248,296)"/><path d="M 242 326v 12h 12a 12 12, 0, 0, 0, -12 -12" transform="rotate(-90,248,332)"/><rect x="242" y="338" width="12" height="12" transform="rotate(0,248,344)"/><rect x="242" y="350" width="12" height="12" transform="rotate(0,248,356)"/><path d="M 254 2v 12h 12a 12 12, 0, 0, 0, -12 -12" transform="rotate(-90,260,8)"/><rect x="254" y="14" width="12" height="12" transform="rotate(0,260,20)"/><path d="M 254 26v 12h 6a 6 6, 0, 0, 0, 0 -12" transform="rotate(90,260,32)"/><rect x="254" y="62" width="12" height="12" transform="rotate(0,260,68)"/><path d="M 254 86v 12h 6a 6 6, 0, 0, 0, 0 -12" transform="rotate(180,260,92)"/><circle cx="260" cy="128" r="6" transform="rotate(0,260,128)"/><path d="M 254 182v 12h 6a 6 6, 0, 0, 0, 0 -12" transform="rotate(-90,260,188)"/><rect x="254" y="194" width="12" height="12" transform="rotate(0,260,200)"/><path d="M 254 206v 12h 6a 6 6, 0, 0, 0, 0 -12" transform="rotate(90,260,212)"/><path d="M 254 230v 12h 6a 6 6, 0, 0, 0, 0 -12" transform="rotate(-90,260,236)"/><path d="M 254 242v 12h 12a 12 12, 0, 0, 0, -12 -12" transform="rotate(180,260,248)"/><rect x="254" y="266" width="12" height="12" transform="rotate(0,260,272)"/><path d="M 254 314v 12h 6a 6 6, 0, 0, 0, 0 -12" transform="rotate(-90,260,320)"/><rect x="254" y="326" width="12" height="12" transform="rotate(0,260,332)"/><rect x="254" y="338" width="12" height="12" transform="rotate(0,260,344)"/><rect x="254" y="350" width="12" height="12" transform="rotate(0,260,356)"/><path d="M 254 362v 12h 12a 12 12, 0, 0, 0, -12 -12" transform="rotate(180,260,368)"/><rect x="266" y="2" width="12" height="12" transform="rotate(0,272,8)"/><path d="M 266 38v 12h 6a 6 6, 0, 0, 0, 0 -12" transform="rotate(-90,272,44)"/><rect x="266" y="50" width="12" height="12" transform="rotate(0,272,56)"/><rect x="266" y="62" width="12" height="12" transform="rotate(0,272,68)"/><rect x="266" y="74" width="12" height="12" transform="rotate(0,272,80)"/><rect x="266" y="86" width="12" height="12" transform="rotate(0,272,92)"/><path d="M 266 98v 12h 12a 12 12, 0, 0, 0, -12 -12" transform="rotate(180,272,104)"/><path d="M 266 146v 12h 6a 6 6, 0, 0, 0, 0 -12" transform="rotate(-90,272,152)"/><path d="M 266 158v 12h 6a 6 6, 0, 0, 0, 0 -12" transform="rotate(90,272,164)"/><circle cx="272" cy="224" r="6" transform="rotate(0,272,224)"/><path d="M 266 242v 12h 12a 12 12, 0, 0, 0, -12 -12" transform="rotate(0,272,248)"/><rect x="266" y="254" width="12" height="12" transform="rotate(0,272,260)"/><rect x="266" y="266" width="12" height="12" transform="rotate(0,272,272)"/><rect x="266" y="278" width="12" height="12" transform="rotate(0,272,284)"/><path d="M 266 290v 12h 6a 6 6, 0, 0, 0, 0 -12" transform="rotate(90,272,296)"/><rect x="266" y="362" width="12" height="12" transform="rotate(0,272,368)"/><rect x="278" y="2" width="12" height="12" transform="rotate(0,284,8)"/><path d="M 278 26v 12h 6a 6 6, 0, 0, 0, 0 -12" transform="rotate(180,284,32)"/><rect x="278" y="86" width="12" height="12" transform="rotate(0,284,92)"/><path d="M 278 98v 12h 12a 12 12, 0, 0, 0, -12 -12" transform="rotate(90,284,104)"/><path d="M 278 134v 12h 6a 6 6, 0, 0, 0, 0 -12" transform="rotate(180,284,140)"/><path d="M 278 194v 12h 12a 12 12, 0, 0, 0, -12 -12" transform="rotate(-90,284,200)"/><path d="M 278 206v 12h 6a 6 6, 0, 0, 0, 0 -12" transform="rotate(90,284,212)"/><path d="M 278 278v 12h 6a 6 6, 0, 0, 0, 0 -12" transform="rotate(0,284,284)"/><path d="M 278 350v 12h 12a 12 12, 0, 0, 0, -12 -12" transform="rotate(-90,284,356)"/><path d="M 278 362v 12h 12a 12 12, 0, 0, 0, -12 -12" transform="rotate(90,284,368)"/><path d="M 290 2v 12h 12a 12 12, 0, 0, 0, -12 -12" transform="rotate(0,296,8)"/><rect x="290" y="14" width="12" height="12" transform="rotate(0,296,20)"/><path d="M 290 26v 12h 12a 12 12, 0, 0, 0, -12 -12" transform="rotate(90,296,32)"/><circle cx="296" cy="56" r="6" transform="rotate(0,296,56)"/><path d="M 290 74v 12h 6a 6 6, 0, 0, 0, 0 -12" transform="rotate(-90,296,80)"/><path d="M 290 86v 12h 12a 12 12, 0, 0, 0, -12 -12" transform="rotate(90,296,92)"/><path d="M 290 122v 12h 12a 12 12, 0, 0, 0, -12 -12" transform="rotate(-90,296,128)"/><rect x="290" y="134" width="12" height="12" transform="rotate(0,296,140)"/><rect x="290" y="146" width="12" height="12" transform="rotate(0,296,152)"/><rect x="290" y="158" width="12" height="12" transform="rotate(0,296,164)"/><rect x="290" y="170" width="12" height="12" transform="rotate(0,296,176)"/><rect x="290" y="182" width="12" height="12" transform="rotate(0,296,188)"/><path d="M 290 194v 12h 12a 12 12, 0, 0, 0, -12 -12" transform="rotate(90,296,200)"/><path d="M 290 290v 12h 12a 12 12, 0, 0, 0, -12 -12" transform="rotate(-90,296,296)"/><rect x="290" y="302" width="12" height="12" transform="rotate(0,296,308)"/><rect x="290" y="314" width="12" height="12" transform="rotate(0,296,320)"/><rect x="290" y="326" width="12" height="12" transform="rotate(0,296,332)"/><rect x="290" y="338" width="12" height="12" transform="rotate(0,296,344)"/><path d="M 290 350v 12h 12a 12 12, 0, 0, 0, -12 -12" transform="rotate(90,296,356)"/><path d="M 302 98v 12h 6a 6 6, 0, 0, 0, 0 -12" transform="rotate(-90,308,104)"/><rect x="302" y="110" width="12" height="12" transform="rotate(0,308,116)"/><path d="M 302 122v 12h 12a 12 12, 0, 0, 0, -12 -12" transform="rotate(90,308,128)"/><rect x="302" y="182" width="12" height="12" transform="rotate(0,308,188)"/><circle cx="308" cy="224" r="6" transform="rotate(0,308,224)"/><path d="M 302 242v 12h 6a 6 6, 0, 0, 0, 0 -12" transform="rotate(180,308,248)"/><circle cx="308" cy="272" r="6" transform="rotate(0,308,272)"/><rect x="302" y="290" width="12" height="12" transform="rotate(0,308,296)"/><rect x="302" y="338" width="12" height="12" transform="rotate(0,308,344)"/><path d="M 302 374v 12h 12a 12 12, 0, 0, 0, -12 -12" transform="rotate(-90,308,380)"/><path d="M 302 386v 12h 6a 6 6, 0, 0, 0, 0 -12" transform="rotate(90,308,392)"/><path d="M 314 134v 12h 6a 6 6, 0, 0, 0, 0 -12" transform="rotate(-90,320,140)"/><rect x="314" y="146" width="12" height="12" transform="rotate(0,320,152)"/><rect x="314" y="158" width="12" height="12" transform="rotate(0,320,164)"/><rect x="314" y="170" width="12" height="12" transform="rotate(0,320,176)"/><path d="M 314 182v 12h 12a 12 12, 0, 0, 0, -12 -12" transform="rotate(90,320,188)"/><path d="M 314 242v 12h 12a 12 12, 0, 0, 0, -12 -12" transform="rotate(0,320,248)"/><path d="M 314 254v 12h 6a 6 6, 0, 0, 0, 0 -12" transform="rotate(90,320,260)"/><path d="M 314 278v 12h 12a 12 12, 0, 0, 0, -12 -12" transform="rotate(-90,320,284)"/><rect x="314" y="290" width="12" height="12" transform="rotate(0,320,296)"/><circle cx="320" cy="320" r="6" transform="rotate(0,320,320)"/><rect x="314" y="338" width="12" height="12" transform="rotate(0,320,344)"/><path d="M 314 362v 12h 12a 12 12, 0, 0, 0, -12 -12" transform="rotate(-90,320,368)"/><rect x="314" y="374" width="12" height="12" transform="rotate(0,320,380)"/><circle cx="332" cy="104" r="6" transform="rotate(0,332,104)"/><circle cx="332" cy="128" r="6" transform="rotate(0,332,128)"/><rect x="326" y="146" width="12" height="12" transform="rotate(0,332,152)"/><path d="M 326 170v 12h 6a 6 6, 0, 0, 0, 0 -12" transform="rotate(0,332,176)"/><path d="M 326 206v 12h 12a 12 12, 0, 0, 0, -12 -12" transform="rotate(-90,332,212)"/><rect x="326" y="218" width="12" height="12" transform="rotate(0,332,224)"/><path d="M 326 230v 12h 12a 12 12, 0, 0, 0, -12 -12" transform="rotate(180,332,236)"/><path d="M 326 278v 12h 12a 12 12, 0, 0, 0, -12 -12" transform="rotate(0,332,284)"/><rect x="326" y="290" width="12" height="12" transform="rotate(0,332,296)"/><rect x="326" y="338" width="12" height="12" transform="rotate(0,332,344)"/><rect x="326" y="350" width="12" height="12" transform="rotate(0,332,356)"/><rect x="326" y="362" width="12" height="12" transform="rotate(0,332,368)"/><rect x="326" y="374" width="12" height="12" transform="rotate(0,332,380)"/><path d="M 338 134v 12h 6a 6 6, 0, 0, 0, 0 -12" transform="rotate(-90,344,140)"/><rect x="338" y="146" width="12" height="12" transform="rotate(0,344,152)"/><path d="M 338 158v 12h 12a 12 12, 0, 0, 0, -12 -12" transform="rotate(180,344,164)"/><rect x="338" y="206" width="12" height="12" transform="rotate(0,344,212)"/><rect x="338" y="218" width="12" height="12" transform="rotate(0,344,224)"/><rect x="338" y="230" width="12" height="12" transform="rotate(0,344,236)"/><rect x="338" y="242" width="12" height="12" transform="rotate(0,344,248)"/><path d="M 338 254v 12h 12a 12 12, 0, 0, 0, -12 -12" transform="rotate(180,344,260)"/><rect x="338" y="290" width="12" height="12" transform="rotate(0,344,296)"/><rect x="338" y="302" width="12" height="12" transform="rotate(0,344,308)"/><rect x="338" y="314" width="12" height="12" transform="rotate(0,344,320)"/><rect x="338" y="326" width="12" height="12" transform="rotate(0,344,332)"/><rect x="338" y="338" width="12" height="12" transform="rotate(0,344,344)"/><rect x="338" y="374" width="12" height="12" transform="rotate(0,344,380)"/><path d="M 338 386v 12h 6a 6 6, 0, 0, 0, 0 -12" transform="rotate(90,344,392)"/><circle cx="356" cy="128" r="6" transform="rotate(0,356,128)"/><path d="M 350 146v 12h 12a 12 12, 0, 0, 0, -12 -12" transform="rotate(0,356,152)"/><rect x="350" y="158" width="12" height="12" transform="rotate(0,356,164)"/><rect x="350" y="170" width="12" height="12" transform="rotate(0,356,176)"/><path d="M 350 182v 12h 6a 6 6, 0, 0, 0, 0 -12" transform="rotate(90,356,188)"/><path d="M 350 206v 12h 12a 12 12, 0, 0, 0, -12 -12" transform="rotate(0,356,212)"/><rect x="350" y="218" width="12" height="12" transform="rotate(0,356,224)"/><rect x="350" y="230" width="12" height="12" transform="rotate(0,356,236)"/><rect x="350" y="242" width="12" height="12" transform="rotate(0,356,248)"/><rect x="350" y="254" width="12" height="12" transform="rotate(0,356,260)"/><rect x="350" y="266" width="12" height="12" transform="rotate(0,356,272)"/><rect x="350" y="278" width="12" height="12" transform="rotate(0,356,284)"/><rect x="350" y="290" width="12" height="12" transform="rotate(0,356,296)"/><path d="M 350 302v 12h 12a 12 12, 0, 0, 0, -12 -12" transform="rotate(90,356,308)"/><path d="M 350 326v 12h 12a 12 12, 0, 0, 0, -12 -12" transform="rotate(0,356,332)"/><rect x="350" y="338" width="12" height="12" transform="rotate(0,356,344)"/><rect x="350" y="350" width="12" height="12" transform="rotate(0,356,356)"/><rect x="350" y="362" width="12" height="12" transform="rotate(0,356,368)"/><rect x="350" y="374" width="12" height="12" transform="rotate(0,356,380)"/><path d="M 362 230v 12h 12a 12 12, 0, 0, 0, -12 -12" transform="rotate(0,368,236)"/><rect x="362" y="242" width="12" height="12" transform="rotate(0,368,248)"/><rect x="362" y="254" width="12" height="12" transform="rotate(0,368,260)"/><path d="M 362 266v 12h 12a 12 12, 0, 0, 0, -12 -12" transform="rotate(90,368,272)"/><path d="M 362 290v 12h 6a 6 6, 0, 0, 0, 0 -12" transform="rotate(0,368,296)"/><path d="M 362 338v 12h 6a 6 6, 0, 0, 0, 0 -12" transform="rotate(0,368,344)"/><rect x="362" y="362" width="12" height="12" transform="rotate(0,368,368)"/><rect x="362" y="374" width="12" height="12" transform="rotate(0,368,380)"/><path d="M 362 386v 12h 6a 6 6, 0, 0, 0, 0 -12" transform="rotate(90,368,392)"/><path d="M 374 110v 12h 6a 6 6, 0, 0, 0, 0 -12" transform="rotate(-90,380,116)"/><rect x="374" y="122" width="12" height="12" transform="rotate(0,380,128)"/><rect x="374" y="134" width="12" height="12" transform="rotate(0,380,140)"/><path d="M 374 146v 12h 12a 12 12, 0, 0, 0, -12 -12" transform="rotate(180,380,152)"/><path d="M 374 206v 12h 6a 6 6, 0, 0, 0, 0 -12" transform="rotate(180,380,212)"/><circle cx="380" cy="320" r="6" transform="rotate(0,380,320)"/><path d="M 374 350v 12h 6a 6 6, 0, 0, 0, 0 -12" transform="rotate(-90,380,356)"/><path d="M 374 362v 12h 12a 12 12, 0, 0, 0, -12 -12" transform="rotate(90,380,368)"/><path d="M 386 146v 12h 12a 12 12, 0, 0, 0, -12 -12" transform="rotate(0,392,152)"/><path d="M 386 158v 12h 6a 6 6, 0, 0, 0, 0 -12" transform="rotate(90,392,164)"/><path d="M 386 194v 12h 6a 6 6, 0, 0, 0, 0 -12" transform="rotate(-90,392,200)"/><path d="M 386 206v 12h 12a 12 12, 0, 0, 0, -12 -12" transform="rotate(90,392,212)"/><circle cx="392" cy="236" r="6" transform="rotate(0,392,236)"/><circle cx="392" cy="260" r="6" transform="rotate(0,392,260)"/><circle cx="392" cy="296" r="6" transform="rotate(0,392,296)"/><circle cx="392" cy="380" r="6" transform="rotate(0,392,380)"/></clipPath><clipPath id="clip-path-corners-square-color-0-0"><path clip-rule="evenodd" d="M 2 32v 24a 30 30, 0, 0, 0, 30 30h 24a 30 30, 0, 0, 0, 30 -30v -24a 30 30, 0, 0, 0, -30 -30h -24a 30 30, 0, 0, 0, -30 30M 32 14h 24a 18 18, 0, 0, 1, 18 18v 24a 18 18, 0, 0, 1, -18 18h -24a 18 18, 0, 0, 1, -18 -18v -24a 18 18, 0, 0, 1, 18 -18" transform="rotate(0,44,44)"/><path d="M 26 26v 12h 12a 12 12, 0, 0, 0, -12 -12" transform="rotate(-90,32,32)"/><rect x="26" y="38" width="12" height="12" transform="rotate(0,32,44)"/><path d="M 26 50v 12h 12a 12 12, 0, 0, 0, -12 -12" transform="rotate(180,32,56)"/><rect x="38" y="26" width="12" height="12" transform="rotate(0,44,32)"/><rect x="38" y="38" width="12" height="12" transform="rotate(0,44,44)"/><rect x="38" y="50" width="12" height="12" transform="rotate(0,44,56)"/><path d="M 50 26v 12h 12a 12 12, 0, 0, 0, -12 -12" transform="rotate(0,56,32)"/><rect x="50" y="38" width="12" height="12" transform="rotate(0,56,44)"/><path d="M 50 50v 12h 12a 12 12, 0, 0, 0, -12 -12" transform="rotate(90,56,56)"/></clipPath><clipPath id="clip-path-corners-square-color-1-0"><path clip-rule="evenodd" d="M 314 32v 24a 30 30, 0, 0, 0, 30 30h 24a 30 30, 0, 0, 0, 30 -30v -24a 30 30, 0, 0, 0, -30 -30h -24a 30 30, 0, 0, 0, -30 30M 344 14h 24a 18 18, 0, 0, 1, 18 18v 24a 18 18, 0, 0, 1, -18 18h -24a 18 18, 0, 0, 1, -18 -18v -24a 18 18, 0, 0, 1, 18 -18" transform="rotate(90,356,44)"/><path d="M 338 26v 12h 12a 12 12, 0, 0, 0, -12 -12" transform="rotate(-90,344,32)"/><rect x="338" y="38" width="12" height="12" transform="rotate(0,344,44)"/><path d="M 338 50v 12h 12a 12 12, 0, 0, 0, -12 -12" transform="rotate(180,344,56)"/><rect x="350" y="26" width="12" height="12" transform="rotate(0,356,32)"/><rect x="350" y="38" width="12" height="12" transform="rotate(0,356,44)"/><rect x="350" y="50" width="12" height="12" transform="rotate(0,356,56)"/><path d="M 362 26v 12h 12a 12 12, 0, 0, 0, -12 -12" transform="rotate(0,368,32)"/><rect x="362" y="38" width="12" height="12" transform="rotate(0,368,44)"/><path d="M 362 50v 12h 12a 12 12, 0, 0, 0, -12 -12" transform="rotate(90,368,56)"/></clipPath><clipPath id="clip-path-corners-square-color-0-1"><path clip-rule="evenodd" d="M 2 344v 24a 30 30, 0, 0, 0, 30 30h 24a 30 30, 0, 0, 0, 30 -30v -24a 30 30, 0, 0, 0, -30 -30h -24a 30 30, 0, 0, 0, -30 30M 32 326h 24a 18 18, 0, 0, 1, 18 18v 24a 18 18, 0, 0, 1, -18 18h -24a 18 18, 0, 0, 1, -18 -18v -24a 18 18, 0, 0, 1, 18 -18" transform="rotate(-90,44,356)"/><path d="M 26 338v 12h 12a 12 12, 0, 0, 0, -12 -12" transform="rotate(-90,32,344)"/><rect x="26" y="350" width="12" height="12" transform="rotate(0,32,356)"/><path d="M 26 362v 12h 12a 12 12, 0, 0, 0, -12 -12" transform="rotate(180,32,368)"/><rect x="38" y="338" width="12" height="12" transform="rotate(0,44,344)"/><rect x="38" y="350" width="12" height="12" transform="rotate(0,44,356)"/><rect x="38" y="362" width="12" height="12" transform="rotate(0,44,368)"/><path d="M 50 338v 12h 12a 12 12, 0, 0, 0, -12 -12" transform="rotate(0,56,344)"/><rect x="50" y="350" width="12" height="12" transform="rotate(0,56,356)"/><path d="M 50 362v 12h 12a 12 12, 0, 0, 0, -12 -12" transform="rotate(90,56,368)"/></clipPath></defs><rect x="0" y="0" height="400" width="400" clip-path="url('#clip-path-background-color')" fill="rgba(0,0,0,0)"/><rect x="2" y="2" height="396" width="396" clip-path="url('#clip-path-dot-color')" fill="#000000"/><rect x="2" y="2" height="84" width="84" clip-path="url('#clip-path-corners-square-color-0-0')" fill="#000000"/><rect x="314" y="2" height="84" width="84" clip-path="url('#clip-path-corners-square-color-1-0')" fill="#000000"/><rect x="2" y="314" height="84" width="84" clip-path="url('#clip-path-corners-square-color-0-1')" fill="#000000"/></svg>