<svg width="2475" height="2475" xmlns="http://www.w3.org/2000/svg" xmlns:xlink="http://www.w3.org/1999/xlink" xml:space="preserve" overflow="hidden"><g transform="translate(-962 0)"><g><path d="M2200.49 2.8381 2200.49 1236.84 965.491 1236.84 971.862 1110.68C1035.12 488.417 1561.05 2.8381 2200.49 2.8381Z" fill="#1B2A41" fill-rule="evenodd" fill-opacity="1"/><path d="M2200.49 2.83808C2882.57 2.83808 3435.49 555.766 3435.49 1237.84 3435.49 1919.91 2882.57 2472.84 2200.49 2472.84 1518.42 2472.84 965.491 1919.91 965.491 1237.84L965.491 1237.84 2200.49 1237.84 2200.49 2.83808Z" fill="#CC0000" fill-rule="evenodd" fill-opacity="1"/><path d="M1665.5 571.838 1673.24 370.838 1716.75 370.838 1724.5 571.838Z" fill="#FFFDF9" fill-rule="evenodd" fill-opacity="1"/><path d="M0.159948 201.207 7.90957 0.206054 51.4101 0.206054 59.1601 201.207Z" fill="#FFFDF9" fill-rule="evenodd" fill-opacity="1" transform="matrix(1 0 0 -1 1666 1098)"/><path d="M1531.49 762.84 1330.49 755.091 1330.49 711.589 1531.49 703.84Z" fill="#FFFDF9" fill-rule="evenodd" fill-opacity="1"/><path d="M0.219573 203.146 7.96925 0.145376 51.4704 0.145376 59.2201 203.146Z" fill="#FFFDF9" fill-rule="evenodd" fill-opacity="1" transform="matrix(-1.83697e-16 -1 -1 1.83697e-16 2060 763)"/><path d="M1750.49 577.499 1857.99 406.838 1895.49 428.471 1801.34 606.838Z" fill="#FFFDF9" fill-rule="evenodd" fill-opacity="1"/><path d="M0.131365 201.683 7.83317 0.197769 51.0652 0.197769 58.767 201.683Z" fill="#FFFDF9" fill-rule="evenodd" fill-opacity="1" transform="matrix(0.866025 0.5 0.5 -0.866025 1487.96 1033.82)"/><path d="M1540.15 676.838 1369.49 569.331 1391.12 531.838 1569.49 625.983Z" fill="#FFFDF9" fill-rule="evenodd" fill-opacity="1"/><path d="M0.21437 201.66 7.91581 0.175394 51.1482 0.175394 58.8496 201.66Z" fill="#FFFDF9" fill-rule="evenodd" fill-opacity="1" transform="matrix(0.5 -0.866025 -0.866025 -0.5 1996.11 939.745)"/><path d="M1820.49 626.984 1998.86 532.838 2020.49 570.332 1849.83 677.838Z" fill="#FFFDF9" fill-rule="evenodd" fill-opacity="1"/><path d="M0.10935 201.66 7.81115 0.175755 51.0432 0.175755 58.745 201.66Z" fill="#FFFDF9" fill-rule="evenodd" fill-opacity="1" transform="matrix(0.5 0.866025 0.866025 -0.5 1365.55 889.885)"/><path d="M1588.99 606.838 1495.49 428.471 1532.73 406.838 1639.49 577.497Z" fill="#FFFDF9" fill-rule="evenodd" fill-opacity="1"/><path d="M0.192356 201.682 7.8938 0.197769 51.1262 0.197769 58.8276 201.682Z" fill="#FFFDF9" fill-rule="evenodd" fill-opacity="1" transform="matrix(0.866025 -0.5 -0.5 -0.866025 1852.62 1062.61)"/><path d="M1475.49 742.838C1475.49 621.335 1573.76 522.838 1694.99 522.838 1816.22 522.838 1914.49 621.335 1914.49 742.838 1914.49 864.341 1816.22 962.838 1694.99 962.838 1573.76 962.838 1475.49 864.341 1475.49 742.838Z" fill="#1B2A41" fill-rule="evenodd" fill-opacity="1"/><path d="M1516.49 742.838C1516.49 643.98 1596.41 563.838 1694.99 563.838 1793.57 563.838 1873.49 643.98 1873.49 742.838 1873.49 841.698 1793.57 921.838 1694.99 921.838 1596.41 921.838 1516.49 841.698 1516.49 742.838Z" fill="#FFFDF9" fill-rule="evenodd" fill-opacity="1"/></g></g></svg>