<?xml version="1.0" encoding="UTF-8"?>
<!DOCTYPE svg PUBLIC "-//W3C//DTD SVG 1.1//EN" "http://www.w3.org/Graphics/SVG/1.1/DTD/svg11.dtd">
<svg xmlns="http://www.w3.org/2000/svg" style="background: transparent; background-color: transparent; color-scheme: light;" xmlns:xlink="http://www.w3.org/1999/xlink" version="1.1" width="287px" height="286px" viewBox="0 0 287 286"><defs/><g><g data-cell-id="0"><g data-cell-id="1"><g data-cell-id="-00GvN_1nFZ_L1758JNO-49"><g transform="translate(0.5,0.5)"><rect x="25" y="25" width="236" height="236" fill="none" stroke="#cc0000" stroke-width="50" pointer-events="all" style="stroke: rgb(204, 0, 0);"/></g></g></g><g data-cell-id="-00GvN_1nFZ_L1758JNO-3"><g data-cell-id="-00GvN_1nFZ_L1758JNO-50"><g/><g data-cell-id="-00GvN_1nFZ_L1758JNO-4"><g transform="translate(0.5,0.5)"><path d="M 151.5 136 L 152.5 117.5 Q 153.5 99 152.5 79.5 L 151.5 60" fill="none" stroke="#cc0000" stroke-width="5" stroke-linecap="round" stroke-miterlimit="10" pointer-events="stroke" style="stroke: rgb(204, 0, 0);"/></g></g><g data-cell-id="-00GvN_1nFZ_L1758JNO-6"><g transform="translate(0.5,0.5)"><path d="M 176.5 136 L 177.22 110 Q 177.5 100 168.97 94.79 L 164.23 91.89 Q 159.5 89 159.5 79 L 159.5 60" fill="none" stroke="#cc0000" stroke-width="5" stroke-linecap="round" stroke-miterlimit="10" pointer-events="stroke" style="stroke: rgb(204, 0, 0);"/></g></g><g data-cell-id="-00GvN_1nFZ_L1758JNO-7"><g transform="translate(0.5,0.5)"><path d="M 160.5 136 L 159.78 110 Q 159.5 100 168.03 94.79 L 177.5 89" fill="none" stroke="#cc0000" stroke-width="5" stroke-linecap="round" stroke-miterlimit="10" pointer-events="stroke" style="stroke: rgb(204, 0, 0);"/></g></g><g data-cell-id="-00GvN_1nFZ_L1758JNO-8"><g transform="translate(0.5,0.5)"><path d="M 185.5 136 L 184.5 117.5 Q 183.5 99 184.5 79.5 L 185.5 60" fill="none" stroke="#cc0000" stroke-width="5" stroke-linecap="round" stroke-miterlimit="10" pointer-events="stroke" style="stroke: rgb(204, 0, 0);"/></g></g><g data-cell-id="-00GvN_1nFZ_L1758JNO-9"><g transform="translate(0.5,0.5)"><path d="M 161.5 77 L 169 77 Q 176.5 77 176.5 68.5 L 176.5 60" fill="none" stroke="#cc0000" stroke-width="5" stroke-linecap="round" stroke-miterlimit="10" pointer-events="stroke" style="stroke: rgb(204, 0, 0);"/></g></g><g data-cell-id="-00GvN_1nFZ_L1758JNO-10"><g transform="translate(0.5,0.5)"><path d="M 226.5 68 L 226.5 79 Q 226.5 89 216.5 89 L 202.5 89 Q 192.5 89 192.5 79 L 192.5 69.5 Q 192.5 60 202.5 60 L 216.5 60 Q 226.5 60 226.5 69.5 L 226.5 79" fill="none" stroke="#cc0000" stroke-width="5" stroke-linecap="round" stroke-miterlimit="10" pointer-events="stroke" style="stroke: rgb(204, 0, 0);"/></g></g><g data-cell-id="-00GvN_1nFZ_L1758JNO-11"><g transform="translate(0.5,0.5)"><path d="M 193.5 70 L 224.5 70" fill="none" stroke="#cc0000" stroke-width="5" stroke-linecap="round" stroke-miterlimit="10" pointer-events="stroke" style="stroke: rgb(204, 0, 0);"/></g></g><g data-cell-id="-00GvN_1nFZ_L1758JNO-12"><g transform="translate(0.5,0.5)"><path d="M 193.5 79 L 224.5 79" fill="none" stroke="#cc0000" stroke-width="5" stroke-linecap="round" stroke-miterlimit="10" pointer-events="stroke" style="stroke: rgb(204, 0, 0);"/></g></g><g data-cell-id="-00GvN_1nFZ_L1758JNO-13"><g transform="translate(0.5,0.5)"><path d="M 192.5 136 L 193.5 126.5 Q 194.5 117 193.5 107.5 L 193 102.75 Q 192.5 98 201 98 L 205.25 98 Q 209.5 98 209.5 93.5 L 209.5 89" fill="none" stroke="#cc0000" stroke-width="5" stroke-linecap="round" stroke-miterlimit="10" pointer-events="stroke" style="stroke: rgb(204, 0, 0);"/></g></g><g data-cell-id="-00GvN_1nFZ_L1758JNO-14"><g transform="translate(0.5,0.5)"><path d="M 206.5 98 L 221.5 98 Q 226.5 98 226.5 103 L 226.5 107.5 Q 226.5 112 221.5 112 L 213.5 112 Q 208.5 112 208.5 117 L 208.5 120 Q 208.5 123 212.63 125.82 L 227.5 136" fill="none" stroke="#cc0000" stroke-width="5" stroke-linecap="round" stroke-miterlimit="10" pointer-events="stroke" style="stroke: rgb(204, 0, 0);"/></g></g><g data-cell-id="-00GvN_1nFZ_L1758JNO-20"><g transform="translate(0.5,0.5)"><path d="M 168.5 226 L 168.5 150" fill="none" stroke="#cc0000" stroke-width="5" stroke-linecap="round" stroke-miterlimit="10" pointer-events="stroke" style="stroke: rgb(204, 0, 0);"/></g></g><g data-cell-id="-00GvN_1nFZ_L1758JNO-21"><g transform="translate(0.5,0.5)"><path d="M 174.5 151 L 179.5 151 Q 184.5 151 184.5 156 L 184.5 162 Q 184.5 167 179.5 167 L 173.5 167 Q 168.5 167 163.5 167 L 157.5 167 Q 152.5 167 152.5 162 L 152.5 156 Q 152.5 151 157.5 151 L 162.5 151" fill="none" stroke="#cc0000" stroke-width="5" stroke-linecap="round" stroke-miterlimit="10" pointer-events="stroke" style="stroke: rgb(204, 0, 0);"/></g></g><g data-cell-id="-00GvN_1nFZ_L1758JNO-23"><g transform="translate(0.5,0.5)"><path d="M 175.5 189 L 180 189 Q 184.5 189 184.5 184 L 184.5 179.5 Q 184.5 175 179.5 175 L 173.5 175 Q 168.5 175 163.5 175 L 157.5 175 Q 152.5 175 152.5 180 L 152.5 184.5 Q 152.5 189 157 189 L 161.5 189" fill="none" stroke="#cc0000" stroke-width="5" stroke-linecap="round" stroke-miterlimit="10" pointer-events="stroke" style="stroke: rgb(204, 0, 0);"/></g></g><g data-cell-id="-00GvN_1nFZ_L1758JNO-24"><g transform="translate(0.5,0.5)"><path d="M 151.5 198 L 151.5 221.5 Q 151.5 224 154 224 L 159 224 Q 161.5 224 161.5 221.5 L 161.5 189" fill="none" stroke="#cc0000" stroke-width="5" stroke-linecap="round" stroke-miterlimit="10" pointer-events="stroke" style="stroke: rgb(204, 0, 0);"/></g></g><g data-cell-id="-00GvN_1nFZ_L1758JNO-25"><g transform="translate(0.5,0.5)"><path d="M 185.5 198 L 185.5 221.5 Q 185.5 224 183 224 L 178 224 Q 175.5 224 175.5 221.5 L 175.5 189" fill="none" stroke="#cc0000" stroke-width="5" stroke-linecap="round" stroke-miterlimit="10" pointer-events="stroke" style="stroke: rgb(204, 0, 0);"/></g></g><g data-cell-id="-00GvN_1nFZ_L1758JNO-26"><g transform="translate(0.5,0.5)"><path d="M 226.5 160 L 226.5 215 Q 226.5 225 216.5 225 L 202.5 225 Q 192.5 225 192.5 215 L 192.5 160 Q 192.5 150 202.5 150 L 216.5 150 Q 226.5 150 226.5 160 L 226.5 170" fill="none" stroke="#cc0000" stroke-width="5" stroke-linecap="round" stroke-miterlimit="10" pointer-events="stroke" style="stroke: rgb(204, 0, 0);"/></g></g><g data-cell-id="-00GvN_1nFZ_L1758JNO-27"><g transform="translate(0.5,0.5)"><path d="M 194.5 174 L 225.5 174" fill="none" stroke="#cc0000" stroke-width="5" stroke-linecap="round" stroke-miterlimit="10" pointer-events="stroke" style="stroke: rgb(204, 0, 0);"/></g></g><g data-cell-id="-00GvN_1nFZ_L1758JNO-28"><g transform="translate(0.5,0.5)"><path d="M 194.5 198 L 225.5 198" fill="none" stroke="#cc0000" stroke-width="5" stroke-linecap="round" stroke-miterlimit="10" pointer-events="stroke" style="stroke: rgb(204, 0, 0);"/></g></g><g data-cell-id="-00GvN_1nFZ_L1758JNO-29"><g transform="translate(0.5,0.5)"><path d="M 60.5 136 L 64 133 Q 67.5 130 71.89 132.39 L 75.19 134.2 Q 78.5 136 78.5 131 L 78.5 65 Q 78.5 60 83.5 60 L 88.5 60" fill="none" stroke="#cc0000" stroke-width="5" stroke-linecap="round" stroke-miterlimit="10" pointer-events="stroke" style="stroke: rgb(204, 0, 0);"/></g></g><g data-cell-id="-00GvN_1nFZ_L1758JNO-30"><g transform="translate(0.5,0.5)"><path d="M 94.5 61 L 94.5 75 Q 94.5 80 89.5 80 L 83.5 80 Q 78.5 80 73.5 80 L 66.5 80 Q 61.5 80 61.5 75 L 61.5 62" fill="none" stroke="#cc0000" stroke-width="5" stroke-linecap="round" stroke-miterlimit="10" pointer-events="stroke" style="stroke: rgb(204, 0, 0);"/></g></g><g data-cell-id="-00GvN_1nFZ_L1758JNO-31"><g transform="translate(0.5,0.5)"><path d="M 94.5 91 L 94.5 106 Q 94.5 111 89.51 110.69 L 83.49 110.31 Q 78.5 110 73.51 110.29 L 66.49 110.71 Q 61.5 111 61.5 106 L 61.5 92" fill="none" stroke="#cc0000" stroke-width="5" stroke-linecap="round" stroke-miterlimit="10" pointer-events="stroke" style="stroke: rgb(204, 0, 0);"/></g></g><g data-cell-id="-00GvN_1nFZ_L1758JNO-32"><g transform="translate(0.5,0.5)"><path d="M 136.5 61 L 136.5 75 Q 136.5 80 131.5 80 L 125.5 80 Q 120.5 80 115.5 80 L 107.5 80 Q 102.5 80 102.5 75 L 102.5 61" fill="none" stroke="#cc0000" stroke-width="5" stroke-linecap="round" stroke-miterlimit="10" pointer-events="stroke" style="stroke: rgb(204, 0, 0);"/></g></g><g data-cell-id="-00GvN_1nFZ_L1758JNO-33"><g transform="translate(0.5,0.5)"><path d="M 136.5 136 L 135.76 121.99 Q 135.5 117 135.76 112.01 L 136.24 102.99 Q 136.5 98 131.5 98 L 125.5 98 Q 120.5 98 115.5 98 L 107.5 98 Q 102.5 98 102.76 102.99 L 103.24 112.01 Q 103.5 117 103.24 121.99 L 102.5 136" fill="none" stroke="#cc0000" stroke-width="5" stroke-linecap="round" stroke-miterlimit="10" pointer-events="stroke" style="stroke: rgb(204, 0, 0);"/></g></g><g data-cell-id="-00GvN_1nFZ_L1758JNO-34"><g transform="translate(0.5,0.5)"><path d="M 128.5 134 L 127.77 123.74 Q 127.5 120 127.79 116.26 L 128.21 110.74 Q 128.5 107 124.75 107 L 114.25 107 Q 110.5 107 110.77 110.74 L 111.23 117.26 Q 111.5 121 111.21 124.74 L 110.5 134" fill="none" stroke="#cc0000" stroke-width="5" stroke-linecap="round" stroke-miterlimit="10" pointer-events="stroke" style="stroke: rgb(204, 0, 0);"/></g></g><g data-cell-id="-00GvN_1nFZ_L1758JNO-35"><g transform="translate(0.5,0.5)"><path d="M 136.5 88 L 102.5 88" fill="none" stroke="#cc0000" stroke-width="5" stroke-linecap="round" stroke-miterlimit="10" pointer-events="stroke" style="stroke: rgb(204, 0, 0);"/></g></g><g data-cell-id="-00GvN_1nFZ_L1758JNO-36"><g transform="translate(0.5,0.5)"><path d="M 119.5 107 L 119.5 88" fill="none" stroke="#cc0000" stroke-width="5" stroke-linecap="round" stroke-miterlimit="10" pointer-events="stroke" style="stroke: rgb(204, 0, 0);"/></g></g><g data-cell-id="-00GvN_1nFZ_L1758JNO-37"><g transform="translate(0.5,0.5)"><path d="M 119.5 69 L 119.5 60" fill="none" stroke="#cc0000" stroke-width="5" stroke-linecap="round" stroke-miterlimit="10" pointer-events="stroke" style="stroke: rgb(204, 0, 0);"/></g></g><g data-cell-id="-00GvN_1nFZ_L1758JNO-38"><g transform="translate(0.5,0.5)"><path d="M 108.5 79 L 115.96 71.54 Q 119.5 68 123.19 71.38 L 131.5 79" fill="none" stroke="#cc0000" stroke-width="5" stroke-linecap="round" stroke-miterlimit="10" pointer-events="stroke" style="stroke: rgb(204, 0, 0);"/></g></g><g data-cell-id="-00GvN_1nFZ_L1758JNO-40"><g transform="translate(0.5,0.5)"><path d="M 99.5 225 L 71 225 Q 58.5 225 61.76 212.93 L 65.24 200.07 Q 68.5 188 66.24 175.71 L 61.5 150" fill="none" stroke="#cc0000" stroke-width="5" stroke-linecap="round" stroke-miterlimit="10" pointer-events="stroke" style="stroke: rgb(204, 0, 0);"/></g></g><g data-cell-id="-00GvN_1nFZ_L1758JNO-41"><g transform="translate(0.5,0.5)"><path d="M 92.5 167 L 65.5 167" fill="none" stroke="#cc0000" stroke-width="5" stroke-linecap="round" stroke-miterlimit="10" pointer-events="stroke" style="stroke: rgb(204, 0, 0);"/></g></g><g data-cell-id="-00GvN_1nFZ_L1758JNO-42"><g transform="translate(0.5,0.5)"><path d="M 98.5 201 L 66.5 201" fill="none" stroke="#cc0000" stroke-width="5" stroke-linecap="round" stroke-miterlimit="10" pointer-events="stroke" style="stroke: rgb(204, 0, 0);"/></g></g><g data-cell-id="-00GvN_1nFZ_L1758JNO-43"><g transform="translate(0.5,0.5)"><path d="M 105.5 167 L 130.5 167 Q 135.5 167 135.5 162 L 135.5 155 Q 135.5 150 130.5 150 L 99.5 150" fill="none" stroke="#cc0000" stroke-width="5" stroke-linecap="round" stroke-miterlimit="10" pointer-events="stroke" style="stroke: rgb(204, 0, 0);"/></g></g><g data-cell-id="-00GvN_1nFZ_L1758JNO-44"><g transform="translate(0.5,0.5)"><path d="M 129.5 167 L 104.5 167 Q 99.5 167 99.5 172 L 99.5 179 Q 99.5 184 104.5 184 L 119.5 184" fill="none" stroke="#cc0000" stroke-width="5" stroke-linecap="round" stroke-miterlimit="10" pointer-events="stroke" style="stroke: rgb(204, 0, 0);"/></g></g><g data-cell-id="-00GvN_1nFZ_L1758JNO-45"><g transform="translate(0.5,0.5)"><path d="M 137.5 225 Q 126.5 214 133.5 198.5 Q 140.5 183 116.5 184" fill="none" stroke="#cc0000" stroke-width="5" stroke-linecap="round" stroke-miterlimit="10" pointer-events="stroke" style="stroke: rgb(204, 0, 0);"/></g></g><g data-cell-id="-00GvN_1nFZ_L1758JNO-46"><g transform="translate(0.5,0.5)"><path d="M 115.5 167 L 115.5 151" fill="none" stroke="#cc0000" stroke-width="5" stroke-linecap="round" stroke-miterlimit="10" pointer-events="stroke" style="stroke: rgb(204, 0, 0);"/></g></g></g></g></g></g></svg>