<?xml version="1.0" standalone="no"?>
<svg xmlns="http://www.w3.org/2000/svg" width="400" height="400"><defs><clipPath id="clip-path-dot-color"><circle cx="20" cy="110" r="5" transform="rotate(0,20,110)"/><path d="M 15 165v 10h 5a 5 5, 0, 0, 0, 0 -10" transform="rotate(-90,20,170)"/><rect x="15" y="175" width="10" height="10" transform="rotate(0,20,180)"/><rect x="15" y="185" width="10" height="10" transform="rotate(0,20,190)"/><rect x="15" y="195" width="10" height="10" transform="rotate(0,20,200)"/><path d="M 15 205v 10h 10a 10 10, 0, 0, 0, -10 -10" transform="rotate(180,20,210)"/><circle cx="20" cy="260" r="5" transform="rotate(0,20,260)"/><circle cx="20" cy="280" r="5" transform="rotate(0,20,280)"/><path d="M 25 95v 10h 5a 5 5, 0, 0, 0, 0 -10" transform="rotate(180,30,100)"/><path d="M 25 115v 10h 10a 10 10, 0, 0, 0, -10 -10" transform="rotate(-90,30,120)"/><path d="M 25 125v 10h 5a 5 5, 0, 0, 0, 0 -10" transform="rotate(90,30,130)"/><rect x="25" y="185" width="10" height="10" transform="rotate(0,30,190)"/><rect x="25" y="195" width="10" height="10" transform="rotate(0,30,200)"/><rect x="25" y="205" width="10" height="10" transform="rotate(0,30,210)"/><path d="M 25 215v 10h 10a 10 10, 0, 0, 0, -10 -10" transform="rotate(180,30,220)"/><circle cx="30" cy="240" r="5" transform="rotate(0,30,240)"/><path d="M 25 265v 10h 5a 5 5, 0, 0, 0, 0 -10" transform="rotate(180,30,270)"/><circle cx="30" cy="300" r="5" transform="rotate(0,30,300)"/><rect x="35" y="95" width="10" height="10" transform="rotate(0,40,100)"/><rect x="35" y="115" width="10" height="10" transform="rotate(0,40,120)"/><path d="M 35 145v 10h 5a 5 5, 0, 0, 0, 0 -10" transform="rotate(180,40,150)"/><path d="M 35 165v 10h 5a 5 5, 0, 0, 0, 0 -10" transform="rotate(-90,40,170)"/><rect x="35" y="175" width="10" height="10" transform="rotate(0,40,180)"/><path d="M 35 185v 10h 10a 10 10, 0, 0, 0, -10 -10" transform="rotate(90,40,190)"/><path d="M 35 215v 10h 5a 5 5, 0, 0, 0, 0 -10" transform="rotate(0,40,220)"/><path d="M 35 255v 10h 5a 5 5, 0, 0, 0, 0 -10" transform="rotate(-90,40,260)"/><rect x="35" y="265" width="10" height="10" transform="rotate(0,40,270)"/><rect x="45" y="95" width="10" height="10" transform="rotate(0,50,100)"/><rect x="45" y="115" width="10" height="10" transform="rotate(0,50,120)"/><rect x="45" y="125" width="10" height="10" transform="rotate(0,50,130)"/><rect x="45" y="135" width="10" height="10" transform="rotate(0,50,140)"/><rect x="45" y="145" width="10" height="10" transform="rotate(0,50,150)"/><path d="M 45 155v 10h 5a 5 5, 0, 0, 0, 0 -10" transform="rotate(90,50,160)"/><path d="M 45 195v 10h 5a 5 5, 0, 0, 0, 0 -10" transform="rotate(-90,50,200)"/><path d="M 45 205v 10h 5a 5 5, 0, 0, 0, 0 -10" transform="rotate(90,50,210)"/><path d="M 45 265v 10h 5a 5 5, 0, 0, 0, 0 -10" transform="rotate(0,50,270)"/><circle cx="50" cy="290" r="5" transform="rotate(0,50,290)"/><rect x="55" y="95" width="10" height="10" transform="rotate(0,60,100)"/><rect x="55" y="105" width="10" height="10" transform="rotate(0,60,110)"/><path d="M 55 115v 10h 10a 10 10, 0, 0, 0, -10 -10" transform="rotate(90,60,120)"/><rect x="55" y="135" width="10" height="10" transform="rotate(0,60,140)"/><path d="M 55 145v 10h 10a 10 10, 0, 0, 0, -10 -10" transform="rotate(90,60,150)"/><path d="M 55 185v 10h 5a 5 5, 0, 0, 0, 0 -10" transform="rotate(180,60,190)"/><path d="M 55 225v 10h 10a 10 10, 0, 0, 0, -10 -10" transform="rotate(-90,60,230)"/><rect x="55" y="235" width="10" height="10" transform="rotate(0,60,240)"/><rect x="55" y="245" width="10" height="10" transform="rotate(0,60,250)"/><path d="M 55 255v 10h 10a 10 10, 0, 0, 0, -10 -10" transform="rotate(180,60,260)"/><path d="M 55 275v 10h 5a 5 5, 0, 0, 0, 0 -10" transform="rotate(180,60,280)"/><path d="M 55 295v 10h 5a 5 5, 0, 0, 0, 0 -10" transform="rotate(180,60,300)"/><rect x="65" y="95" width="10" height="10" transform="rotate(0,70,100)"/><path d="M 65 105v 10h 10a 10 10, 0, 0, 0, -10 -10" transform="rotate(90,70,110)"/><path d="M 65 125v 10h 5a 5 5, 0, 0, 0, 0 -10" transform="rotate(-90,70,130)"/><rect x="65" y="135" width="10" height="10" transform="rotate(0,70,140)"/><circle cx="70" cy="170" r="5" transform="rotate(0,70,170)"/><path d="M 65 185v 10h 5a 5 5, 0, 0, 0, 0 -10" transform="rotate(0,70,190)"/><path d="M 65 205v 10h 5a 5 5, 0, 0, 0, 0 -10" transform="rotate(-90,70,210)"/><rect x="65" y="215" width="10" height="10" transform="rotate(0,70,220)"/><rect x="65" y="225" width="10" height="10" transform="rotate(0,70,230)"/><rect x="65" y="235" width="10" height="10" transform="rotate(0,70,240)"/><rect x="65" y="255" width="10" height="10" transform="rotate(0,70,260)"/><rect x="65" y="265" width="10" height="10" transform="rotate(0,70,270)"/><rect x="65" y="275" width="10" height="10" transform="rotate(0,70,280)"/><rect x="65" y="295" width="10" height="10" transform="rotate(0,70,300)"/><path d="M 75 95v 10h 5a 5 5, 0, 0, 0, 0 -10" transform="rotate(0,80,100)"/><path d="M 75 115v 10h 5a 5 5, 0, 0, 0, 0 -10" transform="rotate(180,80,120)"/><rect x="75" y="135" width="10" height="10" transform="rotate(0,80,140)"/><path d="M 75 155v 10h 5a 5 5, 0, 0, 0, 0 -10" transform="rotate(180,80,160)"/><path d="M 75 175v 10h 5a 5 5, 0, 0, 0, 0 -10" transform="rotate(180,80,180)"/><circle cx="80" cy="200" r="5" transform="rotate(0,80,200)"/><rect x="75" y="215" width="10" height="10" transform="rotate(0,80,220)"/><rect x="75" y="235" width="10" height="10" transform="rotate(0,80,240)"/><path d="M 75 255v 10h 5a 5 5, 0, 0, 0, 0 -10" transform="rotate(0,80,260)"/><rect x="75" y="275" width="10" height="10" transform="rotate(0,80,280)"/><rect x="75" y="295" width="10" height="10" transform="rotate(0,80,300)"/><path d="M 85 115v 10h 5a 5 5, 0, 0, 0, 0 -10" transform="rotate(0,90,120)"/><rect x="85" y="135" width="10" height="10" transform="rotate(0,90,140)"/><rect x="85" y="145" width="10" height="10" transform="rotate(0,90,150)"/><rect x="85" y="155" width="10" height="10" transform="rotate(0,90,160)"/><rect x="85" y="165" width="10" height="10" transform="rotate(0,90,170)"/><rect x="85" y="175" width="10" height="10" transform="rotate(0,90,180)"/><path d="M 85 185v 10h 10a 10 10, 0, 0, 0, -10 -10" transform="rotate(180,90,190)"/><path d="M 85 205v 10h 5a 5 5, 0, 0, 0, 0 -10" transform="rotate(-90,90,210)"/><rect x="85" y="215" width="10" height="10" transform="rotate(0,90,220)"/><rect x="85" y="225" width="10" height="10" transform="rotate(0,90,230)"/><path d="M 85 235v 10h 10a 10 10, 0, 0, 0, -10 -10" transform="rotate(90,90,240)"/><rect x="85" y="275" width="10" height="10" transform="rotate(0,90,280)"/><rect x="85" y="285" width="10" height="10" transform="rotate(0,90,290)"/><rect x="85" y="295" width="10" height="10" transform="rotate(0,90,300)"/><circle cx="100" cy="40" r="5" transform="rotate(0,100,40)"/><path d="M 95 65v 10h 5a 5 5, 0, 0, 0, 0 -10" transform="rotate(-90,100,70)"/><rect x="95" y="75" width="10" height="10" transform="rotate(0,100,80)"/><rect x="95" y="85" width="10" height="10" transform="rotate(0,100,90)"/><rect x="95" y="95" width="10" height="10" transform="rotate(0,100,100)"/><path d="M 95 105v 10h 10a 10 10, 0, 0, 0, -10 -10" transform="rotate(180,100,110)"/><rect x="95" y="135" width="10" height="10" transform="rotate(0,100,140)"/><rect x="95" y="145" width="10" height="10" transform="rotate(0,100,150)"/><rect x="95" y="155" width="10" height="10" transform="rotate(0,100,160)"/><rect x="95" y="175" width="10" height="10" transform="rotate(0,100,180)"/><path d="M 95 185v 10h 10a 10 10, 0, 0, 0, -10 -10" transform="rotate(90,100,190)"/><path d="M 95 265v 10h 10a 10 10, 0, 0, 0, -10 -10" transform="rotate(-90,100,270)"/><path d="M 95 275v 10h 10a 10 10, 0, 0, 0, -10 -10" transform="rotate(90,100,280)"/><path d="M 95 295v 10h 10a 10 10, 0, 0, 0, -10 -10" transform="rotate(0,100,300)"/><path d="M 95 305v 10h 5a 5 5, 0, 0, 0, 0 -10" transform="rotate(90,100,310)"/><path d="M 95 325v 10h 10a 10 10, 0, 0, 0, -10 -10" transform="rotate(-90,100,330)"/><rect x="95" y="335" width="10" height="10" transform="rotate(0,100,340)"/><rect x="95" y="345" width="10" height="10" transform="rotate(0,100,350)"/><rect x="95" y="355" width="10" height="10" transform="rotate(0,100,360)"/><path d="M 95 365v 10h 5a 5 5, 0, 0, 0, 0 -10" transform="rotate(90,100,370)"/><circle cx="110" cy="30" r="5" transform="rotate(0,110,30)"/><path d="M 105 45v 10h 10a 10 10, 0, 0, 0, -10 -10" transform="rotate(-90,110,50)"/><path d="M 105 55v 10h 10a 10 10, 0, 0, 0, -10 -10" transform="rotate(180,110,60)"/><rect x="105" y="95" width="10" height="10" transform="rotate(0,110,100)"/><rect x="105" y="105" width="10" height="10" transform="rotate(0,110,110)"/><path d="M 105 115v 10h 5a 5 5, 0, 0, 0, 0 -10" transform="rotate(90,110,120)"/><rect x="105" y="135" width="10" height="10" transform="rotate(0,110,140)"/><path d="M 105 155v 10h 5a 5 5, 0, 0, 0, 0 -10" transform="rotate(0,110,160)"/><rect x="105" y="175" width="10" height="10" transform="rotate(0,110,180)"/><path d="M 105 215v 10h 5a 5 5, 0, 0, 0, 0 -10" transform="rotate(-90,110,220)"/><rect x="105" y="225" width="10" height="10" transform="rotate(0,110,230)"/><path d="M 105 235v 10h 10a 10 10, 0, 0, 0, -10 -10" transform="rotate(180,110,240)"/><path d="M 105 265v 10h 5a 5 5, 0, 0, 0, 0 -10" transform="rotate(0,110,270)"/><path d="M 105 285v 10h 5a 5 5, 0, 0, 0, 0 -10" transform="rotate(180,110,290)"/><path d="M 105 315v 10h 10a 10 10, 0, 0, 0, -10 -10" transform="rotate(-90,110,320)"/><rect x="105" y="325" width="10" height="10" transform="rotate(0,110,330)"/><path d="M 105 375v 10h 5a 5 5, 0, 0, 0, 0 -10" transform="rotate(180,110,380)"/><rect x="115" y="45" width="10" height="10" transform="rotate(0,120,50)"/><rect x="115" y="55" width="10" height="10" transform="rotate(0,120,60)"/><circle cx="120" cy="80" r="5" transform="rotate(0,120,80)"/><rect x="115" y="95" width="10" height="10" transform="rotate(0,120,100)"/><rect x="115" y="105" width="10" height="10" transform="rotate(0,120,110)"/><rect x="115" y="135" width="10" height="10" transform="rotate(0,120,140)"/><path d="M 115 145v 10h 10a 10 10, 0, 0, 0, -10 -10" transform="rotate(180,120,150)"/><rect x="115" y="175" width="10" height="10" transform="rotate(0,120,180)"/><circle cx="120" cy="200" r="5" transform="rotate(0,120,200)"/><rect x="115" y="235" width="10" height="10" transform="rotate(0,120,240)"/><rect x="115" y="285" width="10" height="10" transform="rotate(0,120,290)"/><path d="M 115 305v 10h 5a 5 5, 0, 0, 0, 0 -10" transform="rotate(-90,120,310)"/><rect x="115" y="315" width="10" height="10" transform="rotate(0,120,320)"/><rect x="115" y="325" width="10" height="10" transform="rotate(0,120,330)"/><rect x="115" y="335" width="10" height="10" transform="rotate(0,120,340)"/><rect x="115" y="345" width="10" height="10" transform="rotate(0,120,350)"/><path d="M 115 355v 10h 5a 5 5, 0, 0, 0, 0 -10" transform="rotate(90,120,360)"/><path d="M 115 375v 10h 5a 5 5, 0, 0, 0, 0 -10" transform="rotate(0,120,380)"/><path d="M 125 15v 10h 10a 10 10, 0, 0, 0, -10 -10" transform="rotate(-90,130,20)"/><rect x="125" y="25" width="10" height="10" transform="rotate(0,130,30)"/><rect x="125" y="35" width="10" height="10" transform="rotate(0,130,40)"/><rect x="125" y="45" width="10" height="10" transform="rotate(0,130,50)"/><path d="M 125 55v 10h 10a 10 10, 0, 0, 0, -10 -10" transform="rotate(90,130,60)"/><path d="M 125 85v 10h 10a 10 10, 0, 0, 0, -10 -10" transform="rotate(-90,130,90)"/><rect x="125" y="95" width="10" height="10" transform="rotate(0,130,100)"/><rect x="125" y="105" width="10" height="10" transform="rotate(0,130,110)"/><path d="M 125 115v 10h 5a 5 5, 0, 0, 0, 0 -10" transform="rotate(90,130,120)"/><rect x="125" y="135" width="10" height="10" transform="rotate(0,130,140)"/><rect x="125" y="145" width="10" height="10" transform="rotate(0,130,150)"/><path d="M 125 175v 10h 5a 5 5, 0, 0, 0, 0 -10" transform="rotate(0,130,180)"/><path d="M 125 215v 10h 10a 10 10, 0, 0, 0, -10 -10" transform="rotate(-90,130,220)"/><rect x="125" y="225" width="10" height="10" transform="rotate(0,130,230)"/><rect x="125" y="235" width="10" height="10" transform="rotate(0,130,240)"/><path d="M 125 245v 10h 5a 5 5, 0, 0, 0, 0 -10" transform="rotate(90,130,250)"/><path d="M 125 275v 10h 5a 5 5, 0, 0, 0, 0 -10" transform="rotate(-90,130,280)"/><path d="M 125 285v 10h 10a 10 10, 0, 0, 0, -10 -10" transform="rotate(90,130,290)"/><path d="M 125 325v 10h 5a 5 5, 0, 0, 0, 0 -10" transform="rotate(0,130,330)"/><path d="M 125 345v 10h 5a 5 5, 0, 0, 0, 0 -10" transform="rotate(0,130,350)"/><circle cx="130" cy="370" r="5" transform="rotate(0,130,370)"/><rect x="135" y="15" width="10" height="10" transform="rotate(0,140,20)"/><rect x="135" y="35" width="10" height="10" transform="rotate(0,140,40)"/><path d="M 135 75v 10h 5a 5 5, 0, 0, 0, 0 -10" transform="rotate(-90,140,80)"/><rect x="135" y="85" width="10" height="10" transform="rotate(0,140,90)"/><path d="M 135 95v 10h 10a 10 10, 0, 0, 0, -10 -10" transform="rotate(90,140,100)"/><path d="M 135 125v 10h 5a 5 5, 0, 0, 0, 0 -10" transform="rotate(-90,140,130)"/><rect x="135" y="135" width="10" height="10" transform="rotate(0,140,140)"/><rect x="135" y="145" width="10" height="10" transform="rotate(0,140,150)"/><path d="M 135 155v 10h 5a 5 5, 0, 0, 0, 0 -10" transform="rotate(90,140,160)"/><path d="M 135 195v 10h 5a 5 5, 0, 0, 0, 0 -10" transform="rotate(-90,140,200)"/><rect x="135" y="205" width="10" height="10" transform="rotate(0,140,210)"/><path d="M 135 215v 10h 10a 10 10, 0, 0, 0, -10 -10" transform="rotate(90,140,220)"/><path d="M 135 295v 10h 5a 5 5, 0, 0, 0, 0 -10" transform="rotate(180,140,300)"/><path d="M 135 315v 10h 5a 5 5, 0, 0, 0, 0 -10" transform="rotate(180,140,320)"/><path d="M 135 375v 10h 5a 5 5, 0, 0, 0, 0 -10" transform="rotate(180,140,380)"/><rect x="145" y="15" width="10" height="10" transform="rotate(0,150,20)"/><rect x="145" y="35" width="10" height="10" transform="rotate(0,150,40)"/><rect x="145" y="45" width="10" height="10" transform="rotate(0,150,50)"/><path d="M 145 55v 10h 5a 5 5, 0, 0, 0, 0 -10" transform="rotate(90,150,60)"/><rect x="145" y="135" width="10" height="10" transform="rotate(0,150,140)"/><circle cx="150" cy="230" r="5" transform="rotate(0,150,230)"/><path d="M 145 245v 10h 10a 10 10, 0, 0, 0, -10 -10" transform="rotate(-90,150,250)"/><rect x="145" y="255" width="10" height="10" transform="rotate(0,150,260)"/><rect x="145" y="265" width="10" height="10" transform="rotate(0,150,270)"/><rect x="145" y="275" width="10" height="10" transform="rotate(0,150,280)"/><rect x="145" y="285" width="10" height="10" transform="rotate(0,150,290)"/><rect x="145" y="295" width="10" height="10" transform="rotate(0,150,300)"/><rect x="145" y="305" width="10" height="10" transform="rotate(0,150,310)"/><rect x="145" y="315" width="10" height="10" transform="rotate(0,150,320)"/><path d="M 145 325v 10h 10a 10 10, 0, 0, 0, -10 -10" transform="rotate(180,150,330)"/><path d="M 145 355v 10h 5a 5 5, 0, 0, 0, 0 -10" transform="rotate(180,150,360)"/><rect x="145" y="375" width="10" height="10" transform="rotate(0,150,380)"/><path d="M 155 15v 10h 10a 10 10, 0, 0, 0, -10 -10" transform="rotate(0,160,20)"/><rect x="155" y="25" width="10" height="10" transform="rotate(0,160,30)"/><rect x="155" y="35" width="10" height="10" transform="rotate(0,160,40)"/><rect x="155" y="45" width="10" height="10" transform="rotate(0,160,50)"/><path d="M 155 65v 10h 5a 5 5, 0, 0, 0, 0 -10" transform="rotate(-90,160,70)"/><rect x="155" y="75" width="10" height="10" transform="rotate(0,160,80)"/><path d="M 155 85v 10h 5a 5 5, 0, 0, 0, 0 -10" transform="rotate(90,160,90)"/><path d="M 155 105v 10h 5a 5 5, 0, 0, 0, 0 -10" transform="rotate(180,160,110)"/><path d="M 155 125v 10h 10a 10 10, 0, 0, 0, -10 -10" transform="rotate(-90,160,130)"/><path d="M 155 135v 10h 10a 10 10, 0, 0, 0, -10 -10" transform="rotate(90,160,140)"/><path d="M 155 175v 10h 10a 10 10, 0, 0, 0, -10 -10" transform="rotate(-90,160,180)"/><path d="M 155 185v 10h 10a 10 10, 0, 0, 0, -10 -10" transform="rotate(180,160,190)"/><path d="M 155 205v 10h 5a 5 5, 0, 0, 0, 0 -10" transform="rotate(180,160,210)"/><rect x="155" y="245" width="10" height="10" transform="rotate(0,160,250)"/><path d="M 155 265v 10h 10a 10 10, 0, 0, 0, -10 -10" transform="rotate(0,160,270)"/><rect x="155" y="275" width="10" height="10" transform="rotate(0,160,280)"/><path d="M 155 285v 10h 10a 10 10, 0, 0, 0, -10 -10" transform="rotate(90,160,290)"/><rect x="155" y="325" width="10" height="10" transform="rotate(0,160,330)"/><rect x="155" y="335" width="10" height="10" transform="rotate(0,160,340)"/><rect x="155" y="345" width="10" height="10" transform="rotate(0,160,350)"/><path d="M 155 355v 10h 10a 10 10, 0, 0, 0, -10 -10" transform="rotate(90,160,360)"/><path d="M 155 375v 10h 5a 5 5, 0, 0, 0, 0 -10" transform="rotate(0,160,380)"/><path d="M 165 25v 10h 10a 10 10, 0, 0, 0, -10 -10" transform="rotate(0,170,30)"/><rect x="165" y="35" width="10" height="10" transform="rotate(0,170,40)"/><rect x="165" y="45" width="10" height="10" transform="rotate(0,170,50)"/><path d="M 165 55v 10h 5a 5 5, 0, 0, 0, 0 -10" transform="rotate(90,170,60)"/><path d="M 165 95v 10h 10a 10 10, 0, 0, 0, -10 -10" transform="rotate(-90,170,100)"/><rect x="165" y="105" width="10" height="10" transform="rotate(0,170,110)"/><rect x="165" y="115" width="10" height="10" transform="rotate(0,170,120)"/><path d="M 165 125v 10h 10a 10 10, 0, 0, 0, -10 -10" transform="rotate(90,170,130)"/><circle cx="170" cy="160" r="5" transform="rotate(0,170,160)"/><rect x="165" y="175" width="10" height="10" transform="rotate(0,170,180)"/><rect x="165" y="185" width="10" height="10" transform="rotate(0,170,190)"/><rect x="165" y="195" width="10" height="10" transform="rotate(0,170,200)"/><path d="M 165 205v 10h 10a 10 10, 0, 0, 0, -10 -10" transform="rotate(90,170,210)"/><path d="M 165 225v 10h 5a 5 5, 0, 0, 0, 0 -10" transform="rotate(-90,170,230)"/><rect x="165" y="235" width="10" height="10" transform="rotate(0,170,240)"/><rect x="165" y="245" width="10" height="10" transform="rotate(0,170,250)"/><path d="M 165 255v 10h 5a 5 5, 0, 0, 0, 0 -10" transform="rotate(90,170,260)"/><path d="M 165 295v 10h 5a 5 5, 0, 0, 0, 0 -10" transform="rotate(180,170,300)"/><rect x="165" y="325" width="10" height="10" transform="rotate(0,170,330)"/><path d="M 165 345v 10h 5a 5 5, 0, 0, 0, 0 -10" transform="rotate(0,170,350)"/><path d="M 165 365v 10h 5a 5 5, 0, 0, 0, 0 -10" transform="rotate(180,170,370)"/><path d="M 175 45v 10h 5a 5 5, 0, 0, 0, 0 -10" transform="rotate(0,180,50)"/><path d="M 175 65v 10h 10a 10 10, 0, 0, 0, -10 -10" transform="rotate(-90,180,70)"/><path d="M 175 75v 10h 5a 5 5, 0, 0, 0, 0 -10" transform="rotate(90,180,80)"/><path d="M 175 95v 10h 5a 5 5, 0, 0, 0, 0 -10" transform="rotate(0,180,100)"/><rect x="175" y="175" width="10" height="10" transform="rotate(0,180,180)"/><path d="M 175 195v 10h 5a 5 5, 0, 0, 0, 0 -10" transform="rotate(0,180,200)"/><rect x="175" y="235" width="10" height="10" transform="rotate(0,180,240)"/><path d="M 175 285v 10h 10a 10 10, 0, 0, 0, -10 -10" transform="rotate(-90,180,290)"/><path d="M 175 295v 10h 10a 10 10, 0, 0, 0, -10 -10" transform="rotate(90,180,300)"/><path d="M 175 315v 10h 10a 10 10, 0, 0, 0, -10 -10" transform="rotate(-90,180,320)"/><rect x="175" y="325" width="10" height="10" transform="rotate(0,180,330)"/><path d="M 175 365v 10h 10a 10 10, 0, 0, 0, -10 -10" transform="rotate(0,180,370)"/><path d="M 175 375v 10h 10a 10 10, 0, 0, 0, -10 -10" transform="rotate(180,180,380)"/><circle cx="190" cy="30" r="5" transform="rotate(0,190,30)"/><path d="M 185 55v 10h 10a 10 10, 0, 0, 0, -10 -10" transform="rotate(-90,190,60)"/><path d="M 185 65v 10h 10a 10 10, 0, 0, 0, -10 -10" transform="rotate(90,190,70)"/><circle cx="190" cy="90" r="5" transform="rotate(0,190,90)"/><path d="M 185 115v 10h 5a 5 5, 0, 0, 0, 0 -10" transform="rotate(180,190,120)"/><path d="M 185 175v 10h 5a 5 5, 0, 0, 0, 0 -10" transform="rotate(0,190,180)"/><path d="M 185 205v 10h 5a 5 5, 0, 0, 0, 0 -10" transform="rotate(180,190,210)"/><path d="M 185 225v 10h 5a 5 5, 0, 0, 0, 0 -10" transform="rotate(-90,190,230)"/><rect x="185" y="235" width="10" height="10" transform="rotate(0,190,240)"/><path d="M 185 245v 10h 10a 10 10, 0, 0, 0, -10 -10" transform="rotate(180,190,250)"/><circle cx="190" cy="270" r="5" transform="rotate(0,190,270)"/><rect x="185" y="285" width="10" height="10" transform="rotate(0,190,290)"/><rect x="185" y="315" width="10" height="10" transform="rotate(0,190,320)"/><rect x="185" y="325" width="10" height="10" transform="rotate(0,190,330)"/><circle cx="190" cy="360" r="5" transform="rotate(0,190,360)"/><rect x="185" y="375" width="10" height="10" transform="rotate(0,190,380)"/><circle cx="200" cy="40" r="5" transform="rotate(0,200,40)"/><path d="M 195 55v 10h 5a 5 5, 0, 0, 0, 0 -10" transform="rotate(0,200,60)"/><circle cx="200" cy="80" r="5" transform="rotate(0,200,80)"/><path d="M 195 95v 10h 5a 5 5, 0, 0, 0, 0 -10" transform="rotate(-90,200,100)"/><rect x="195" y="105" width="10" height="10" transform="rotate(0,200,110)"/><rect x="195" y="115" width="10" height="10" transform="rotate(0,200,120)"/><path d="M 195 125v 10h 10a 10 10, 0, 0, 0, -10 -10" transform="rotate(180,200,130)"/><circle cx="200" cy="170" r="5" transform="rotate(0,200,170)"/><path d="M 195 185v 10h 10a 10 10, 0, 0, 0, -10 -10" transform="rotate(-90,200,190)"/><rect x="195" y="195" width="10" height="10" transform="rotate(0,200,200)"/><rect x="195" y="205" width="10" height="10" transform="rotate(0,200,210)"/><path d="M 195 215v 10h 10a 10 10, 0, 0, 0, -10 -10" transform="rotate(180,200,220)"/><rect x="195" y="235" width="10" height="10" transform="rotate(0,200,240)"/><rect x="195" y="245" width="10" height="10" transform="rotate(0,200,250)"/><path d="M 195 255v 10h 10a 10 10, 0, 0, 0, -10 -10" transform="rotate(180,200,260)"/><path d="M 195 285v 10h 10a 10 10, 0, 0, 0, -10 -10" transform="rotate(0,200,290)"/><rect x="195" y="295" width="10" height="10" transform="rotate(0,200,300)"/><rect x="195" y="305" width="10" height="10" transform="rotate(0,200,310)"/><rect x="195" y="315" width="10" height="10" transform="rotate(0,200,320)"/><rect x="195" y="325" width="10" height="10" transform="rotate(0,200,330)"/><path d="M 195 375v 10h 5a 5 5, 0, 0, 0, 0 -10" transform="rotate(0,200,380)"/><circle cx="210" cy="20" r="5" transform="rotate(0,210,20)"/><path d="M 205 45v 10h 5a 5 5, 0, 0, 0, 0 -10" transform="rotate(180,210,50)"/><circle cx="210" cy="70" r="5" transform="rotate(0,210,70)"/><path d="M 205 85v 10h 5a 5 5, 0, 0, 0, 0 -10" transform="rotate(180,210,90)"/><path d="M 205 105v 10h 5a 5 5, 0, 0, 0, 0 -10" transform="rotate(0,210,110)"/><path d="M 205 125v 10h 5a 5 5, 0, 0, 0, 0 -10" transform="rotate(0,210,130)"/><circle cx="210" cy="160" r="5" transform="rotate(0,210,160)"/><rect x="205" y="185" width="10" height="10" transform="rotate(0,210,190)"/><rect x="205" y="195" width="10" height="10" transform="rotate(0,210,200)"/><path d="M 205 215v 10h 10a 10 10, 0, 0, 0, -10 -10" transform="rotate(0,210,220)"/><rect x="205" y="225" width="10" height="10" transform="rotate(0,210,230)"/><rect x="205" y="235" width="10" height="10" transform="rotate(0,210,240)"/><rect x="205" y="245" width="10" height="10" transform="rotate(0,210,250)"/><path d="M 205 255v 10h 10a 10 10, 0, 0, 0, -10 -10" transform="rotate(90,210,260)"/><circle cx="210" cy="280" r="5" transform="rotate(0,210,280)"/><rect x="205" y="295" width="10" height="10" transform="rotate(0,210,300)"/><rect x="205" y="305" width="10" height="10" transform="rotate(0,210,310)"/><rect x="205" y="315" width="10" height="10" transform="rotate(0,210,320)"/><rect x="205" y="325" width="10" height="10" transform="rotate(0,210,330)"/><rect x="205" y="335" width="10" height="10" transform="rotate(0,210,340)"/><path d="M 205 345v 10h 10a 10 10, 0, 0, 0, -10 -10" transform="rotate(180,210,350)"/><path d="M 205 365v 10h 5a 5 5, 0, 0, 0, 0 -10" transform="rotate(180,210,370)"/><path d="M 215 25v 10h 5a 5 5, 0, 0, 0, 0 -10" transform="rotate(180,220,30)"/><path d="M 215 45v 10h 10a 10 10, 0, 0, 0, -10 -10" transform="rotate(0,220,50)"/><path d="M 215 55v 10h 10a 10 10, 0, 0, 0, -10 -10" transform="rotate(180,220,60)"/><path d="M 215 75v 10h 5a 5 5, 0, 0, 0, 0 -10" transform="rotate(-90,220,80)"/><path d="M 215 85v 10h 10a 10 10, 0, 0, 0, -10 -10" transform="rotate(90,220,90)"/><path d="M 215 135v 10h 10a 10 10, 0, 0, 0, -10 -10" transform="rotate(-90,220,140)"/><path d="M 215 145v 10h 10a 10 10, 0, 0, 0, -10 -10" transform="rotate(180,220,150)"/><path d="M 215 165v 10h 5a 5 5, 0, 0, 0, 0 -10" transform="rotate(180,220,170)"/><path d="M 215 185v 10h 10a 10 10, 0, 0, 0, -10 -10" transform="rotate(0,220,190)"/><rect x="215" y="195" width="10" height="10" transform="rotate(0,220,200)"/><path d="M 215 235v 10h 5a 5 5, 0, 0, 0, 0 -10" transform="rotate(0,220,240)"/><path d="M 215 295v 10h 5a 5 5, 0, 0, 0, 0 -10" transform="rotate(0,220,300)"/><rect x="215" y="315" width="10" height="10" transform="rotate(0,220,320)"/><path d="M 215 345v 10h 5a 5 5, 0, 0, 0, 0 -10" transform="rotate(0,220,350)"/><rect x="215" y="365" width="10" height="10" transform="rotate(0,220,370)"/><path d="M 225 15v 10h 5a 5 5, 0, 0, 0, 0 -10" transform="rotate(-90,230,20)"/><rect x="225" y="25" width="10" height="10" transform="rotate(0,230,30)"/><path d="M 225 35v 10h 10a 10 10, 0, 0, 0, -10 -10" transform="rotate(180,230,40)"/><path d="M 225 55v 10h 5a 5 5, 0, 0, 0, 0 -10" transform="rotate(0,230,60)"/><path d="M 225 125v 10h 5a 5 5, 0, 0, 0, 0 -10" transform="rotate(-90,230,130)"/><rect x="225" y="135" width="10" height="10" transform="rotate(0,230,140)"/><rect x="225" y="145" width="10" height="10" transform="rotate(0,230,150)"/><rect x="225" y="155" width="10" height="10" transform="rotate(0,230,160)"/><rect x="225" y="165" width="10" height="10" transform="rotate(0,230,170)"/><path d="M 225 175v 10h 10a 10 10, 0, 0, 0, -10 -10" transform="rotate(180,230,180)"/><path d="M 225 195v 10h 5a 5 5, 0, 0, 0, 0 -10" transform="rotate(0,230,200)"/><path d="M 225 225v 10h 5a 5 5, 0, 0, 0, 0 -10" transform="rotate(180,230,230)"/><path d="M 225 255v 10h 5a 5 5, 0, 0, 0, 0 -10" transform="rotate(-90,230,260)"/><rect x="225" y="265" width="10" height="10" transform="rotate(0,230,270)"/><rect x="225" y="275" width="10" height="10" transform="rotate(0,230,280)"/><path d="M 225 285v 10h 10a 10 10, 0, 0, 0, -10 -10" transform="rotate(180,230,290)"/><rect x="225" y="315" width="10" height="10" transform="rotate(0,230,320)"/><path d="M 225 325v 10h 10a 10 10, 0, 0, 0, -10 -10" transform="rotate(180,230,330)"/><path d="M 225 365v 10h 10a 10 10, 0, 0, 0, -10 -10" transform="rotate(0,230,370)"/><path d="M 225 375v 10h 10a 10 10, 0, 0, 0, -10 -10" transform="rotate(180,230,380)"/><path d="M 235 35v 10h 5a 5 5, 0, 0, 0, 0 -10" transform="rotate(0,240,40)"/><path d="M 235 65v 10h 10a 10 10, 0, 0, 0, -10 -10" transform="rotate(-90,240,70)"/><path d="M 235 75v 10h 5a 5 5, 0, 0, 0, 0 -10" transform="rotate(90,240,80)"/><circle cx="240" cy="100" r="5" transform="rotate(0,240,100)"/><path d="M 235 155v 10h 5a 5 5, 0, 0, 0, 0 -10" transform="rotate(0,240,160)"/><rect x="235" y="175" width="10" height="10" transform="rotate(0,240,180)"/><path d="M 235 215v 10h 10a 10 10, 0, 0, 0, -10 -10" transform="rotate(-90,240,220)"/><path d="M 235 225v 10h 10a 10 10, 0, 0, 0, -10 -10" transform="rotate(90,240,230)"/><rect x="235" y="285" width="10" height="10" transform="rotate(0,240,290)"/><path d="M 235 295v 10h 5a 5 5, 0, 0, 0, 0 -10" transform="rotate(90,240,300)"/><path d="M 235 315v 10h 10a 10 10, 0, 0, 0, -10 -10" transform="rotate(0,240,320)"/><rect x="235" y="325" width="10" height="10" transform="rotate(0,240,330)"/><path d="M 235 335v 10h 5a 5 5, 0, 0, 0, 0 -10" transform="rotate(90,240,340)"/><circle cx="240" cy="360" r="5" transform="rotate(0,240,360)"/><rect x="235" y="375" width="10" height="10" transform="rotate(0,240,380)"/><path d="M 245 15v 10h 10a 10 10, 0, 0, 0, -10 -10" transform="rotate(-90,250,20)"/><path d="M 245 25v 10h 10a 10 10, 0, 0, 0, -10 -10" transform="rotate(180,250,30)"/><circle cx="250" cy="50" r="5" transform="rotate(0,250,50)"/><path d="M 245 65v 10h 5a 5 5, 0, 0, 0, 0 -10" transform="rotate(0,250,70)"/><circle cx="250" cy="90" r="5" transform="rotate(0,250,90)"/><path d="M 245 105v 10h 5a 5 5, 0, 0, 0, 0 -10" transform="rotate(-90,250,110)"/><rect x="245" y="115" width="10" height="10" transform="rotate(0,250,120)"/><path d="M 245 125v 10h 10a 10 10, 0, 0, 0, -10 -10" transform="rotate(180,250,130)"/><path d="M 245 145v 10h 5a 5 5, 0, 0, 0, 0 -10" transform="rotate(180,250,150)"/><path d="M 245 165v 10h 5a 5 5, 0, 0, 0, 0 -10" transform="rotate(-90,250,170)"/><rect x="245" y="175" width="10" height="10" transform="rotate(0,250,180)"/><rect x="245" y="185" width="10" height="10" transform="rotate(0,250,190)"/><path d="M 245 195v 10h 5a 5 5, 0, 0, 0, 0 -10" transform="rotate(90,250,200)"/><rect x="245" y="215" width="10" height="10" transform="rotate(0,250,220)"/><path d="M 245 235v 10h 5a 5 5, 0, 0, 0, 0 -10" transform="rotate(180,250,240)"/><path d="M 245 265v 10h 5a 5 5, 0, 0, 0, 0 -10" transform="rotate(180,250,270)"/><path d="M 245 285v 10h 5a 5 5, 0, 0, 0, 0 -10" transform="rotate(0,250,290)"/><circle cx="250" cy="310" r="5" transform="rotate(0,250,310)"/><rect x="245" y="325" width="10" height="10" transform="rotate(0,250,330)"/><path d="M 245 345v 10h 5a 5 5, 0, 0, 0, 0 -10" transform="rotate(180,250,350)"/><path d="M 245 365v 10h 5a 5 5, 0, 0, 0, 0 -10" transform="rotate(-90,250,370)"/><path d="M 245 375v 10h 10a 10 10, 0, 0, 0, -10 -10" transform="rotate(90,250,380)"/><path d="M 255 15v 10h 10a 10 10, 0, 0, 0, -10 -10" transform="rotate(0,260,20)"/><path d="M 255 25v 10h 10a 10 10, 0, 0, 0, -10 -10" transform="rotate(90,260,30)"/><path d="M 255 55v 10h 5a 5 5, 0, 0, 0, 0 -10" transform="rotate(180,260,60)"/><circle cx="260" cy="80" r="5" transform="rotate(0,260,80)"/><path d="M 255 95v 10h 5a 5 5, 0, 0, 0, 0 -10" transform="rotate(180,260,100)"/><path d="M 255 125v 10h 5a 5 5, 0, 0, 0, 0 -10" transform="rotate(0,260,130)"/><rect x="255" y="145" width="10" height="10" transform="rotate(0,260,150)"/><rect x="255" y="175" width="10" height="10" transform="rotate(0,260,180)"/><path d="M 255 185v 10h 10a 10 10, 0, 0, 0, -10 -10" transform="rotate(90,260,190)"/><path d="M 255 205v 10h 5a 5 5, 0, 0, 0, 0 -10" transform="rotate(-90,260,210)"/><path d="M 255 215v 10h 10a 10 10, 0, 0, 0, -10 -10" transform="rotate(90,260,220)"/><rect x="255" y="235" width="10" height="10" transform="rotate(0,260,240)"/><rect x="255" y="245" width="10" height="10" transform="rotate(0,260,250)"/><rect x="255" y="255" width="10" height="10" transform="rotate(0,260,260)"/><rect x="255" y="265" width="10" height="10" transform="rotate(0,260,270)"/><path d="M 255 295v 10h 5a 5 5, 0, 0, 0, 0 -10" transform="rotate(180,260,300)"/><path d="M 255 315v 10h 10a 10 10, 0, 0, 0, -10 -10" transform="rotate(-90,260,320)"/><rect x="255" y="325" width="10" height="10" transform="rotate(0,260,330)"/><path d="M 255 345v 10h 5a 5 5, 0, 0, 0, 0 -10" transform="rotate(0,260,350)"/><path d="M 265 45v 10h 5a 5 5, 0, 0, 0, 0 -10" transform="rotate(-90,270,50)"/><path d="M 265 55v 10h 10a 10 10, 0, 0, 0, -10 -10" transform="rotate(90,270,60)"/><path d="M 265 95v 10h 10a 10 10, 0, 0, 0, -10 -10" transform="rotate(0,270,100)"/><path d="M 265 105v 10h 10a 10 10, 0, 0, 0, -10 -10" transform="rotate(180,270,110)"/><path d="M 265 135v 10h 10a 10 10, 0, 0, 0, -10 -10" transform="rotate(-90,270,140)"/><path d="M 265 145v 10h 10a 10 10, 0, 0, 0, -10 -10" transform="rotate(90,270,150)"/><path d="M 265 175v 10h 5a 5 5, 0, 0, 0, 0 -10" transform="rotate(0,270,180)"/><circle cx="270" cy="200" r="5" transform="rotate(0,270,200)"/><path d="M 265 235v 10h 5a 5 5, 0, 0, 0, 0 -10" transform="rotate(0,270,240)"/><rect x="265" y="255" width="10" height="10" transform="rotate(0,270,260)"/><path d="M 265 265v 10h 10a 10 10, 0, 0, 0, -10 -10" transform="rotate(90,270,270)"/><path d="M 265 285v 10h 10a 10 10, 0, 0, 0, -10 -10" transform="rotate(-90,270,290)"/><path d="M 265 295v 10h 10a 10 10, 0, 0, 0, -10 -10" transform="rotate(90,270,300)"/><rect x="265" y="315" width="10" height="10" transform="rotate(0,270,320)"/><path d="M 265 325v 10h 10a 10 10, 0, 0, 0, -10 -10" transform="rotate(90,270,330)"/><path d="M 265 375v 10h 5a 5 5, 0, 0, 0, 0 -10" transform="rotate(180,270,380)"/><path d="M 275 15v 10h 5a 5 5, 0, 0, 0, 0 -10" transform="rotate(-90,280,20)"/><rect x="275" y="25" width="10" height="10" transform="rotate(0,280,30)"/><path d="M 275 35v 10h 10a 10 10, 0, 0, 0, -10 -10" transform="rotate(180,280,40)"/><path d="M 275 75v 10h 5a 5 5, 0, 0, 0, 0 -10" transform="rotate(-90,280,80)"/><path d="M 275 85v 10h 10a 10 10, 0, 0, 0, -10 -10" transform="rotate(180,280,90)"/><path d="M 275 105v 10h 5a 5 5, 0, 0, 0, 0 -10" transform="rotate(0,280,110)"/><path d="M 275 135v 10h 5a 5 5, 0, 0, 0, 0 -10" transform="rotate(0,280,140)"/><path d="M 275 155v 10h 5a 5 5, 0, 0, 0, 0 -10" transform="rotate(-90,280,160)"/><path d="M 275 165v 10h 5a 5 5, 0, 0, 0, 0 -10" transform="rotate(90,280,170)"/><circle cx="280" cy="220" r="5" transform="rotate(0,280,220)"/><rect x="275" y="255" width="10" height="10" transform="rotate(0,280,260)"/><path d="M 275 275v 10h 5a 5 5, 0, 0, 0, 0 -10" transform="rotate(-90,280,280)"/><rect x="275" y="285" width="10" height="10" transform="rotate(0,280,290)"/><path d="M 275 305v 10h 10a 10 10, 0, 0, 0, -10 -10" transform="rotate(-90,280,310)"/><rect x="275" y="315" width="10" height="10" transform="rotate(0,280,320)"/><path d="M 275 375v 10h 5a 5 5, 0, 0, 0, 0 -10" transform="rotate(0,280,380)"/><path d="M 285 35v 10h 10a 10 10, 0, 0, 0, -10 -10" transform="rotate(0,290,40)"/><path d="M 285 45v 10h 10a 10 10, 0, 0, 0, -10 -10" transform="rotate(180,290,50)"/><path d="M 285 65v 10h 5a 5 5, 0, 0, 0, 0 -10" transform="rotate(180,290,70)"/><rect x="285" y="85" width="10" height="10" transform="rotate(0,290,90)"/><path d="M 285 95v 10h 10a 10 10, 0, 0, 0, -10 -10" transform="rotate(180,290,100)"/><path d="M 285 115v 10h 5a 5 5, 0, 0, 0, 0 -10" transform="rotate(-90,290,120)"/><path d="M 285 125v 10h 5a 5 5, 0, 0, 0, 0 -10" transform="rotate(90,290,130)"/><path d="M 285 175v 10h 10a 10 10, 0, 0, 0, -10 -10" transform="rotate(-90,290,180)"/><path d="M 285 185v 10h 10a 10 10, 0, 0, 0, -10 -10" transform="rotate(180,290,190)"/><path d="M 285 205v 10h 5a 5 5, 0, 0, 0, 0 -10" transform="rotate(180,290,210)"/><path d="M 285 245v 10h 5a 5 5, 0, 0, 0, 0 -10" transform="rotate(-90,290,250)"/><rect x="285" y="255" width="10" height="10" transform="rotate(0,290,260)"/><rect x="285" y="285" width="10" height="10" transform="rotate(0,290,290)"/><rect x="285" y="305" width="10" height="10" transform="rotate(0,290,310)"/><rect x="285" y="315" width="10" height="10" transform="rotate(0,290,320)"/><rect x="285" y="325" width="10" height="10" transform="rotate(0,290,330)"/><path d="M 285 335v 10h 10a 10 10, 0, 0, 0, -10 -10" transform="rotate(180,290,340)"/><path d="M 295 15v 10h 5a 5 5, 0, 0, 0, 0 -10" transform="rotate(-90,300,20)"/><path d="M 295 25v 10h 5a 5 5, 0, 0, 0, 0 -10" transform="rotate(90,300,30)"/><path d="M 295 45v 10h 5a 5 5, 0, 0, 0, 0 -10" transform="rotate(0,300,50)"/><path d="M 295 65v 10h 10a 10 10, 0, 0, 0, -10 -10" transform="rotate(0,300,70)"/><rect x="295" y="75" width="10" height="10" transform="rotate(0,300,80)"/><rect x="295" y="85" width="10" height="10" transform="rotate(0,300,90)"/><rect x="295" y="95" width="10" height="10" transform="rotate(0,300,100)"/><path d="M 295 155v 10h 5a 5 5, 0, 0, 0, 0 -10" transform="rotate(-90,300,160)"/><rect x="295" y="165" width="10" height="10" transform="rotate(0,300,170)"/><rect x="295" y="175" width="10" height="10" transform="rotate(0,300,180)"/><rect x="295" y="185" width="10" height="10" transform="rotate(0,300,190)"/><rect x="295" y="195" width="10" height="10" transform="rotate(0,300,200)"/><path d="M 295 205v 10h 10a 10 10, 0, 0, 0, -10 -10" transform="rotate(90,300,210)"/><circle cx="300" cy="230" r="5" transform="rotate(0,300,230)"/><rect x="295" y="255" width="10" height="10" transform="rotate(0,300,260)"/><path d="M 295 285v 10h 10a 10 10, 0, 0, 0, -10 -10" transform="rotate(0,300,290)"/><rect x="295" y="295" width="10" height="10" transform="rotate(0,300,300)"/><rect x="295" y="305" width="10" height="10" transform="rotate(0,300,310)"/><rect x="295" y="315" width="10" height="10" transform="rotate(0,300,320)"/><rect x="295" y="325" width="10" height="10" transform="rotate(0,300,330)"/><rect x="295" y="335" width="10" height="10" transform="rotate(0,300,340)"/><path d="M 295 345v 10h 10a 10 10, 0, 0, 0, -10 -10" transform="rotate(180,300,350)"/><path d="M 295 375v 10h 5a 5 5, 0, 0, 0, 0 -10" transform="rotate(180,300,380)"/><rect x="305" y="95" width="10" height="10" transform="rotate(0,310,100)"/><path d="M 305 115v 10h 5a 5 5, 0, 0, 0, 0 -10" transform="rotate(180,310,120)"/><path d="M 305 135v 10h 5a 5 5, 0, 0, 0, 0 -10" transform="rotate(180,310,140)"/><rect x="305" y="165" width="10" height="10" transform="rotate(0,310,170)"/><path d="M 305 175v 10h 10a 10 10, 0, 0, 0, -10 -10" transform="rotate(90,310,180)"/><path d="M 305 195v 10h 5a 5 5, 0, 0, 0, 0 -10" transform="rotate(0,310,200)"/><path d="M 305 215v 10h 5a 5 5, 0, 0, 0, 0 -10" transform="rotate(180,310,220)"/><path d="M 305 235v 10h 10a 10 10, 0, 0, 0, -10 -10" transform="rotate(-90,310,240)"/><rect x="305" y="245" width="10" height="10" transform="rotate(0,310,250)"/><rect x="305" y="255" width="10" height="10" transform="rotate(0,310,260)"/><rect x="305" y="265" width="10" height="10" transform="rotate(0,310,270)"/><path d="M 305 275v 10h 10a 10 10, 0, 0, 0, -10 -10" transform="rotate(180,310,280)"/><rect x="305" y="295" width="10" height="10" transform="rotate(0,310,300)"/><rect x="305" y="335" width="10" height="10" transform="rotate(0,310,340)"/><rect x="305" y="345" width="10" height="10" transform="rotate(0,310,350)"/><rect x="305" y="375" width="10" height="10" transform="rotate(0,310,380)"/><rect x="315" y="95" width="10" height="10" transform="rotate(0,320,100)"/><rect x="315" y="105" width="10" height="10" transform="rotate(0,320,110)"/><rect x="315" y="115" width="10" height="10" transform="rotate(0,320,120)"/><rect x="315" y="135" width="10" height="10" transform="rotate(0,320,140)"/><rect x="315" y="145" width="10" height="10" transform="rotate(0,320,150)"/><rect x="315" y="155" width="10" height="10" transform="rotate(0,320,160)"/><path d="M 315 165v 10h 10a 10 10, 0, 0, 0, -10 -10" transform="rotate(90,320,170)"/><path d="M 315 205v 10h 5a 5 5, 0, 0, 0, 0 -10" transform="rotate(-90,320,210)"/><rect x="315" y="215" width="10" height="10" transform="rotate(0,320,220)"/><path d="M 315 235v 10h 10a 10 10, 0, 0, 0, -10 -10" transform="rotate(0,320,240)"/><rect x="315" y="245" width="10" height="10" transform="rotate(0,320,250)"/><rect x="315" y="255" width="10" height="10" transform="rotate(0,320,260)"/><rect x="315" y="265" width="10" height="10" transform="rotate(0,320,270)"/><rect x="315" y="275" width="10" height="10" transform="rotate(0,320,280)"/><rect x="315" y="295" width="10" height="10" transform="rotate(0,320,300)"/><circle cx="320" cy="320" r="5" transform="rotate(0,320,320)"/><rect x="315" y="335" width="10" height="10" transform="rotate(0,320,340)"/><rect x="315" y="345" width="10" height="10" transform="rotate(0,320,350)"/><path d="M 315 355v 10h 5a 5 5, 0, 0, 0, 0 -10" transform="rotate(90,320,360)"/><path d="M 315 375v 10h 5a 5 5, 0, 0, 0, 0 -10" transform="rotate(0,320,380)"/><path d="M 325 95v 10h 10a 10 10, 0, 0, 0, -10 -10" transform="rotate(0,330,100)"/><rect x="325" y="105" width="10" height="10" transform="rotate(0,330,110)"/><rect x="325" y="115" width="10" height="10" transform="rotate(0,330,120)"/><rect x="325" y="125" width="10" height="10" transform="rotate(0,330,130)"/><rect x="325" y="135" width="10" height="10" transform="rotate(0,330,140)"/><rect x="325" y="145" width="10" height="10" transform="rotate(0,330,150)"/><rect x="325" y="155" width="10" height="10" transform="rotate(0,330,160)"/><path d="M 325 175v 10h 10a 10 10, 0, 0, 0, -10 -10" transform="rotate(-90,330,180)"/><path d="M 325 185v 10h 5a 5 5, 0, 0, 0, 0 -10" transform="rotate(90,330,190)"/><path d="M 325 215v 10h 5a 5 5, 0, 0, 0, 0 -10" transform="rotate(0,330,220)"/><rect x="325" y="245" width="10" height="10" transform="rotate(0,330,250)"/><path d="M 325 275v 10h 10a 10 10, 0, 0, 0, -10 -10" transform="rotate(0,330,280)"/><rect x="325" y="285" width="10" height="10" transform="rotate(0,330,290)"/><rect x="325" y="295" width="10" height="10" transform="rotate(0,330,300)"/><rect x="325" y="335" width="10" height="10" transform="rotate(0,330,340)"/><path d="M 325 345v 10h 10a 10 10, 0, 0, 0, -10 -10" transform="rotate(90,330,350)"/><path d="M 335 115v 10h 5a 5 5, 0, 0, 0, 0 -10" transform="rotate(0,340,120)"/><path d="M 335 135v 10h 5a 5 5, 0, 0, 0, 0 -10" transform="rotate(0,340,140)"/><rect x="335" y="155" width="10" height="10" transform="rotate(0,340,160)"/><path d="M 335 175v 10h 5a 5 5, 0, 0, 0, 0 -10" transform="rotate(0,340,180)"/><circle cx="340" cy="210" r="5" transform="rotate(0,340,210)"/><path d="M 335 225v 10h 10a 10 10, 0, 0, 0, -10 -10" transform="rotate(-90,340,230)"/><rect x="335" y="235" width="10" height="10" transform="rotate(0,340,240)"/><path d="M 335 245v 10h 10a 10 10, 0, 0, 0, -10 -10" transform="rotate(90,340,250)"/><rect x="335" y="285" width="10" height="10" transform="rotate(0,340,290)"/><rect x="335" y="295" width="10" height="10" transform="rotate(0,340,300)"/><rect x="335" y="305" width="10" height="10" transform="rotate(0,340,310)"/><rect x="335" y="315" width="10" height="10" transform="rotate(0,340,320)"/><rect x="335" y="325" width="10" height="10" transform="rotate(0,340,330)"/><rect x="335" y="335" width="10" height="10" transform="rotate(0,340,340)"/><path d="M 335 375v 10h 5a 5 5, 0, 0, 0, 0 -10" transform="rotate(180,340,380)"/><path d="M 345 105v 10h 5a 5 5, 0, 0, 0, 0 -10" transform="rotate(180,350,110)"/><path d="M 345 155v 10h 5a 5 5, 0, 0, 0, 0 -10" transform="rotate(0,350,160)"/><path d="M 345 195v 10h 5a 5 5, 0, 0, 0, 0 -10" transform="rotate(180,350,200)"/><rect x="345" y="225" width="10" height="10" transform="rotate(0,350,230)"/><path d="M 345 285v 10h 5a 5 5, 0, 0, 0, 0 -10" transform="rotate(0,350,290)"/><rect x="345" y="335" width="10" height="10" transform="rotate(0,350,340)"/><path d="M 345 355v 10h 5a 5 5, 0, 0, 0, 0 -10" transform="rotate(180,350,360)"/><rect x="345" y="375" width="10" height="10" transform="rotate(0,350,380)"/><path d="M 355 95v 10h 5a 5 5, 0, 0, 0, 0 -10" transform="rotate(-90,360,100)"/><rect x="355" y="105" width="10" height="10" transform="rotate(0,360,110)"/><path d="M 355 145v 10h 5a 5 5, 0, 0, 0, 0 -10" transform="rotate(180,360,150)"/><circle cx="360" cy="170" r="5" transform="rotate(0,360,170)"/><rect x="355" y="195" width="10" height="10" transform="rotate(0,360,200)"/><path d="M 355 205v 10h 5a 5 5, 0, 0, 0, 0 -10" transform="rotate(90,360,210)"/><rect x="355" y="225" width="10" height="10" transform="rotate(0,360,230)"/><circle cx="360" cy="250" r="5" transform="rotate(0,360,250)"/><path d="M 355 265v 10h 5a 5 5, 0, 0, 0, 0 -10" transform="rotate(-90,360,270)"/><path d="M 355 275v 10h 5a 5 5, 0, 0, 0, 0 -10" transform="rotate(90,360,280)"/><path d="M 355 295v 10h 5a 5 5, 0, 0, 0, 0 -10" transform="rotate(180,360,300)"/><rect x="355" y="335" width="10" height="10" transform="rotate(0,360,340)"/><rect x="355" y="345" width="10" height="10" transform="rotate(0,360,350)"/><rect x="355" y="355" width="10" height="10" transform="rotate(0,360,360)"/><rect x="355" y="365" width="10" height="10" transform="rotate(0,360,370)"/><path d="M 355 375v 10h 10a 10 10, 0, 0, 0, -10 -10" transform="rotate(90,360,380)"/><path d="M 365 105v 10h 10a 10 10, 0, 0, 0, -10 -10" transform="rotate(0,370,110)"/><path d="M 365 115v 10h 10a 10 10, 0, 0, 0, -10 -10" transform="rotate(180,370,120)"/><path d="M 365 135v 10h 10a 10 10, 0, 0, 0, -10 -10" transform="rotate(-90,370,140)"/><rect x="365" y="145" width="10" height="10" transform="rotate(0,370,150)"/><path d="M 365 155v 10h 5a 5 5, 0, 0, 0, 0 -10" transform="rotate(90,370,160)"/><path d="M 365 185v 10h 10a 10 10, 0, 0, 0, -10 -10" transform="rotate(-90,370,190)"/><rect x="365" y="195" width="10" height="10" transform="rotate(0,370,200)"/><path d="M 365 225v 10h 5a 5 5, 0, 0, 0, 0 -10" transform="rotate(0,370,230)"/><rect x="365" y="295" width="10" height="10" transform="rotate(0,370,300)"/><rect x="365" y="305" width="10" height="10" transform="rotate(0,370,310)"/><path d="M 365 315v 10h 5a 5 5, 0, 0, 0, 0 -10" transform="rotate(90,370,320)"/><path d="M 365 335v 10h 5a 5 5, 0, 0, 0, 0 -10" transform="rotate(0,370,340)"/><path d="M 375 115v 10h 10a 10 10, 0, 0, 0, -10 -10" transform="rotate(0,380,120)"/><rect x="375" y="125" width="10" height="10" transform="rotate(0,380,130)"/><path d="M 375 135v 10h 10a 10 10, 0, 0, 0, -10 -10" transform="rotate(90,380,140)"/><path d="M 375 175v 10h 5a 5 5, 0, 0, 0, 0 -10" transform="rotate(-90,380,180)"/><rect x="375" y="185" width="10" height="10" transform="rotate(0,380,190)"/><path d="M 375 195v 10h 10a 10 10, 0, 0, 0, -10 -10" transform="rotate(90,380,200)"/><circle cx="380" cy="220" r="5" transform="rotate(0,380,220)"/><path d="M 375 235v 10h 5a 5 5, 0, 0, 0, 0 -10" transform="rotate(-90,380,240)"/><path d="M 375 245v 10h 5a 5 5, 0, 0, 0, 0 -10" transform="rotate(90,380,250)"/><path d="M 375 295v 10h 5a 5 5, 0, 0, 0, 0 -10" transform="rotate(0,380,300)"/><circle cx="380" cy="350" r="5" transform="rotate(0,380,350)"/><circle cx="380" cy="380" r="5" transform="rotate(0,380,380)"/></clipPath><clipPath id="clip-path-corners-square-color-0-0"><path clip-rule="evenodd" d="M 15 40v 20a 25 25, 0, 0, 0, 25 25h 20a 25 25, 0, 0, 0, 25 -25v -20a 25 25, 0, 0, 0, -25 -25h -20a 25 25, 0, 0, 0, -25 25M 40 25h 20a 15 15, 0, 0, 1, 15 15v 20a 15 15, 0, 0, 1, -15 15h -20a 15 15, 0, 0, 1, -15 -15v -20a 15 15, 0, 0, 1, 15 -15" transform="rotate(0,50,50)"/><path d="M 35 35v 10h 10a 10 10, 0, 0, 0, -10 -10" transform="rotate(-90,40,40)"/><rect x="35" y="45" width="10" height="10" transform="rotate(0,40,50)"/><path d="M 35 55v 10h 10a 10 10, 0, 0, 0, -10 -10" transform="rotate(180,40,60)"/><rect x="45" y="35" width="10" height="10" transform="rotate(0,50,40)"/><rect x="45" y="45" width="10" height="10" transform="rotate(0,50,50)"/><rect x="45" y="55" width="10" height="10" transform="rotate(0,50,60)"/><path d="M 55 35v 10h 10a 10 10, 0, 0, 0, -10 -10" transform="rotate(0,60,40)"/><rect x="55" y="45" width="10" height="10" transform="rotate(0,60,50)"/><path d="M 55 55v 10h 10a 10 10, 0, 0, 0, -10 -10" transform="rotate(90,60,60)"/></clipPath><clipPath id="clip-path-corners-square-color-1-0"><path clip-rule="evenodd" d="M 315 40v 20a 25 25, 0, 0, 0, 25 25h 20a 25 25, 0, 0, 0, 25 -25v -20a 25 25, 0, 0, 0, -25 -25h -20a 25 25, 0, 0, 0, -25 25M 340 25h 20a 15 15, 0, 0, 1, 15 15v 20a 15 15, 0, 0, 1, -15 15h -20a 15 15, 0, 0, 1, -15 -15v -20a 15 15, 0, 0, 1, 15 -15" transform="rotate(90,350,50)"/><path d="M 335 35v 10h 10a 10 10, 0, 0, 0, -10 -10" transform="rotate(-90,340,40)"/><rect x="335" y="45" width="10" height="10" transform="rotate(0,340,50)"/><path d="M 335 55v 10h 10a 10 10, 0, 0, 0, -10 -10" transform="rotate(180,340,60)"/><rect x="345" y="35" width="10" height="10" transform="rotate(0,350,40)"/><rect x="345" y="45" width="10" height="10" transform="rotate(0,350,50)"/><rect x="345" y="55" width="10" height="10" transform="rotate(0,350,60)"/><path d="M 355 35v 10h 10a 10 10, 0, 0, 0, -10 -10" transform="rotate(0,360,40)"/><rect x="355" y="45" width="10" height="10" transform="rotate(0,360,50)"/><path d="M 355 55v 10h 10a 10 10, 0, 0, 0, -10 -10" transform="rotate(90,360,60)"/></clipPath><clipPath id="clip-path-corners-square-color-0-1"><path clip-rule="evenodd" d="M 15 340v 20a 25 25, 0, 0, 0, 25 25h 20a 25 25, 0, 0, 0, 25 -25v -20a 25 25, 0, 0, 0, -25 -25h -20a 25 25, 0, 0, 0, -25 25M 40 325h 20a 15 15, 0, 0, 1, 15 15v 20a 15 15, 0, 0, 1, -15 15h -20a 15 15, 0, 0, 1, -15 -15v -20a 15 15, 0, 0, 1, 15 -15" transform="rotate(-90,50,350)"/><path d="M 35 335v 10h 10a 10 10, 0, 0, 0, -10 -10" transform="rotate(-90,40,340)"/><rect x="35" y="345" width="10" height="10" transform="rotate(0,40,350)"/><path d="M 35 355v 10h 10a 10 10, 0, 0, 0, -10 -10" transform="rotate(180,40,360)"/><rect x="45" y="335" width="10" height="10" transform="rotate(0,50,340)"/><rect x="45" y="345" width="10" height="10" transform="rotate(0,50,350)"/><rect x="45" y="355" width="10" height="10" transform="rotate(0,50,360)"/><path d="M 55 335v 10h 10a 10 10, 0, 0, 0, -10 -10" transform="rotate(0,60,340)"/><rect x="55" y="345" width="10" height="10" transform="rotate(0,60,350)"/><path d="M 55 355v 10h 10a 10 10, 0, 0, 0, -10 -10" transform="rotate(90,60,360)"/></clipPath></defs><rect x="0" y="0" height="400" width="400" clip-path="url('#clip-path-background-color')" fill="rgba(0,0,0,0)"/><rect x="15" y="15" height="370" width="370" clip-path="url('#clip-path-dot-color')" fill="#000000"/><rect x="15" y="15" height="70" width="70" clip-path="url('#clip-path-corners-square-color-0-0')" fill="#000000"/><rect x="315" y="15" height="70" width="70" clip-path="url('#clip-path-corners-square-color-1-0')" fill="#000000"/><rect x="15" y="315" height="70" width="70" clip-path="url('#clip-path-corners-square-color-0-1')" fill="#000000"/></svg>